<?xml version="1.0" encoding="utf-8"?>
<svg version="1.1" xmlns:xlink="http://www.w3.org/1999/xlink" width="20px" height="20px" xmlns="http://www.w3.org/2000/svg">
  <g transform="matrix(1 0 0 1 -69 -695 )">
    <path d="M 13.721875 18.953125  C 12.5265625 19.459375  11.2609375 19.71484375  9.953125 19.71484375  C 8.64765625 19.71484375  7.3796875 19.459375  6.184375 18.953125  C 5.03125 18.465625  3.99765625 17.7671875  3.10703125 16.87890625  C 2.21875 15.990625  1.5203125 14.9546875  1.0328125 13.8015625  C 0.53125 12.60859375  0.2734375 11.340625  0.2734375 10.03515625  C 0.2734375 8.7296875  0.52890625 7.46171875  1.03515625 6.26640625  C 1.52265625 5.11328125  2.22109375 4.0796875  3.109375 3.1890625  C 3.99765625 2.30078125  5.03359375 1.60234375  6.18671875 1.11484375  C 7.3796875 0.610937499999999  8.64765625 0.353124999999999  9.95546875 0.353124999999999  L 9.97890625 0.353124999999999  L 9.9765625 1.665625  L 9.95546875 1.665625  C 7.71953125 1.665625  5.61953125 2.53515625  4.03984375 4.1171875  C 2.4578125 5.69921875  1.5859375 7.79921875  1.5859375 10.03515625  C 1.5859375 12.27109375  2.45546875 14.37109375  4.0375 15.95078125  C 5.6171875 17.5328125  7.71953125 18.40234375  9.953125 18.40234375  C 12.18671875 18.40234375  14.28671875 17.5328125  15.86875 15.953125  C 17.4484375 14.3734375  18.3203125 12.2734375  18.3203125 10.03984375  L 19.6328125 10.03984375  C 19.6328125 11.3453125  19.375 12.61328125  18.87109375 13.80625  C 18.38359375 14.959375  17.68515625 15.99296875  16.796875 16.88125  C 15.90859375 17.76953125  14.87265625 18.465625  13.721875 18.953125  Z M 19.609375 0.409375  L 19.609375 6.41171875  L 18.296875 6.41171875  L 18.296875 1.721875  L 13.590625 1.721875  L 13.590625 0.409375  L 19.609375 0.409375  Z " fill-rule="nonzero" fill="#333333" stroke="none" transform="matrix(1 0 0 1 69 695 )" />
  </g>
</svg>