<?xml version="1.0" encoding="utf-8"?>
<svg version="1.1" xmlns:xlink="http://www.w3.org/1999/xlink" width="22px" height="21px" xmlns="http://www.w3.org/2000/svg">
  <g transform="matrix(1 0 0 1 -175 -695 )">
    <path d="M 7.16 2.80096  L 7.16 1.83904  C 7.16 1.57408  7.37408 1.36  7.63808 1.36  L 14.36192 1.36  C 14.62784 1.36  14.84 1.5712  14.84 1.83904  L 14.84 2.80096  C 14.84 3.06605667991878  15.0549033200812 3.28096  15.32 3.28096  C 15.5850966799188 3.28096  15.8 3.06605667991878  15.8 2.80096  L 15.8 1.83904  C 15.8 1.04128  15.1568 0.4  14.36192 0.4  L 7.63808 0.4  C 6.8432 0.4  6.2 1.04416  6.2 1.83904  L 6.2 2.80096  C 6.2 3.06605667991878  6.41490332008122 3.28096  6.68 3.28096  C 6.94509667991878 3.28096  7.16 3.06605667991878  7.16 2.80096  Z M 1.4 4.72  C 1.4 4.72  1.4 4.72  1.4 5  L 20.6 5  C 20.6 4.72  20.6 4.72  20.6 4.72  C 20.8650966799188 4.72  21.08 4.50509667991878  21.08 4.24  C 21.08 3.97490332008122  20.8650966799188 3.76  20.6 3.76  C 20.6 3.76  20.6 3.76  20.6 4  L 1.4 4  C 1.4 3.76  1.4 3.76  1.4 3.76  C 1.13490332008122 3.76  0.92 3.97490332008122  0.92 4.24  C 0.92 4.50509667991878  1.13490332008122 4.72  1.4 4.72  Z M 17.59808 6.56128  L 15.93056 19.072  C 15.8778731063003 19.3689047186587  15.6251757356301 19.5888154051596  15.32384 19.6  L 13.4 19.6  C 13.1349033200812 19.6  12.92 19.8149033200812  12.92 20.08  C 12.92 20.3450966799188  13.1349033200812 20.56  13.4 20.56  L 15.32384 20.56  C 16.0928 20.56  16.78016 19.95904  16.88192 19.19872  L 18.54944 6.688  C 18.5505350858844 6.67480000762916  18.5510833326954 6.66156034402798  18.5510833326954 6.64831500478414  C 18.5510833326954 6.38321832486536  18.3361800126142 6.16831500478414  18.0710833326954 6.16831500478414  C 17.8395544541544 6.16831500478414  17.6410214938573 6.33358903449637  17.59904 6.56128  Z M 11.48 19.6  L 6.67616 19.6  C 6.37594889885185 19.585991470736  6.12476848330019 19.3674009192274  6.06944 19.072  L 5.52224 14.96992  C 5.48025850614275 14.7422290344964  5.28172554584558 14.5769550047841  5.05019666730455 14.5769550047841  C 4.78509998738577 14.5769550047841  4.57019666730455 14.7918583248653  4.57019666730455 15.0569550047841  C 4.57019666730455 15.070200344028  4.57074491411557 15.0834400076291  4.57184 15.09664  L 5.11904 19.19872  C 5.21888 19.95328  5.91008 20.56  6.67616 20.56  L 11.48 20.56  C 11.7450966799188 20.56  11.96 20.3450966799188  11.96 20.08  C 11.96 19.8149033200812  11.7450966799188 19.6  11.48 19.6  Z M 5.33930053578089 13.62256  C 5.33930053578089 13.601208968073  5.33787720152804 13.5798816835775  5.33504 13.55872  L 4.40192 6.56128  C 4.36547909040631 6.32755716603826  4.16419663913049 6.15522583220679  3.92765002003158 6.15522583220679  C 3.6625533401128 6.15522583220679  3.44765002003158 6.37012915228801  3.44765002003158 6.63522583220679  C 3.44765002003158 6.652857315411  3.44862148572279 6.67047540692691  3.45056 6.688  L 4.38272 13.6864  C 4.41469913766134 13.9249210869177  4.61822469847944 14.1029805357809  4.85888 14.1029805357809  C 5.12420893541733 14.1029805357809  5.33930053578089 13.8878889354173  5.33930053578089 13.62256  Z M 7.64 8.08  L 7.64 10.96  C 7.64 11.2250966799188  7.85490332008122 11.44  8.12 11.44  C 8.38509667991878 11.44  8.6 11.2250966799188  8.6 10.96  L 8.6 8.08  C 8.6 7.81490332008122  8.38509667991878 7.6  8.12 7.6  C 7.85490332008122 7.6  7.64 7.81490332008122  7.64 8.08  Z M 10.52 8.08  L 10.52 10.96  C 10.52 11.2250966799188  10.7349033200812 11.44  11 11.44  C 11.2650966799188 11.44  11.48 11.2250966799188  11.48 10.96  L 11.48 8.08  C 11.48 7.81490329147099  11.2650966799188 7.59999997138977  11 7.59999997138977  C 10.7349033200812 7.59999997138977  10.52 7.81490329147099  10.52 8.07999997138977  Z M 13.4 8.08  L 13.4 10.96  C 13.4 11.2250966799188  13.6149033200812 11.44  13.88 11.44  C 14.1450966799188 11.44  14.36 11.2250966799188  14.36 10.96  L 14.36 8.08  C 14.36 7.81490332008122  14.1450966799188 7.6  13.88 7.6  C 13.6149033200812 7.6  13.4 7.81490332008122  13.4 8.08  Z " fill-rule="nonzero" fill="#000000" stroke="none" transform="matrix(1 0 0 1 175 695 )" />
  </g>
</svg>