<?xml version="1.0" encoding="utf-8"?>
<svg version="1.1" xmlns:xlink="http://www.w3.org/1999/xlink" width="542px" height="300px" xmlns="http://www.w3.org/2000/svg">
  <g transform="matrix(1 0 0 1 121 68 )">
    <path d="M -121 -68  L 421 -68  L 421 232  L -121 232  L -121 -68  " fill-rule="nonzero" fill="#cccccc" stroke="none" />
    <path d="M -100 -47  L 400 -47  L 400 211  L -100 211  L -100 -47  " fill-rule="nonzero" fill="#ffffff" stroke="none" />
    <path d="M 183.34 22  C 170.74 22  160.84 12.1  160.84 -0.5  C 160.84 -13.1  170.74 -23  183.34 -23  C 195.94 -23  205.84 -13.1  205.84 -0.5  C 205.84 12.1  195.94 22  183.34 22  " fill-rule="nonzero" fill="#cccccc" stroke="none" />
    <path d="M -93 203  L -93 69.35  L 28.25 8.59999999999999  L 198 122.29889298893  L 295 45.05  L 392 122.29889298893  L 392 203  L -93 203  " fill-rule="nonzero" fill="#169bd5" stroke="none" />
  </g>
</svg>