<?xml version="1.0" encoding="utf-8"?>
<svg version="1.1" xmlns:xlink="http://www.w3.org/1999/xlink" width="300px" height="166px" xmlns="http://www.w3.org/2000/svg">
  <g transform="matrix(1 0 0 1 -71 -266 )">
    <path d="M 71 266  L 371 266  L 371 432  L 71 432  L 71 266  " fill-rule="nonzero" fill="#cccccc" stroke="none" />
    <path d="M 83 278  L 359 278  L 359 420  L 83 420  L 83 278  " fill-rule="nonzero" fill="#ffffff" stroke="none" />
    <path d="M 239.45 315.8  C 232.478 315.8  227 310.322  227 303.35  C 227 296.378  232.478 290.9  239.45 290.9  C 246.422 290.9  251.9 296.378  251.9 303.35  C 251.9 310.322  246.422 315.8  239.45 315.8  " fill-rule="nonzero" fill="#cccccc" stroke="none" />
    <path d="M 87 416  L 87 342.3  L 154 308.8  L 247.8 371.512  L 301.4 328.9  L 355 371.512  L 355 416  L 87 416  " fill-rule="nonzero" fill="#169bd5" stroke="none" />
  </g>
</svg>