<?xml version="1.0" encoding="utf-8"?>
<svg version="1.1" xmlns:xlink="http://www.w3.org/1999/xlink" width="65px" height="36px" xmlns="http://www.w3.org/2000/svg">
  <g transform="matrix(1 0 0 1 -655 -145 )">
    <path d="M 655 145  L 720 145  L 720 181  L 655 181  L 655 145  " fill-rule="nonzero" fill="#cccccc" stroke="none" />
    <path d="M 658 148  L 717 148  L 717 178  L 658 178  L 658 148  " fill-rule="nonzero" fill="#ffffff" stroke="none" />
    <path d="M 691.5 155.8  C 689.988 155.8  688.8 154.612  688.8 153.1  C 688.8 151.588  689.988 150.4  691.5 150.4  C 693.012 150.4  694.2 151.588  694.2 153.1  C 694.2 154.612  693.012 155.8  691.5 155.8  " fill-rule="nonzero" fill="#cccccc" stroke="none" />
    <path d="M 659 177  L 659 161.6  L 673.25 154.6  L 693.2 167.695384615385  L 704.6 158.8  L 716 167.695384615385  L 716 177  L 659 177  " fill-rule="nonzero" fill="#169bd5" stroke="none" />
  </g>
</svg>