<?xml version="1.0" encoding="utf-8"?>
<svg version="1.1" xmlns:xlink="http://www.w3.org/1999/xlink" width="42px" height="42px" xmlns="http://www.w3.org/2000/svg">
  <g transform="matrix(1 0 0 1 -723 -1552 )">
    <path d="M 41.6487272727273 20.9718981818182  C 41.6487272727273 9.50024727272727  32.3494690909091 0.200989090909092  20.8778181818182 0.200989090909091  C 9.40616727272727 0.200989090909091  0.106909090909091 9.50024727272727  0.106909090909091 20.9718981818182  C 0.106909090909091 32.4435490909091  9.40616727272727 41.7428072727273  20.8778181818182 41.7428072727273  C 32.3494690909091 41.7428072727273  41.6487272727273 32.4435490909091  41.6487272727273 20.9718981818182  Z M 31 14.6117236363636  L 31 27.3320727272727  L 26.7663709090909 22.7062690909091  L 26.7663709090909 26.7535418181818  C 26.7663709090909 27.4475345454545  26.29536 27.9099927272727  25.5885381818182 28  L 11.4563781818182 28  C 10.7495563636364 27.9099927272727  10.2785454545455 27.4475345454545  11 26.7535418181818  L 11 15.1896436363636  C 10.2785454545455 14.4956509090909  10.7495563636364 14.0331927272727  11.4563781818182 14  L 25.5885381818182 14  C 26.29536 14.0331927272727  26.7663709090909 14.4956509090909  26.7663709090909 15.1896436363636  L 26.7663709090909 19.2369163636364  L 31 14.6117236363636  Z " fill-rule="nonzero" fill="#ffffff" stroke="none" transform="matrix(1 0 0 1 723 1552 )" />
  </g>
</svg>