<?xml version="1.0" encoding="utf-8"?>
<svg version="1.1" xmlns:xlink="http://www.w3.org/1999/xlink" width="43px" height="43px" xmlns="http://www.w3.org/2000/svg">
  <g transform="matrix(1 0 0 1 -945 -1551 )">
    <path d="M 43 21.5  C 43 9.62700892857143  33.3729910714286 0  21.5 0  C 9.62700892857143 0  0 9.62700892857143  0 21.5  C 0 33.3729910714286  9.62700892857143 43  21.5 43  C 33.3729910714286 43  43 33.3729910714286  43 21.5  Z M 37 29.8888392857143  C 37.0203125 32.2116071428571  35.1294642857143 34.1024553571429  32.8066964285714 34  L 10.1933035714286 34  C 7.87053571428571 34.1024553571429  5.9796875 32.2116071428571  6 29.8888392857143  L 6 16.5857142857143  C 5.9796875 14.2629464285714  7.87053571428571 12.3720982142857  10.1933035714286 12.3720982142857  L 13.13515625 12.3720982142857  C 13.4087053571429 10.4140625  15.0979910714286 8.89754464285714  17.1328125 8.89754464285714  L 25.8767857142857 8.89754464285714  C 27.9116071428571 8.89754464285714  29.6008928571429 10.4092633928571  29.8744419642857 12.3720982142857  L 32.8162946428571 12.3720982142857  C 35.1390625 12.3720982142857  37.0299107142857 14.2629464285714  37 16.5857142857143  L 37 29.8888392857143  Z " fill-rule="nonzero" fill="#ffffff" stroke="none" transform="matrix(1 0 0 1 945 1551 )" />
  </g>
</svg>