<?xml version="1.0" encoding="utf-8"?>
<svg version="1.1" xmlns:xlink="http://www.w3.org/1999/xlink" width="15px" height="11px" xmlns="http://www.w3.org/2000/svg">
  <g transform="matrix(1 0 0 1 -682 -983 )">
    <path d="M 14.94732219 4.54844254255319  C 15.02216727 4.71252765558511  14.965056 4.81206808909575  14.965056 4.81206808909575  C 14.965056 5.3111319162234  14.550196365 5.71582978590426  14.03828946 5.71582978590426  C 13.799790555 5.71582978590426  13.584331635 5.62500424867021  13.41984 5.48011915292553  L 13.372922175 5.4376340518617  C 12.222877095 3.43402553590426  10.02346473 1.87923404654255  7.501492365 1.87923404654255  C 5.09569746 1.87923404654255  2.988445095 3.40597446808511  1.801117095 5.25870638430851  C 1.76997819 5.33196596010638  1.726411635 5.39814468085106  1.67781819 5.46010212234042  C 1.658688015 5.49210211702128  1.637742555 5.52287659175532  1.619310555 5.55542127659574  L 1.636765095 5.51511489228723  C 1.46864292 5.68246808776596  1.205428365 5.81537020478723  0.945844365 5.81537020478723  C 0.434496 5.81523403590426  0.019636365 5.4105361662234  0.019636365 4.91201701462766  C 0.019636365 4.6568340412234  0.04072146 4.36583828590425  0.215266905 4.20188935638298  L 0.223226175 4.18405105718085  L 0.215266905 4.20188935638298  C 1.686475635 1.41557446542553  4.098274905 0.0199659507978728  7.50749673 0.0199659507978728  C 11.07255273 0.0199659507978728  13.102027635 1.45996594547872  14.94732219 4.54844254255319  Z M 2.79937746 6.51528510904255  C 3.81886254 4.92835744148936  5.448139635 3.83300425398936  7.443962175 3.83300425398936  C 9.37666908 3.83300425398936  11.01041454 4.90098723271277  11.968459635 6.37026382978723  C 12.162973095 6.62680850664894  12.345338175 6.79647660239362  12.345338175 7.09387233909575  C 12.345338175 7.59307233510638  11.93075781 7.99763403590426  11.419130175 7.99763403590426  C 11.237323635 7.99763403590426  11.06906181 7.94425530718085  10.92621381 7.85642552925532  L 10.851368715 7.80100425265957  C 10.734353445 7.69601701994681  10.783505445 7.73496170079787  10.715642175 7.65053617420213  C 10.62767127 7.54677447606383  10.591784715 7.45227234973404  10.512331635 7.3177361768617  C 9.89039127 6.28338723404255  8.75682327 5.57203405585106  7.43795781 5.57203405585106  C 6.119930175 5.57203405585106  4.97784435 6.27167660771277  4.35548508 7.30507235372341  C 4.255226175 7.46071490824468  4.205375985 7.59429788430851  4.080680715 7.82851064494681  C 4.04004654 7.87113191489362  4.083752715 7.83463830319149  4.03697454 7.87698723537234  L 3.98112 7.92491915026596  C 3.82877673 8.03222128324468  3.643060365 8.09731063829787  3.44072727 8.09731063829787  C 2.92896 8.09731063829787  2.51424 7.6927489375  2.51424 7.1939574481383  C 2.51424 6.92406808909574  2.612404365 6.70687659973404  2.79937746 6.51528510904255  Z M 5.61137454 9.16338723803192  C 5.611234905 8.20529361569149  6.40772073 7.42871489893617  7.38978327 7.42871489893617  C 8.372404365 7.42871489893617  9.16875054 8.20529361569149  9.16875054 9.16338723803192  C 9.16875054 10.1210723390957  8.372404365 10.8977872393617  7.38978327 10.8977872393617  C 6.40772073 10.8977872393617  5.61137454 10.1210723390957  5.61137454 9.16338723803192  Z " fill-rule="nonzero" fill="#ffffff" stroke="none" transform="matrix(1 0 0 1 682 983 )" />
  </g>
</svg>