<?xml version="1.0" encoding="utf-8"?>
<svg version="1.1" xmlns:xlink="http://www.w3.org/1999/xlink" width="24px" height="12px" xmlns="http://www.w3.org/2000/svg">
  <g transform="matrix(1 0 0 1 -756 -982 )">
    <path d="M 24 8.5999999921875  C 24 10.475199984375  22.4743999921875 12  20.5999999921875 12  L 3.4000000078125 12  C 1.5256000078125 12  0 10.4752000078125  0 8.5999999921875  L 0 3.4000000078125  C 0 1.5247999921875  1.5256000078125 0  3.4000000078125 0  L 20.5999999921875 0  C 22.4743999921875 0  24 1.5247999921875  24 3.4000000078125  L 24 8.5999999921875  Z M 20.5999999921875 1  L 3.4000000078125 1  C 1.9663999921875 0.7999999921875  0.7999999921875 1.9663999921875  0.7999999921875 3.4000000078125  L 0.7999999921875 8.5999999921875  C 0.7999999921875 10.033599984375  1.9663999921875 11.199999984375  3.4000000078125 11  L 20.5999999921875 11  C 22.033599984375 11.2000000078125  23.199999984375 10.0336000078125  23.2000000078125 8.5999999921875  L 23.2000000078125 3.4000000078125  C 23.2000000078125 1.966400015625  22.0336000078125 0.800000015624998  20.5999999921875 1  Z M 12.7999999921875 9.5136  L 12.7999999921875 2.4544000078125  C 12.7999999921875 2.3976  12.865599984375 2.4  12.9247999921875 2.4  L 15.1759999921875 2.4  C 16.307199984375 2.4  17.0544 2.8447999921875  17.3592 3.7552000078125  C 17.4760000078125 4.1056000078125  17.5360000078125 4.4472  17.5360000078125 5.5944  C 17.5360000078125 6.7416  17.4768 7.8832000078125  17.3592 8.2327999921875  C 17.0536000078125 9.1447999921875  16.3063999921875 9.6  15.1759999921875 9.6  L 12.9247999921875 9.6  C 12.865599984375 9.6  12.7999999921875 9.5704000078125  12.7999999921875 9.5136  Z M 13.6000000078125 8.7640000078125  C 13.6000000078125 8.8024000078125  13.7200000078125 8.8000000078125  13.7608000078125 8.8000000078125  L 14.9904 8.8000000078125  C 15.7968 8.8000000078125  16.2984 8.554400015625  16.5151999921875 7.9288000078125  C 16.602399984375 7.692  16.652799984375 6.584000015625  16.6528000078125 5.5783999921875  C 16.65280003125 4.57279996875  16.6024000078125 4.2895999921875  16.5151999921875 4.0519999921875  C 16.2984 3.426399984375  15.7975999921875 3.1992  14.9904 3.1992  L 13.7608000078125 3.1992  C 13.721600015625 3.1992  13.6000000078125 3.1648000078125  13.6000000078125 3.2023999921875  L 13.6000000078125 8.7640000078125  Z M 11.2000000078125 2.4  L 10.3999999921875 2.4  L 10.3999999921875 5.5999999921875  L 7.2 5.5999999921875  L 7.2 2.4  L 6.4000000078125 2.4  L 6.4000000078125 9.6  L 7.2 9.6  L 7.2 6.4000000078125  L 10.3999999921875 6.4000000078125  L 10.3999999921875 9.6  L 11.2000000078125 9.6  L 11.2000000078125 2.4  Z " fill-rule="nonzero" fill="#ffffff" stroke="none" transform="matrix(1 0 0 1 756 982 )" />
  </g>
</svg>