<?xml version="1.0" encoding="utf-8"?>
<svg version="1.1" xmlns:xlink="http://www.w3.org/1999/xlink" width="43px" height="43px" xmlns="http://www.w3.org/2000/svg">
  <g transform="matrix(1 0 0 1 -1270 -1551 )">
    <path d="M 0 21.5  C 0 33.3737333333333  9.62339999999995 43  21.5 43  C 33.3737333333333 43  43 33.3737333333333  43 21.5  C 43 9.62626666666665  33.3737333333333 0  21.5 0  C 9.62339999999995 0  0 9.62626666666665  0 21.5  Z M 2.86666666666656 21.5  C 2.86666666666656 11.2258666666667  11.2258666666667 2.86666666666656  21.5 2.86666666666656  C 31.7741333333333 2.86666666666656  40.1333333333334 11.2258666666667  40.1333333333334 21.5  C 40.1333333333334 31.7741333333333  31.7741333333333 40.1333333333334  21.5 40.1333333333334  C 11.2258666666667 40.1333333333334  2.86666666666656 31.7741333333333  2.86666666666656 21.5  Z " fill-rule="nonzero" fill="#ffffff" stroke="none" transform="matrix(1 0 0 1 1270 1551 )" />
  </g>
</svg>