<?xml version="1.0" encoding="utf-8"?>
<svg version="1.1" xmlns:xlink="http://www.w3.org/1999/xlink" width="26px" height="12px" xmlns="http://www.w3.org/2000/svg">
  <g transform="matrix(1 0 0 1 -1012 -982 )">
    <path d="M 2.45427538815789 1.21809849193548  L 22.3716888530702 1.21809849193548  C 22.6291528267544 1.21809849193548  22.8728854078947 1.3054957016129  23.054826622807 1.45989742741935  C 23.2402006929825 1.61721239516129  23.3397534385965 1.82405242741935  23.3397534385965 2.03963220967742  L 23.3397534385965 5.19467119354839  L 24.5103563135965 5.19467119354839  L 24.5103563135965 6.84065184677419  L 23.3397534385965 6.84065184677419  L 23.3397534385965 9.99569083064516  C 23.3397534385965 10.2141838306452  23.2367678377193 10.4210238870968  23.054826622807 10.5754256129032  C 22.8694525526316 10.7327405806452  22.62572 10.8172245483871  22.3716888530702 10.8172245241935  L 2.45427538815789 10.8172245241935  C 2.19681141447368 10.8172245241935  1.95307883333333 10.7298273145161  1.77113761842105 10.5754256129032  C 1.58576354824561 10.4181106451613  1.48621080263158 10.2112706129032  1.48621083114035 9.99569083064516  L 1.48621083114035 2.03963220967742  C 1.48621083114035 1.82113920967742  1.58919643201754 1.61429915322581  1.77113761842105 1.45989742741935  C 1.95651168859649 1.30258245967742  2.20024424122807 1.21809849193548  2.45427538815789 1.21809849193548  Z M 24.719760370614 2.03963220967742  C 24.7163275153509 0.947167185483872  23.6624416337719 0.0528024919354838  22.3716888530702 0  L 2.45427538815789 0  C 1.16695549122807 0.0528024677419355  0.109636754385965 0.947167161290323  0.109636754385965 2.0425454516129  L 0.109636754385965 9.99569083064516  C 0.109636754385965 11.0881558548387  1.16352263596491 11.9854337903226  2.45427538815789 12  L 22.3751217083333 12  C 23.6624416052632 11.9854337903226  24.7197603421053 11.0910690967742  24.719760370614 9.99569083064516  L 24.719760370614 8.00594787096774  C 25.3651367324561 8.00594787096774  25.8903632741228 7.55730890322581  25.890363245614 7.012533  L 25.890363245614 5.02279004032258  C 25.890363245614 4.47510091935484  25.361703877193 4.02937516935484  24.719760370614 4.02937516935484  L 24.719760370614 2.03963220967742  Z " fill-rule="nonzero" fill="#ffffff" stroke="none" transform="matrix(1 0 0 1 1012 982 )" />
  </g>
</svg>