<?xml version="1.0" encoding="utf-8"?>
<svg version="1.1" xmlns:xlink="http://www.w3.org/1999/xlink" width="25px" height="19px" xmlns="http://www.w3.org/2000/svg">
  <g transform="matrix(1 0 0 1 -954 -1563 )">
    <path d="M 24.6543560606061 4.636  C 24.6496212121212 4.085  24.2045454545455 3.6385  23.655303030303 3.6385  L 17.6278409090909 3.6385  L 17.6278409090909 1.02125  C 17.6278409090909 0.57  17.2585227272727 0.199499999999999  16.8087121212121 0.199499999999999  L 8.18655303030303 0.199499999999999  C 7.73674242424242 0.199499999999999  7.36742424242424 0.565249999999999  7.36742424242424 1.02125  L 7.36742424242424 3.6385  L 1.34469696969697 3.6385  C 0.795454545454543 3.6385  0.350378787878787 4.085  0.350378787878787 4.636  L 0.350378787878787 17.803  C 0.350378787878787 18.354  0.795454545454543 18.8005  1.34469696969697 18.8005  L 23.6600378787879 18.8005  C 24.2092803030303 18.8005  24.6543560606061 18.354  24.6543560606061 17.803  L 24.6543560606061 4.636  Z M 19.3039772727273 10.88225  C 19.3039772727273 14.649  16.2547348484848 17.71275  12.5 17.71275  C 8.74526515151515 17.71275  5.69602272727273 14.649  5.69602272727273 10.88225  C 5.69602272727273 7.11549999999999  8.74526515151515 4.05175  12.5 4.05175  C 16.2547348484848 4.05175  19.3039772727273 7.1155  19.3039772727273 10.88225  Z M 22.4763257575758 5.1015  C 22.4810606060606 5.67625  22.0170454545454 6.14175  21.4393939393939 6.14175  C 20.8664772727273 6.14175  20.4024621212121 5.67625  20.4024621212121 5.1015  C 20.4024621212121 4.52675  20.8664772727273 4.06125  21.4393939393939 4.06125  C 22.0123106060606 4.06125  22.4763257575758 4.52675  22.4763257575758 5.1015  Z " fill-rule="nonzero" fill="#ffffff" stroke="none" transform="matrix(1 0 0 1 954 1563 )" />
  </g>
</svg>