<?xml version="1.0" encoding="utf-8"?>
<svg version="1.1" xmlns:xlink="http://www.w3.org/1999/xlink" width="43px" height="43px" xmlns="http://www.w3.org/2000/svg">
  <g transform="matrix(1 0 0 1 -834 -1551 )">
    <path d="M 42.8544576696429 21.5  C 42.8544576696429 9.70628984263393  33.2937592522321 0.145542330357143  21.5 0.145542330357143  C 9.70624074776786 0.145542330357143  0.145542330357142 9.70624074776786  0.145542330357142 21.5  C 0.145542330357142 33.2937592522321  9.70624074776786 42.8544576696429  21.5 42.8544576696429  C 33.2937592522321 42.8544576696429  42.8544576696429 33.2937101573661  42.8544576696429 21.5  Z M 18.5917318091518 19.3180622299107  L 18.5917318091518 12.8594183180804  C 18.5917318091518 12.0313820033482  18.8953271183036 11.3137440133929  19.4749672622768 10.7341529642857  C 20.0822069754464 10.1545128203125  20.7721963013393 9.87851708035714  21.572633046875 9.87851708035714  C 22.3730697924107 9.87851708035714  23.0631082131696 10.1545128203125  23.6702988314732 10.7341529642857  C 24.2499389754464 11.3137931082589  24.5535342845982 12.0037824341518  24.5535342845982 12.8594183180804  L 24.5535342845982 19.3180622299107  C 24.5535342845982 20.1460985446429  24.2499389754464 20.8637365345982  23.6702988314732 21.4433275837054  C 23.0630591183036 22.0229677276786  22.3730697924107 22.2989634676339  21.572633046875 22.2989634676339  C 20.7721963013393 22.2989634676339  20.0821578805804 22.0229677276786  19.4749672622768 21.4433275837054  C 18.8953271183036 20.8636874397321  18.5917318091518 20.1736981138393  18.5917318091518 19.3180622299107  Z M 18.3040971305804 31.37824084375  L 18.3040971305804 33.2667490133929  L 16.4155889609375 33.2667490133929  L 16.4155889609375 31.37824084375  L 18.3040971305804 31.37824084375  Z M 22.5168625602679 31.37824084375  L 22.5168625602679 33.2667490133929  L 20.628354390625 33.2667490133929  L 20.628354390625 31.37824084375  L 22.5168625602679 31.37824084375  Z M 26.5844110390625 31.37824084375  L 26.5844110390625 33.2667490133929  L 24.6959028694196 33.2667490133929  L 24.6959028694196 31.37824084375  L 26.5844110390625 31.37824084375  Z M 28.4729682555804 19.0696169162946  C 28.4728701138393 20.7256895457589  27.8932790647321 22.1885651428571  26.7615983459821 23.4581946127232  C 25.6023671529018 24.7002245133929  24.2222902633929 25.4454621205357  22.5662667767857 25.6662586741071  L 22.5662667767857 29.1992004866071  L 20.5789992689732 29.1992004866071  L 20.5789992689732 25.6662586741071  C 18.9505262087054 25.4454620725446  17.5428988928571 24.7002245133929  16.3836676997768 23.4581946127232  C 15.2520360758929 22.1885651428571  14.6723959319196 20.7256895457589  14.6723959319196 19.0696169162946  L 16.3560681305804 19.0696169162946  C 16.3560681305804 20.5048438493304  16.8805091361607 21.6917237064732  17.9017424352679 22.6577578671875  C 18.922975734375 23.6237920279018  20.1650056350446 24.0930338950893  21.57268209375 24.0930338950893  C 22.9803094575893 24.0930338950893  24.1947888839286 23.6237920279018  25.2436217522321 22.6577578671875  C 26.2924546205357 21.6917237064732  26.7891487243304 20.5048929441964  26.7891487243304 19.0696169162946  L 28.4729682555804 19.0696169162946  Z " fill-rule="nonzero" fill="#ffffff" stroke="none" transform="matrix(1 0 0 1 834 1551 )" />
  </g>
</svg>