<?xml version="1.0" encoding="utf-8"?>
<svg version="1.1" xmlns:xlink="http://www.w3.org/1999/xlink" width="15px" height="15px" xmlns="http://www.w3.org/2000/svg">
  <g transform="matrix(1 0 0 1 -998 -1025 )">
    <path d="M 1.09882352941176 14.7813861386139  C 0.992830342860073 14.8886883420333  0.84890238191644 14.9489670821117  0.698823529411765 14.9489108910891  C 0.697964709502562 14.9489148483009  0.697105881772671 14.9489168269145  0.696247052924515 14.9489168269145  C 0.384368605961244 14.9489168269145  0.131541170571574 14.6935861495903  0.131541170571574 14.3786197972115  C 0.131541170571574 14.2264372625968  0.19176888347314 14.0805669741495  0.298823529411765 13.9734653465347  L 13.9258823529412 0.212673267326733  C 14.0300607184132 0.116968815769425  14.1658324652259 0.0639345681024012  14.3066648454002 0.0639345681024012  C 14.619193039128 0.0639345681024012  14.8725471983414 0.319797184337714  14.8725471983414 0.635419716617253  C 14.8725471983414 0.777936609780649  14.8198188976173 0.915310850817349  14.7247058823529 1.02059405940594  L 1.09882352941176 14.7813861386139  Z " fill-rule="nonzero" fill="#ffffff" stroke="none" transform="matrix(1 0 0 1 998 1025 )" />
  </g>
</svg>