<?xml version="1.0" encoding="utf-8"?>
<svg version="1.1" xmlns:xlink="http://www.w3.org/1999/xlink" width="24px" height="18px" xmlns="http://www.w3.org/2000/svg">
  <g transform="matrix(1 0 0 1 -1261 -1510 )">
    <path d="M 1.2 9  C 1.2 9.99375  2.00625 10.8  3 10.8  C 3.99375 10.8  4.8 9.99375  4.8 9  C 4.8 8.00625  3.99375 7.2  3 7.2  C 2.00625 7.2  1.2 8.00625  1.2 9  Z M 7.2 8.4  L 7.2 7.2  L 9 7.2  C 9.33046875 7.2  9.6 7.46953125  9.6 7.8  C 9.6 8.13046875  9.33046875 8.4  9 8.4  L 7.2 8.4  Z M 19.2 10.8  L 19.2 7.2  L 21.6 7.2  L 21.6 8.4  L 22.8 8.4  L 22.8 9.6  L 21.6 9.6  L 21.6 10.8  L 19.2 10.8  Z M 21.6 6  L 19.2 6  C 18.53671875 6  18 6.53671875  18 7.2  L 18 10.8  C 18 11.46328125  18.53671875 12  19.2 12  L 21.6 12  C 22.26328125 12  22.8 11.46328125  22.8 10.8  L 22.8 7.2  C 22.8 6.53671875  22.26328125 6  21.6 6  Z M 0 3  C 0 1.6734375  1.0734375 0.6  2.4 0.6  L 21.6 0.6  C 22.9265625 0.6  24 1.6734375  24 3  L 24 15  C 24 16.3265625  22.9265625 17.4  21.6 17.4  L 2.4 17.4  C 1.0734375 17.4  0 16.3265625  0 15  L 0 3  Z M 13.2 10.8  L 13.2 9.6  L 16.8 9.6  L 16.8 8.4  L 13.2 8.4  L 13.2 7.2  L 16.8 7.2  L 16.8 6  L 12 6  L 12 12  L 16.8 12  L 16.8 10.8  L 13.2 10.8  Z M 8.0296875 9.6  L 9.41484375 12  L 10.8 12  L 9.3890625 9.5578125  C 10.1953125 9.3796875  10.8 8.66015625  10.8 7.8  C 10.8 6.80625  9.99375 6  9 6  L 6 6  L 6 12  L 7.2 12  L 7.2 9.6  L 8.0296875 9.6  Z " fill-rule="nonzero" fill="#ffffff" stroke="none" transform="matrix(1 0 0 1 1261 1510 )" />
  </g>
</svg>