<?xml version="1.0" encoding="utf-8"?>
<svg version="1.1" xmlns:xlink="http://www.w3.org/1999/xlink" width="105px" height="78px" xmlns="http://www.w3.org/2000/svg">
  <g transform="matrix(1 0 0 1 -871 -469 )">
    <path d="M 38 14.7605355747709  L 38 4.30905887396226  L 34 4.30905887396226  L 34 14.7605355747709  L 38 14.7605355747709  Z M 15 4.30905887396226  L 15 14.7605355747709  L 23 14.7605355747709  L 23 4.30905887396226  L 15 4.30905887396226  Z M 0.880675908140161 9.53479722436657  L 14 18.9766376125067  L 14 0.198562442695415  L 0.880675908140161 9.53479722436657  Z M 72 14.8997957796226  L 72 4.44831899256064  L 68 4.44831899256064  L 68 14.8997957796226  L 72 14.8997957796226  Z M 73.1137723609704 23.4747415909434  L 73.1474268730997 23.6093597257143  C 70.5472778546459 24.7077551957775  68.0807721681639 26.0988877666572  65.7956497518059 27.7558316610243  C 63.7392410833423 29.2192240922911  56.5267240806469 33.8171311542857  55.0633316493801 34.4797774939084  C 53.2062809433984 35.4326253582885  51.5409453876832 36.7198868776644  50.1509286736388 38.2769385505121  C 48.7150049579046 39.5609213290885  47.1764662721769 40.7253047731201  45.5507006197305 41.7584430680323  C 45.1564521190221 42.0312842117019  44.7839732303541 42.3343113093293  44.4366191534232 42.6647947661455  C 44.3474917847666 42.3633311014997  44.2056522239245 42.0800448998865  44.0176780860377 41.8280731704582  C 43.6585424756432 41.6027660138394  43.2538335775217 41.4600674825309  42.8328060644744 41.4102926421563  C 43.0776718757952 40.9913515747709  43.3561922854987 41.4102926421563  44.0176780860377 40.5039409440431  C 44.6791638865768 39.5975892459299  44.2613834445283 39.1113391542857  44.4714342046361 38.7272131381132  C 45.3006941382209 38.7861497168487  46.1145238115908 38.4811224470941  46.7007576763342 37.8916519952561  C 47.6248755810266 37.3082404416474  48.4479690368589 36.57843090207  49.1378108299731 35.7307981731536  C 49.4965741878567 35.113620896634  49.755100966981 34.4434098354797  49.9037418704043 33.7451800599461  C 50.1137926305121 32.2829481677628  49.6948515631267 31.515856588248  48.8941055577359 31.2721513160108  C 47.5351582801078 30.8543707877089  45.4126009539623 32.7703587984906  45.4126009539623 32.7703587984906  C 45.126104148085 32.8212118249927  44.8459525198474 32.9029226960774  44.5770398111051 33.0140640707278  C 43.3973327811986 32.9047942896292  42.2080929097042 33.0593954702718  41.0955352935849 33.4666596502426  C 40.4340494067925 33.6755499575202  39.1795472828032 35.6959831219407  37.9250450725606 37.5086865181671  C 36.6705428623181 39.3213899143935  34.4435404687871 41.4102926421563  34.1626991534232 43.0129452782749  C 33.7100533287881 46.2667286372115  33.5813809907487 49.5573972461193  33.7785731372507 52.8365906906739  C 34.131599611781 55.8929474966263  34.7020783830256 58.9202467287636  35.4856709270081 61.8954656017251  C 35.8338213528841 64.2988642432345  35.172335552345 66.9819437472776  35.4856709270081 68.8584747230189  C 35.9742420968194 74.536808652938  54.5109329000539 77.6782863456604  55.0331585819946 76.9750224319138  C 55.5553842639353 76.2717585181671  55.9046952288949 76.4527967499731  55.7642745712129 75.930570981779  C 55.623853913531 75.4083452135849  56.0787704849596 75.3387151974124  56.5661811156873 74.3638939359569  C 56.775071422965 74.0157435100809  56.8098864741779 73.1442068631806  57.0895673367116 72.6916112836658  C 57.8206833259299 71.4719242108895  64.3717144418329 65.4094641785445  67.5422045766038 61.9964292243666  C 68.1879907770417 61.3024212200035  68.6858793393703 60.4843203753878  69.0055969216172 59.5918700437736  C 69.3537473474933 58.7563089871698  69.0055969216172 59.5918700437736  69.3189323825337 58.1992681677628  C 69.8240694188205 56.6902181415241  70.1972181946999 55.1401557526529  70.4341743016712 53.5665461408086  C 70.5402497934707 52.7569293904412  70.285707325656 51.9415449468608  69.7378734499191 51.3360622162803  C 70.7148299522524 49.9697205352822  71.3680500987302 48.3989760676774  71.6480589377898 46.7427971381132  C 71.616695854258 45.6184952404278  70.9383379693647 44.613621116776  69.907306635903 44.1641627877089  C 70.4540441009835 43.0540950918423  70.8748303220006 41.8863257133281  71.1618087598922 40.6826581839353  C 71.4055141183828 39.6382068200539  70.3262477032884 38.3837046960647  69.0369305280863 37.2011535801617  C 67.4795965403231 36.3027175195779  65.6052172602805 36.1371063066265  63.9144767922372 36.7485580006469  C 62.2236260321294 37.3601423456604  68.3394691372507 33.5084377634502  69.7680464310512 32.1494904858221  C 70.2218025496496 31.6968949063073  72.4511259350943 30.4087381839353  73.9841484687871 29.3979413321833  C 74.8634875512869 28.9078052182378  75.6530562960717 28.2716765296629  76.3190775469542 27.5167683726146  C 76.8413032288949 26.8541220329919  77.1198236385984 26.4015263672237  77.0153784849596 25.879300685283  C 76.3887076493801 23.9633126745014  75.4475409000539 23.0221459251752  73.1137723609704 23.4747415909434  Z M 83 4.3438739251752  L 83 14.7953506259838  L 90 14.7953506259838  L 90 4.3438739251752  L 83 4.3438739251752  Z M 75 4.3438739251752  L 75 14.7953506259838  L 80 14.7953506259838  L 80 4.3438739251752  L 75 4.3438739251752  Z M 25 4.3438739251752  L 25 14.7953506259838  L 30 14.7953506259838  L 30 4.3438739251752  L 25 4.3438739251752  Z M 104.819834592776 9.50578469606469  L 92 0.198562442695415  L 92 18.837377407655  L 104.819834592776 9.50578469606469  Z " fill-rule="nonzero" fill="#ffffff" stroke="none" transform="matrix(1 0 0 1 871 469 )" />
  </g>
</svg>