<?xml version="1.0" encoding="utf-8"?>
<svg version="1.1" xmlns:xlink="http://www.w3.org/1999/xlink" width="52px" height="70px" xmlns="http://www.w3.org/2000/svg">
  <g transform="matrix(1 0 0 1 -2294 -529 )">
    <path d="M 0 8.75765529296874  C 0.0142756868030271 3.93175036619263  3.8856395412764 0.0231618592722382  8.66558346875007 0  L 43.3279173437501 0  C 48.1078612712235 0.0231618592722382  51.9792251256969 3.93175036619263  52 8.75765529296874  L 52 61.2510936132812  C 51.9792251256969 66.0769985400574  48.1078612712235 69.9855870469777  43.3279173437501 70  L 8.66558346875007 70  C 3.8856395412764 69.9855870469777  0.0142756868030271 66.0769985400574  0 61.2510936132812  L 0 8.75765529296874  Z M 43 9  L 9 9  L 9 61  L 43 61  L 43 9  Z M 24.4502197265626 35.21875  L 24.4502197265626 36.485668182373  L 23.1953674316407 36.485668182373  L 23.1953674316407 38.0685615539551  L 16.25 38.0685615539551  L 16.25 30.7890625  L 17.5530151367187 30.7890625  L 17.5530151367187 29.522144317627  L 15.9851969401041 29.522144317627  L 15.9851969401041 27.9392509460449  L 18.8078674316405 27.9392509460449  L 18.8078674316405 30.7860450744629  L 24.4502197265626 30.7860450744629  L 24.4502197265626 32.3689384460449  L 23.1953674316407 32.3689384460449  L 23.1953674316407 35.21875  L 24.4502197265626 35.21875  Z M 31.6604166666666 26.356330871582  L 30.4085795084635 26.356330871582  L 30.4085795084635 25.089412689209  L 28.840761311849 25.089412689209  L 28.840761311849 23.506519317627  L 27.5859090169271 23.506519317627  L 27.5859090169271 22.2396011352539  L 28.840761311849 22.2396011352539  L 28.840761311849 20.659725189209  L 26.0180908203126 20.659725189209  L 26.0180908203126 19.3928070068359  L 28.840761311849 19.3928070068359  L 28.840761311849 18.046875  L 35.75 18.046875  L 35.75 25.089412689209  L 31.6604166666666 25.089412689209  L 31.6604166666666 26.356330871582  Z M 16.25 25.0893859863281  L 16.25 18.046875  L 23.1953674316407 18.046875  L 23.1983561197917 22.2395744323731  L 24.4502461748824 22.2395744323731  L 24.4532084147136 22.2395744323731  L 24.4532084147136 23.5064926147461  L 23.1983561197917 23.5064926147461  L 23.1983561197917 25.0893859863281  L 20.3756856282553 25.0893859863281  L 20.3756856282553 26.3563041687012  L 18.8078674316405 26.3563041687012  L 18.8078674316405 25.0893859863281  L 16.25 25.0893859863281  Z M 30.4085795084635 19.3927803039551  L 30.4085795084635 23.5064926147461  L 34.4831136067708 23.5064926147461  L 34.4831136067708 19.3927803039551  L 30.4085795084635 19.3927803039551  Z M 21.6275492350259 36.485668182373  L 21.6275492350259 32.3689117431641  L 17.5530151367187 32.3689117431641  L 17.5530151367187 36.485668182373  L 21.6275492350259 36.485668182373  Z M 17.5530151367187 19.3928070068359  L 17.5530151367187 23.506519317627  L 21.6275492350259 23.506519317627  L 21.6275492350259 19.3928070068359  L 17.5530151367187 19.3928070068359  Z M 26.0180643717447 29.519100189209  L 26.0180643717447 30.786018371582  L 24.4502461751302 30.786018371582  L 24.4502461751302 29.519100189209  L 26.0180643717447 29.519100189209  Z M 30.4085530598959 27.9392509460449  L 30.4085530598959 29.5191268920898  L 28.8407348632811 29.5191268920898  L 28.8407348632811 27.9392509460449  L 30.4085530598959 27.9392509460449  Z M 24.4502461751302 26.356330871582  L 24.4502461751302 29.519100189209  L 23.1953938802083 29.519100189209  L 23.1953938802083 27.9392242431641  L 21.6305643717448 27.9392242431641  L 21.6305643717448 26.356330871582  L 24.4502461751302 26.356330871582  Z M 33.2282348632814 27.9392509460449  L 33.2282348632814 29.5191268920898  L 31.6604166666666 29.5191268920898  L 31.6604166666666 27.9392509460449  L 33.2282348632814 27.9392509460449  Z M 31.6604166666666 22.2395744323731  L 31.6604166666666 20.656681060791  L 33.2282348632814 20.656681060791  L 33.2282348632814 22.2395744323731  L 31.6604166666666 22.2395744323731  Z M 23.1955022927153 18.0468749609186  L 23.1953409830729 17.809886932373  L 23.1955022927153 18.0468749609186  Z M 30.3295421406249 52.5021872265625  C 30.3295421406249 54.9181310141035  28.3896852053383 56.8766404199219  25.99675040625 56.8766404199219  C 23.6038156071618 56.8766404199219  21.6639586718751 54.9181310141035  21.6639586718751 52.5021872265625  C 21.6639586718751 50.0862434390215  23.6038156071618 48.1277340332031  25.99675040625 48.1277340332031  C 28.3896852053383 48.1277340332031  30.3295421406249 50.0862434390215  30.3295421406249 52.5021872265625  Z M 18.8078674316405 35.21875  L 18.8078674316405 33.635856628418  L 20.3756856282553 33.635856628418  L 20.3756856282553 35.21875  L 18.8078674316405 35.21875  Z M 26.0180643717447 29.519100189209  L 26.0180643717447 27.811637878418  L 26.0180643717447 25.089412689209  L 27.5858825683593 25.089412689209  L 27.5858825683593 26.356330871582  L 28.8407348632811 26.356330871582  L 28.8407348632811 27.9392242431641  L 27.5858825683593 27.9392242431641  L 27.5858825683593 29.519100189209  L 26.0180643717447 29.519100189209  Z M 24.4502461751302 38.065544128418  L 24.4502461751302 36.485668182373  L 27.5858825683593 36.485668182373  L 27.5859090169271 38.065544128418  L 24.4502461751302 38.065544128418  Z M 27.5858825683593 36.485668182373  L 27.5858825683593 35.21875  L 28.8407348632811 35.21875  L 28.8407348632811 36.485668182373  L 27.5858825683593 36.485668182373  Z M 27.5858825683593 32.3689384460449  L 27.5858825683593 35.21875  L 26.0180643717447 35.21875  L 26.0180643717447 33.5994071960449  L 26.0180643717447 30.7860450744629  L 28.8407348632811 30.7860450744629  L 28.8407348632811 32.3689384460449  L 27.5858825683593 32.3689384460449  Z M 34.4830871582032 33.635856628418  L 36.0509053548178 33.635856628418  L 36.0509053548178 35.21875  L 34.4830871582032 35.21875  L 34.4830871582032 33.635856628418  Z M 34.4830871582032 33.635856628418  L 31.6604431152344 33.635856628418  L 31.6604166666666 32.3689384460449  L 33.2282348632814 32.3689384460449  L 33.2282348632814 29.5191268920898  L 36.0509053548178 29.5191268920898  L 36.0509053548178 30.7860450744629  L 34.4830871582032 30.7860450744629  L 34.4830871582032 33.635856628418  Z M 30.4085795084635 29.519100189209  L 31.6604166666666 29.519100189209  L 31.6604166666666 30.786018371582  L 30.4085795084635 30.786018371582  L 30.4085795084635 29.519100189209  Z M 24.4502461751302 20.656681060791  L 26.0180643717447 20.656681060791  L 26.0180643717447 22.2395744323731  L 24.4532084156146 22.2395744323731  L 24.4502461751302 22.2395744323731  L 24.4502461751302 20.656681060791  Z M 36.0509318033854 27.9392509460449  L 33.228261311849 27.9392509460449  L 33.228261311849 26.3563575744629  L 36.0509318033854 26.3563575744629  L 36.0509318033854 27.9392509460449  Z M 31.6604431152344 38.065544128418  L 31.6604431152344 35.21875  L 33.228261311849 35.21875  L 33.228261311849 36.485668182373  L 36.0509318033854 36.485668182373  L 36.0509318033854 38.065544128418  L 31.6604431152344 38.065544128418  Z M 31.6604166666666 33.635856628418  L 31.6604431152344 35.21875  L 28.840761311849 35.21875  L 28.840761311849 32.3689384460449  L 30.4086059570311 32.3689384460449  L 30.4086059570311 33.635856628418  L 31.6604166666666 33.635856628418  Z M 24.4502461751302 23.506519317627  L 26.0180643717447 23.506519317627  L 26.0180643717447 25.089412689209  L 24.4502461751302 25.089412689209  L 24.4502461751302 23.506519317627  Z M 20.3756856282553 20.656681060791  L 20.3756856282553 22.2395744323731  L 18.8078674316405 22.2395744323731  L 18.8078674316405 20.656681060791  L 20.3756856282553 20.656681060791  L 18.8078674316405 20.656681060791  L 18.8078674316405 22.2395744323731  L 20.3756856282553 22.2395744323731  L 20.3756856282553 20.656681060791  Z M 20.3756856282553 27.9392509460449  L 21.6305379231772 27.9392509460449  L 21.6305379231772 29.5191268920898  L 20.3756856282553 29.5191268920898  L 20.3756856282553 27.9392509460449  Z M 33.2282348632814 20.656681060791  L 31.6604166666666 20.656681060791  L 31.6604166666666 22.2395744323731  L 33.2282348632814 22.2395744323731  L 33.2282348632814 20.656681060791  Z M 18.8078674316405 35.21875  L 18.8078674316405 33.635856628418  L 20.3756856282553 33.635856628418  L 20.3756856282553 35.21875  L 18.8078674316405 35.21875  Z M 18.8078674316405 22.2395744323731  L 18.8078674316405 20.656681060791  L 20.3756856282553 20.656681060791  L 20.3756856282553 22.2395744323731  L 18.8078674316405 22.2395744323731  Z M 18.8078674316405 35.21875  L 18.8078674316405 33.635856628418  L 20.3756856282553 33.635856628418  L 20.3756856282553 35.21875  L 18.8078674316405 35.21875  Z M 31.6604166666666 22.2395744323731  L 31.6604166666666 20.656681060791  L 33.2282348632814 20.656681060791  L 33.2282348632814 22.2395744323731  L 31.6604166666666 22.2395744323731  Z " fill-rule="nonzero" fill="#ffffff" stroke="none" transform="matrix(1 0 0 1 2294 529 )" />
  </g>
</svg>