<?xml version="1.0" encoding="utf-8"?>
<svg version="1.1" xmlns:xlink="http://www.w3.org/1999/xlink" width="32px" height="31px" xmlns="http://www.w3.org/2000/svg">
  <g transform="matrix(1 0 0 1 -363 -237 )">
    <path d="M 30.5466911764706 7.31548349808673  C 30.9585171568627 5.58995934311224  32.7247855392157 1.91056281887755  30.699693627451 0.570716079400511  C 29.9215379901961 0.0559131855867347  29.2835784313725 0.344746492346939  28.4174632352941 0.480668048469388  C 25.4345894607843 0.950616828762755  22.5470894607843 1.60405970982143  19.5204044117647 1.91362105389031  C 16.6221200980392 2.20993004623724  11.8773590686275 1.69478734853316  9.50042892156863 3.65511599170918  C 9.2015012254902 3.90181361607143  9.17285539215686 4.42783003826531  9.3609068627451 4.74452726403061  C 10.2688112745098 6.27364477040816  11.8446691176471 7.2804836973852  12.7916666666667 8.80824198820153  C 14.2283394607843 11.1270637356505  12.4546568627451 12.1043397241709  10.6614276960784 13.8794752471301  C 9.15263480392157 15.374612364477  7.57778799019608 16.8469826211735  6.0561887254902 18.3713428730867  C 5.84396679276512 18.3466265673224  5.63139785952913 18.4146486196998  5.47215073529412 18.5582350127551  C 3.67791053921569 20.0917699697066  1.04114583333333 22.0531180245536  0.382628676470588 24.4028619260204  C 0.288602941176471 24.7389279735332  0.380269607843137 25.1565469547194  0.642800245098039 25.3957688934949  C 2.78921568627451 27.3493014588648  6.49093137254902 32.0212651466837  9.52570465686274 30.3800123565051  C 11.0061887254902 29.5794343909439  12.2976102941176 27.5790088887117  13.4754595588235 26.3866370376276  C 15.028737745098 24.8136848294005  16.6679534313725 23.3311204559949  18.2609987745098 21.801663145727  C 18.7388786764706 21.3446269132653  20.8647365196078 18.4946916852679  21.5714460784314 18.4223134566327  C 23.1803308823529 18.2524115114796  24.4097426470588 20.6728346221301  25.4642463235294 21.5807906170281  C 25.9798713235294 22.0249143016582  26.8604779411765 22.0395258689413  27.2143382352941 21.3534618144133  C 28.0696691176471 19.6958984375  28.1064031862745 17.8262974330357  28.4700367647059 16.0005311304209  C 29.0517156862745 13.0819555165816  29.8551470588235 10.2092534279337  30.5466911764706 7.31548349808673  Z M 27.468106617647 2.7294901945153  C 29.6825980392157 2.59662687340561  29.1676470588235 2.6679856903699  29.1069852941176 4.45637356505102  C 29.0493566176471 6.15539301658163  28.2021139705882 8.17552714445153  27.7795036764706 9.82357601243622  C 27.0960477941176 12.4876385124362  26.9032781862745 16.0080068160077  25.9303308823529 18.7430883290816  C 25.2347426470588 17.8959572305485  24.4367034313725 16.9336326132015  23.5682291666667 16.3284418845663  C 23.8234579248366 15.6855329241071  24.1057598039216 15.0547436357355  24.4151348039216 14.4360740194515  C 24.5243259803922 14.2169005102041  24.1997855392157 14.0232122927296  24.0875612745098 14.2430654097577  C 23.7761642156863 14.8523337850765  23.489368872549 15.4724758848852  23.2214460784314 16.1007732780612  C 22.8955575980392 15.9172791772959  22.5609068627451 15.7898527184311  22.2181678921569 15.7466976243623  C 22.612806372549 14.9311682876276  22.8891544117647 14.0238919005102  22.9727328431373 13.152294921875  C 22.9969975490196 12.9008400430485  22.6151654411765 12.9076361208546  22.5861825980392 13.152294921875  C 22.4729473039216 14.1122409119898  22.0547181372549 14.9155373086735  21.6651348039216 15.7565519371811  C 21.1677083333333 15.858493104273  20.6136642156863 16.1982969945791  20.0451286764706 16.6811583227041  C 20.5405330882353 15.6478146922832  21.0672794117647 14.5991798867985  21.147487745098 13.4492835220026  C 21.1596200980392 13.2736049107143  20.8950674019608 13.2793815768495  20.8778799019608 13.4492835220026  C 20.7430759803921 14.808499083227  19.9450367647059 16.0049485809949  19.3734681372549 17.2098931760204  C 19.36286298665 17.2410898296502  19.3613426467105 17.2746966963914  19.3690870098039 17.3067372847577  C 18.0705882352941 18.5942542251276  16.8155637254902 20.2851183832908  16.1863664215686 20.8848722496811  C 14.8646139705882 22.1448650749362  13.5516237745098 23.4096151546556  12.2598651960784 24.6981515066964  C 12.4017463235294 23.8360690369898  12.5180147058823 22.9692293128189  12.6447303921569 22.1044284119898  C 12.678431372549 21.881517059949  12.3393995098039 21.7843331473214  12.3053615196078 22.0099629304847  C 12.1446078431372 23.0779665577168  11.9980085784314 24.1432517538265  11.7610906862745 25.1959642059949  C 11.5221507352941 25.4379045758929  11.2757965686274 25.6716896524235  11.0392156862745 25.9166882573342  C 9.41011029411764 27.6058533960459  8.71384803921568 28.3649752869898  6.81007965686274 27.4502232142857  C 7.36513480392156 25.9081931600765  7.56329656862744 24.286988799426  7.91446078431372 22.69296875  C 7.95759803921568 22.4972417091837  7.6657475490196 22.4136499521684  7.61519607843136 22.609716796875  C 7.2141544117647 24.1568439094388  6.94690563725489 25.7359125876913  6.39926470588235 27.2422632334184  C 6.35073529411764 27.2154187260842  6.31197916666666 27.2014867665816  6.26210171568627 27.1743024553571  C 5.94901960784313 26.9945461973852  5.47585784313725 26.7138681839923  4.99595588235293 26.3927535076531  C 5.16446078431372 25.9849888392857  5.25376838235293 25.5534378985969  5.38115808823529 25.1201879384566  C 5.62245710784313 24.2985421316964  6.05517769607842 23.5611676897321  6.17178308823529 22.701803651148  C 6.20245098039215 22.4754942602041  5.8610600490196 22.3742327008929  5.82567401960784 22.6056391501913  C 5.70603553921568 23.3899065290179  5.32218137254901 24.062718231824  5.06167279411764 24.8011120854592  C 4.90361519607842 25.2499930245536  4.81329656862744 25.7134855309311  4.63737745098038 26.1450364716199  C 4.02435661764705 25.7053302375638  3.46492034313725 25.2180514588648  3.29439338235293 24.8041703204719  C 3.08645833333333 24.300241151148  3.12588848039215 23.7847586495536  3.31663602941176 23.2798100685587  C 5.27634803921568 21.9753029336735  7.05340073529411 19.6860441246811  8.6750919117647 18.1997419084821  C 10.7005208333333 16.3376165896046  14.4639093137255 14.046998565051  15.6292892156863 11.5287119339923  C 15.9248468137255 10.8905602279974  16.0896446078431 10.4097377232143  15.9150735294118 9.71551837531888  C 15.5723345588235 8.3512057557398  11.3613970588235 5.55292071906888  11.6168504901961 4.52433434311224  C 11.7391850490196 4.03161870216836  25.4972732843137 2.84740214445153  27.468106617647 2.7294901945153  Z " fill-rule="nonzero" fill="#ffffff" stroke="none" transform="matrix(1 0 0 1 363 237 )" />
  </g>
</svg>