<?xml version="1.0" encoding="utf-8"?>
<svg version="1.1" xmlns:xlink="http://www.w3.org/1999/xlink" width="33px" height="31px" xmlns="http://www.w3.org/2000/svg">
  <g transform="matrix(1 0 0 1 -436 -269 )">
    <path d="M 31.5012752757353 7.31548349808673  C 31.9259708180147 5.58995934311224  33.7474350873162 1.91056281887755  31.6590590533088 0.570716079400511  C 30.8565860523897 0.0559131855867347  30.1986902573529 0.344746492346939  29.3055089613971 0.480668048469388  C 26.2294203814338 0.950616828762755  23.2516860064338 1.60405970982143  20.1304170496324 1.91362105389031  C 17.1415613511029 2.20993004623724  12.2485265395221 1.69478734853316  9.79731732536765 3.65511599170918  C 9.48904813878677 3.90181361607143  9.45950712316177 4.42783003826531  9.65343520220588 4.74452726403061  C 10.5897116268382 6.27364477040816  12.2148150275735 7.2804836973852  13.19140625 8.80824198820153  C 14.6729750689338 11.1270637356505  12.8438648897059 12.1043397241709  10.9945973115809 13.8794752471301  C 9.43865464154412 15.374612364477  7.81459386488971 16.8469826211735  6.24544462316177 18.3713428730867  C 6.02659075503903 18.3466265673224  5.80737904263942 18.4146486196998  5.64315544577206 18.5582350127551  C 3.79284524356618 20.0917699697066  1.073681640625 22.0531180245536  0.394585822610294 24.4028619260204  C 0.297621783088236 24.7389279735332  0.392153033088236 25.1565469547194  0.662887752757353 25.3957688934949  C 2.87637867647059 27.3493014588648  6.69377297794118 32.0212651466837  9.82338292738971 30.3800123565051  C 11.3501321231618 29.5794343909439  12.6819106158088 27.5790088887117  13.8965676700368 26.3866370376276  C 15.4983857996324 24.8136848294005  17.1888269761029 23.3311204559949  18.8316549862132 21.801663145727  C 19.3244686351103 21.3446269132653  21.5167595358456 18.4946916852679  22.2455537683824 18.4223134566327  C 23.9047162224265 18.2524115114796  25.1725471047794 20.6728346221301  26.2600040211397 21.5807906170281  C 26.7917423023897 22.0249143016582  27.6998678768382 22.0395258689413  28.0647863051471 21.3534618144133  C 28.9468462775735 19.6958984375  28.9847282858456 17.8262974330357  29.3597254136029 16.0005311304209  C 29.9595818014706 13.0819555165816  30.7881204044118 10.2092534279337  31.5012752757353 7.31548349808673  Z M 28.3264849494485 2.7294901945153  C 30.6101792279412 2.59662687340561  30.0791360294118 2.6679856903699  30.0165785845588 4.45637356505102  C 29.9571490119485 6.15539301658163  29.0834300321691 8.17552714445153  28.6476131663603 9.82357601243622  C 27.9427992876838 12.4876385124362  27.7440056295956 16.0080068160077  26.7406537224265 18.7430883290816  C 26.0233283547794 17.8959572305485  25.2003504136029 16.9336326132015  24.304736328125 16.3284418845663  C 24.5679409849877 15.6855329241071  24.8590647977941 15.0547436357355  25.1781077665441 14.4360740194515  C 25.2907111672794 14.2169005102041  24.9560288373162 14.0232122927296  24.8402975643382 14.2430654097577  C 24.5191693474265 14.8523337850765  24.2234116498162 15.4724758848852  23.9471162683824 16.1007732780612  C 23.6110437729779 15.9172791772959  23.2659352022059 15.7898527184311  22.9124856387868 15.7466976243623  C 23.3194565716912 14.9311682876276  23.6044404871323 14.0238919005102  23.6906307444853 13.152294921875  C 23.7156537224265 12.9008400430485  23.3218893612132 12.9076361208546  23.2920008042279 13.152294921875  C 23.1752269071691 14.1122409119898  22.7439280790441 14.9155373086735  22.3421702665441 15.7565519371811  C 21.82919921875 15.858493104273  21.2578412224265 16.1982969945791  20.6715389476103 16.6811583227041  C 21.1824247472426 15.6478146922832  21.7256318933823 14.5991798867985  21.8083467371323 13.4492835220026  C 21.8208582261029 13.2736049107143  21.5480382582721 13.2793815768495  21.5303136488971 13.4492835220026  C 21.3912971047794 14.808499083227  20.5683191636029 16.0049485809949  19.9788890165441 17.2098931760204  C 19.9679524549828 17.2410898296502  19.9663846044202 17.2746966963914  19.9743709788603 17.3067372847577  C 18.635294117647 18.5942542251276  17.3410500919118 20.2851183832908  16.6921903722426 20.8848722496811  C 15.3291331571691 22.1448650749362  13.9751120174632 23.4096151546556  12.6429859834559 24.6981515066964  C 12.7893008961397 23.8360690369898  12.9092026654412 22.9692293128189  13.0398782169118 22.1044284119898  C 13.0746323529412 21.881517059949  12.7250057444853 21.7843331473214  12.6899040670956 22.0099629304847  C 12.5241268382353 23.0779665577168  12.3729463465073 24.1432517538265  12.1286247702206 25.1959642059949  C 11.8822179457721 25.4379045758929  11.6281652113971 25.6716896524235  11.3841911764706 25.9166882573342  C 9.70417624080882 27.6058533960459  8.98615579044117 28.3649752869898  7.0228946461397 27.4502232142857  C 7.59529526654411 25.9081931600765  7.79964958639705 24.286988799426  8.16178768382352 22.69296875  C 8.20627297794117 22.4972417091837  7.90530215992646 22.4136499521684  7.85317095588234 22.609716796875  C 7.43959673713235 24.1568439094388  7.16399643841911 25.7359125876913  6.59924172794117 27.2422632334184  C 6.54919577205882 27.2154187260842  6.50922851562499 27.2014867665816  6.45779239430146 27.1743024553571  C 6.13492647058823 26.9945461973852  5.64697840073529 26.7138681839923  5.15207950367646 26.3927535076531  C 5.32585018382352 25.9849888392857  5.41794864430146 25.5534378985969  5.54931927849264 25.1201879384566  C 5.79815889246323 24.2985421316964  6.24440199908087 23.5611676897321  6.36465130974264 22.701803651148  C 6.3962775735294 22.4754942602041  6.04421817555146 22.3742327008929  6.00772633272058 22.6056391501913  C 5.88434914981617 23.3899065290179  5.48849954044117 24.062718231824  5.21985006893382 24.8011120854592  C 5.05685317095587 25.2499930245536  4.96371208639705 25.7134855309311  4.78229549632352 26.1450364716199  C 4.15011776194852 25.7053302375638  3.57319910386029 25.2180514588648  3.39734317555146 24.8041703204719  C 3.18291015624999 24.300241151148  3.2235724954044 23.7847586495536  3.42028090533087 23.2798100685587  C 5.44123391544117 21.9753029336735  7.27381950827205 19.6860441246811  8.94618853400734 18.1997419084821  C 11.034912109375 16.3376165896046  14.9159064797794 14.046998565051  16.1177045036765 11.5287119339923  C 16.4224982766544 10.8905602279974  16.5924460018382 10.4097377232143  16.4124195772059 9.71551837531888  C 16.0589700137868 8.3512057557398  11.7164407169118 5.55292071906888  11.9798770680147 4.52433434311224  C 12.1060345818015 4.03161870216836  26.2940630744485 2.84740214445153  28.3264849494485 2.7294901945153  Z " fill-rule="nonzero" fill="#ffffff" stroke="none" transform="matrix(1 0 0 1 436 269 )" />
  </g>
</svg>