<?xml version="1.0" encoding="utf-8"?>
<svg version="1.1" xmlns:xlink="http://www.w3.org/1999/xlink" width="22px" height="22px" xmlns="http://www.w3.org/2000/svg">
  <g transform="matrix(1 0 0 1 -305 -209 )">
    <path d="M 8.8865768984375 5.68016684375  C 8.8865768984375 5.2757530390625  8.5589110625 4.948087203125  8.1544972578125 4.948087203125  C 7.750083453125 4.948087203125  7.4224176171875 5.2757530390625  7.4224176171875 5.68016684375  L 7.4224176171875 6.3943786015625  C 7.4224176171875 6.79879240625  7.750083453125 7.1264582421875  8.1544972578125 7.1264582421875  C 8.5589110625 7.1264582421875  8.8865768984375 6.79879240625  8.8865768984375 6.3943786015625  L 8.8865768984375 5.68016684375  Z M 14.600175078125 5.68016684375  C 14.600175078125 5.2757530390625  14.2725092421875 4.948087203125  13.8680954375 4.948087203125  C 13.4636816328125 4.948087203125  13.136015796875 5.2757530390625  13.136015796875 5.68016684375  L 13.136015796875 6.3943786015625  C 13.136015796875 6.79879240625  13.4636816328125 7.1264582421875  13.8680954375 7.1264582421875  C 14.2725092421875 7.1264582421875  14.600175078125 6.79879240625  14.600175078125 6.3943786015625  L 14.600175078125 5.68016684375  Z M 13.0329336640625 9.2657358359375  C 13.2509938203125 8.925406578125  13.1518450390625 8.4723777265625  12.811323921875 8.254341546875  C 12.47053896875 8.0365212265625  12.0180137890625 8.135430171875  11.7999536328125 8.4759752890625  C 11.797099578125 8.48050821875  11.4863422578125 8.9318581953125  11.0037654453125 8.9318581953125  C 10.53526709375 8.9318581953125  10.2438166953125 8.507681796875  10.223790265625 8.4778939765625  C 10.0086081640625 8.139987078125  9.56083175 8.036545203125  9.2198069609375 8.2491130859375  C 8.8764077890625 8.4624004765625  8.7708313671875 8.913750453125  8.98435859375 9.2571496484375  C 9.247220375 9.68015084375  9.96831546875 10.3960175  11.0037654453125 10.3960175  C 12.0339629609375 10.3960175  12.763884078125 9.685619140625  13.0329336640625 9.2657358359375  Z M 5.86685628125 10.4035963671875  C 5.600181078125 10.098811015625  5.137390859375 10.062307765625  4.8338046875 10.3282634375  C 4.5294990078125 10.5944589453125  4.4985120078125 11.0450414609375  4.764467703125 11.349347140625  L 10.519293921875 17.9066932578125  C 10.6584715625 18.0656334921875  10.8593593671875 18.1090440546875  11.0704882109375 18.1090440546875  C 11.071687390625 18.1090440546875  11.0731024296875 18.1090440546875  11.0743016328125 18.1090440546875  C 11.286869515625 18.1090440546875  11.4882369921875 18.06234771875  11.626455265625 17.900769265625  L 17.26284978125 11.367167046875  C 17.525927421875 11.0602231484375  17.4901916328125 10.5975528359375  17.183007921875 10.3346910546875  C 16.8760640234375 10.0718292734375  16.413513640625 10.1061260234375  16.150915671875 10.4137894296875  L 11.064780078125 16.3511079453125  L 5.86685628125 10.4035963671875  Z M 3.573195359375 8.63824925  C 3.642076671875 9.0366911328125  4.0214514453125 9.3033423359375  4.4189339609375 9.235684203125  C 4.8173758203125 9.16704275  5.08477053125 8.7883874609375  5.016368890625 8.389945625  C 4.97012825 8.1218553828125  4.9467920703125 7.8573387265625  4.9467920703125 7.60330296875  C 4.9467920703125 4.568256734375  7.6672915625 2.09915478125  11.011416265625 2.09915478125  C 14.3553250859375 2.09915478125  17.0758006015625 4.5682327578125  17.0758006015625 7.60330296875  C 17.0758006015625 7.8597131328125  17.0519607734375 8.126867984375  17.005024578125 8.397332609375  C 16.9359274296875 8.7955346328125  17.20281846875 9.1746935703125  17.601260328125 9.24379071875  C 17.6436875703125 9.251177703125  17.685611140625 9.2547512890625  17.7273188515625 9.2547512890625  C 18.0766659921875 9.2547512890625  18.3859842734375 9.0035695859375  18.4477184140625 8.64755496875  C 18.5089728828125 8.2946342421875  18.5399358828125 7.9433684140625  18.5399358828125 7.60330296875  C 18.5399358828125 3.760868140625  15.1626656796875 0.635019476562501  11.0113922421875 0.635019476562501  C 6.8601188046875 0.635019476562501  3.482632765625 3.760844140625  3.482632765625 7.60327896875  C 3.482632765625 7.9402505  3.5131400703125 8.2883984609375  3.573195359375 8.63824925  Z M 21.317468796875 20.6405277265625  C 21.569058171875 20.20891634375  21.56596428125 19.6801228671875  21.308834609375 19.225439140625  C 20.4819232578125 17.7624790390625  19.6457062109375 16.304531515625  18.809729 14.846584015625  L 18.514465203125 14.3316051640625  C 18.3130977265625 13.9808190078125  17.86604084375 13.859293390625  17.5152546640625 14.0606608671875  C 17.1644685078125 14.2617885078125  17.0431827265625 14.7090852265625  17.2443103671875 15.05987140625  L 17.5395741875 15.5748502578125  C 18.361976609375 17.009197765625  19.1845948671875 18.4435692734375  20.0048387421875 19.896528171875  L 10.6308662890625 19.89700784375  C 9.8763858359375 19.89700784375  9.121929359375 19.8960485  8.3674488828125 19.8951131328125  C 6.2999066796875 19.8917793828125  4.162068125 19.889620859375  2.0575909765625 19.90820825  C 2.0261243046875 19.90916759375  2.000389765625 19.9031956484375  1.9860954453125 19.8979671875  C 1.9899088671875 19.8850879296875  1.9977755234375 19.8660448203125  2.01206984375 19.84196515625  C 2.6640677890625 18.7448050390625  3.302251109375 17.6188164453125  3.919232796875 16.53000265625  C 4.182790109375 16.06483803125  4.446611234375 15.59940959375  4.7118473984375 15.1352043359375  C 4.9124953671875 14.7841783203125  4.790490078125 14.3371214375  4.4394640859375 14.13647346875  C 4.0891576015625 13.9360653359375  3.6413811875 14.0578307890625  3.44073321875 14.40885678125  C 3.1745377109375 14.874501078125  2.91002103125 15.3413445546875  2.645504375 15.80818803125  C 2.0320962734375 16.8905741796875  1.397726375 18.0098952734375  0.7535950859375 19.093936296875  C 0.45785159375 19.5908074296875  0.4404633828125 20.164162671875  0.7066589140625 20.6274325859375  C 0.975228828125 21.094755734375  1.4782877421875 21.37236753125  2.0545210625 21.37236753125  C 2.0597735 21.37236753125  2.065241796875 21.37236753125  2.070494234375 21.37236753125  C 4.1680640703125 21.353780140625  6.3023290390625 21.3559146875  8.365578171875 21.3592484375  C 9.12077815625 21.36020778125  9.8757143046875 21.361167125  10.630914265625 21.361167125  L 20.004407046875 21.360687453125  C 20.5634679921875 21.360687453125  21.05439115625 21.09139803125  21.317468796875 20.6405277265625  Z " fill-rule="nonzero" fill="#000000" stroke="none" transform="matrix(1 0 0 1 305 209 )" />
  </g>
</svg>