<?xml version="1.0" encoding="utf-8"?>
<svg version="1.1" xmlns:xlink="http://www.w3.org/1999/xlink" width="13px" height="12px" xmlns="http://www.w3.org/2000/svg">
  <g transform="matrix(1 0 0 1 -309 -291 )">
    <path d="M 8.8456 8.2002  L 9.7684 8.2002  C 10.045 8.2002  10.2298 8.3898  10.2298 8.6748  C 10.2298 8.9598  10.045 9.15  9.7684 9.15  L 8.8456 9.15  C 8.5684 9.15  8.3836 8.9598  8.3836 8.6748  C 8.3836 8.3898  8.5684 8.2002  8.8456 8.2002  Z M 4.2304 6.3  L 6.076 6.3  C 6.3532 6.3  6.538 6.4902  6.538 6.7752  C 6.538 7.0602  6.3532 7.2498  6.076 7.2498  L 4.2304 7.2498  C 3.9532 7.2498  3.7684 7.0602  3.7684 6.7752  C 3.7684 6.4902  3.9532 6.3  4.2304 6.3  Z M 12.9988 9.6252  C 12.9988 10.9548  11.9836 12  10.6912 12  L 3.307 12  C 2.0146 12  0.9994 10.9548  0.9994 9.6252  L 0.9994 6.7752  C 0.9994 6.4902  1.1842 6.3  1.4608 6.3  C 1.738 6.3  1.9228 6.4902  1.9228 6.7752  L 1.9228 9.6252  C 1.9228 10.3848  2.5684 11.0502  3.307 11.0502  L 10.6912 11.0502  C 11.4298 11.0502  12.076 10.3848  12.076 9.6252  L 12.076 2.9748  C 12.076 2.2152  11.4298 1.5498  10.6912 1.5498  L 3.307 1.5498  C 2.5684 1.5498  1.9228 2.2152  1.9228 2.9748  C 1.9228 3.2598  2.107 3.45  2.3842 3.45  L 7.9222 3.45  C 8.1994 3.45  8.3836 3.6402  8.3836 3.9252  C 8.3836 4.2102  8.1994 4.3998  7.9222 4.3998  L 2.3842 4.3998  C 1.6456 4.3998  0.999400000000001 3.735  0.999400000000001 2.9748  C 0.999400000000001 1.6452  2.0146 0.6  3.307 0.6  L 10.6912 0.6  C 11.9836 0.6  12.9988 1.6452  12.9988 2.9748  L 12.9988 9.6252  Z " fill-rule="nonzero" fill="#000000" stroke="none" transform="matrix(1 0 0 1 309 291 )" />
  </g>
</svg>