<?xml version="1.0" encoding="utf-8"?>
<svg version="1.1" xmlns:xlink="http://www.w3.org/1999/xlink" width="24px" height="24px" xmlns="http://www.w3.org/2000/svg">
  <g transform="matrix(1 0 0 1 -304 -285 )">
    <path d="M 24 12  C 24 18.6276  18.6276 24  12 24  C 5.3724 24  0 18.6276  0 12  C 0 5.3724  5.3724 0  12 0  C 18.6276 0  24 5.3724  24 12  Z M 23.4 12  C 23.4 5.7042  18.2958 0.6  12 0.600000000000001  C 5.7042 0.6  0.6 5.7042  0.6 12  C 0.6 18.2958  5.7042 23.4  12 23.4  C 18.2958 23.4  23.4 18.2958  23.4 12  Z " fill-rule="nonzero" fill="#000000" stroke="none" transform="matrix(1 0 0 1 304 285 )" />
  </g>
</svg>