<?xml version="1.0" encoding="utf-8"?>
<svg version="1.1" xmlns:xlink="http://www.w3.org/1999/xlink" width="12px" height="12px" viewBox="312 22  12 12" xmlns="http://www.w3.org/2000/svg">
  <path d="M 318 22  C 321.36 22  324 24.64  324 28  C 324 31.36  321.36 34  318 34  C 314.64 34  312 31.36  312 28  C 312 24.64  314.64 22  318 22  Z " fill-rule="nonzero" fill="#ffffff" stroke="none" />
  <path d="M 318 22.5  C 321.08 22.5  323.5 24.92  323.5 28  C 323.5 31.08  321.08 33.5  318 33.5  C 314.92 33.5  312.5 31.08  312.5 28  C 312.5 24.92  314.92 22.5  318 22.5  Z " stroke-width="1" stroke="#797979" fill="none" />
  <path d="M 318 31  C 316.32 31  315 29.68  315 28  C 315 26.32  316.32 25  318 25  C 319.68 25  321 26.32  321 28  C 321 29.68  319.68 31  318 31  " fill-rule="nonzero" fill="#797979" stroke="none" />
</svg>