<?xml version="1.0" encoding="utf-8"?>
<svg version="1.1" xmlns:xlink="http://www.w3.org/1999/xlink" width="15px" height="14px" xmlns="http://www.w3.org/2000/svg">
  <g transform="matrix(1 0 0 1 -311 -133 )">
    <path d="M 12.725 13.665  C 12.59 13.845  12.38 13.935  12.17 13.935  C 11.99 13.935  11.825 13.875  11.675 13.755  C 11.36 13.485  11.33 13.005  11.6 12.69  C 13.895 10.065  13.76 6.06  11.285 3.585  C 8.81 1.11  4.82 0.975000000000001  2.18 3.27  C 1.865 3.54  1.4 3.51  1.115 3.195  C 0.844999999999997 2.88  0.874999999999996 2.415  1.19 2.13  C 4.415 -0.674999999999999  9.305 -0.509999999999999  12.335 2.52  C 15.365 5.55  15.53 10.44  12.725 13.665  Z " fill-rule="nonzero" fill="#515151" stroke="none" transform="matrix(1 0 0 1 311 133 )" />
  </g>
</svg>