<?xml version="1.0" encoding="utf-8"?>
<svg version="1.1" xmlns:xlink="http://www.w3.org/1999/xlink" width="16px" height="16px" xmlns="http://www.w3.org/2000/svg">
  <g transform="matrix(1 0 0 1 -339 -13 )">
    <path d="M 14.976 14.048  L 9.112 8.184  L 14.976 2.32  C 15.272 2.024  15.272 1.536  14.976 1.24  L 14.944 1.208  C 14.648 0.912  14.16 0.912  13.864 1.208  L 8 7.08  L 2.136 1.208  C 1.84 0.912  1.352 0.912  1.056 1.208  L 1.024 1.24  C 0.72 1.536  0.72 2.024  1.024 2.32  L 6.888 8.184  L 1.024 14.048  C 0.728 14.344  0.728 14.832  1.024 15.128  L 1.056 15.16  C 1.352 15.456  1.84 15.456  2.136 15.16  L 8 9.296  L 13.864 15.16  C 14.16 15.456  14.648 15.456  14.944 15.16  L 14.976 15.128  C 15.272 14.832  15.272 14.344  14.976 14.048  Z " fill-rule="nonzero" fill="#118fea" stroke="none" transform="matrix(1 0 0 1 339 13 )" />
  </g>
</svg>