<?xml version="1.0" encoding="utf-8"?>
<svg version="1.1" xmlns:xlink="http://www.w3.org/1999/xlink" width="15px" height="15px" xmlns="http://www.w3.org/2000/svg">
  <g transform="matrix(1 0 0 1 -307 -137 )">
    <path d="M 10.485 14.165  C 9.75 14.39  9.015 14.48  8.295 14.48  C 6.225 14.48  4.215 13.67  2.715 12.17  C 1.23 10.685  0.405 8.705  0.405 6.59  C 0.405 4.49  1.23 2.495  2.715 1.01  C 2.73 0.995  2.745 0.980000000000001  2.775 0.965  L 2.79 0.949999999999999  C 3.09 0.664999999999999  3.555 0.664999999999999  3.84 0.949999999999999  L 13.935 11.045  C 14.22 11.33  14.235 11.81  13.935 12.095  L 13.92 12.11  L 13.875 12.155  C 13.59 12.455  13.11 12.455  12.81 12.155  C 12.72 12.065  12.66 11.96  12.615 11.84  L 3.33 2.57  C 2.4 3.71  1.905 5.105  1.905 6.59  C 1.905 8.3  2.565 9.905  3.78 11.105  C 5.415 12.74  7.83 13.37  10.065 12.725  C 10.47 12.605  10.875 12.845  10.995 13.235  C 11.115 13.64  10.875 14.045  10.485 14.165  Z M 14.01 6.875  C 13.875 7.07  13.635 7.175  13.41 7.175  C 13.26 7.175  13.095 7.13  12.96 7.025  C 12.63 6.785  12.555 6.305  12.81 5.975  C 13.635 4.88  13.515 3.305  12.54 2.345  C 11.565 1.37  10.005 1.265  8.91 2.075  C 8.58 2.315  8.115 2.255  7.86 1.925  C 7.62 1.595  7.68 1.13  8.01 0.875000000000002  C 9.705 -0.384999999999998  12.105 -0.204999999999998  13.605 1.28  C 15.09 2.765  15.27 5.18  14.01 6.875  Z " fill-rule="nonzero" fill="#515151" stroke="none" transform="matrix(1 0 0 1 307 137 )" />
  </g>
</svg>