<?xml version="1.0" encoding="utf-8"?>
<svg version="1.1" xmlns:xlink="http://www.w3.org/1999/xlink" width="20px" height="14px" xmlns="http://www.w3.org/2000/svg">
  <g transform="matrix(1 0 0 1 -90 -113 )">
    <path d="M 0.56875 1.49296875  C 0.7609375 1.096875  1.15234375 0.853124999999999  1.590625 1  L 18.5546875 1  C 18.9953125 0.853124999999999  19.38671875 1.09921875  19.57890625 1.4953125  C 19.77109375 1.89140625  19.71953125 2.35078125  19.44765625 2.69765625  L 10.965625 13.41796875  C 10.74765625 13.6921875  10.42421875 13.84921875  10.07265625 13.84921875  C 9.7234375 13.84921875  9.39765625 13.6921875  9.1796875 13.41796875  L 0.7 2.6953125  C 0.428125 2.35078125  0.3765625 1.8890625  0.56875 1.49296875  Z M 10.07265625 12.984375  C 10.121875 12.984375  10.215625 12.9703125  10.2859375 12.88125  L 18.765625 2.15859375  C 18.86171875 2.0390625  18.81953125 1.91953125  18.79609375 1.87265625  C 18.775 1.82578125  18.7046875 1.7203125  18.55234375 2  L 1.590625 2  C 1.43828125 1.7203125  1.36796875 1.828125  1.346875 1.87265625  C 1.32578125 1.91953125  1.28359375 2.0390625  1.37734375 2.15859375  L 9.859375 12.88125  C 9.9296875 12.9703125  10.0234375 12.984375  10.07265625 12.984375  Z " fill-rule="nonzero" fill="#595857" stroke="none" transform="matrix(1 0 0 1 90 113 )" />
  </g>
</svg>