<?xml version="1.0" encoding="utf-8"?>
<svg version="1.1" xmlns:xlink="http://www.w3.org/1999/xlink" width="10px" height="108px" preserveAspectRatio="xMidYMin meet" viewBox="1570 1068  8 108" xmlns="http://www.w3.org/2000/svg">
  <defs>
    <mask fill="white" id="clip111">
      <path d="M 1469 780  L 1589 780  L 1589 826  L 1469 826  Z M 1469 385  L 1589 385  L 1589 1186  L 1469 1186  Z " fill-rule="evenodd" />
    </mask>
  </defs>
  <path d="M 1529 385  L 1529 593  A 3 3 0 0 1 1532 596 A 3 3 0 0 1 1529 599 L 1529 1068  A 5 5 0 0 0 1534 1073 L 1569 1073  A 5 5 0 0 1 1574 1078 L 1574 1174  " stroke-width="2" stroke="#0099cc" fill="none" mask="url(#clip111)" />
  <path d="M 1578.29289321881 1168.89289321881  L 1574 1173.18578643763  L 1569.70710678119 1168.89289321881  L 1568.29289321881 1170.30710678119  L 1573.29289321881 1175.30710678119  L 1574 1176.01421356237  L 1574.70710678119 1175.30710678119  L 1579.70710678119 1170.30710678119  L 1578.29289321881 1168.89289321881  Z " fill-rule="nonzero" fill="#0099cc" stroke="none" mask="url(#clip111)" />
</svg>