<?xml version="1.0" encoding="utf-8"?>
<svg version="1.1" xmlns:xlink="http://www.w3.org/1999/xlink" width="24px" height="24px" xmlns="http://www.w3.org/2000/svg">
  <g transform="matrix(1 0 0 1 -237 -28 )">
    <path d="M 5.9765625 1.609375  C 7.81510416666667 0.536458333333331  9.82291666666667 0  12 0  C 14.1770833333333 0  16.1848958333333 0.536458333333331  18.0234375 1.609375  C 19.8619791666667 2.68229166666666  21.3177083333333 4.13802083333333  22.390625 5.9765625  C 23.4635416666667 7.81510416666666  24 9.82291666666666  24 12  C 24 14.1770833333333  23.4635416666667 16.1848958333333  22.390625 18.0234375  C 21.3177083333333 19.8619791666667  19.8619791666667 21.3177083333333  18.0234375 22.390625  C 16.1848958333333 23.4635416666667  14.1770833333333 24  12 24  C 9.82291666666667 24  7.81510416666667 23.4635416666667  5.9765625 22.390625  C 4.13802083333333 21.3177083333333  2.68229166666667 19.8619791666667  1.609375 18.0234375  C 0.536458333333333 16.1848958333333  0 14.1770833333333  0 12  C 0 9.82291666666666  0.536458333333333 7.81510416666666  1.609375 5.9765625  C 2.68229166666667 4.13802083333333  4.13802083333333 2.68229166666666  5.9765625 1.609375  Z M 9.5 17.859375  L 18 12.859375  C 18.3333333333333 12.671875  18.5 12.3854166666667  18.5 12  C 18.5 11.6145833333333  18.3333333333333 11.328125  18 11.140625  L 9.5 6.140625  C 9.17708333333333 5.94270833333333  8.84375 5.9375  8.5 6.125  C 8.16666666666667 6.32291666666667  8 6.61458333333333  8 7  L 8 17  C 8 17.3854166666667  8.16666666666667 17.6770833333333  8.5 17.875  C 8.66666666666667 17.9583333333333  8.83333333333333 18  9 18  C 9.17708333333333 18  9.34375 17.953125  9.5 17.859375  Z " fill-rule="nonzero" fill="#000000" stroke="none" transform="matrix(1 0 0 1 237 28 )" />
  </g>
</svg>