<?xml version="1.0" encoding="utf-8"?>
<svg version="1.1" xmlns:xlink="http://www.w3.org/1999/xlink" width="128px" height="128px" xmlns="http://www.w3.org/2000/svg">
  <g transform="matrix(1 0 0 1 -104 -111 )">
    <path d="M 0 98.9084445  L 0 29.0915555  C 0 13.0247330484939  13.0247330484939 0  29.0915555 0  L 98.9084445 0  C 114.975266951506 0  128 13.0247330484939  128 29.0915555  L 128 98.9084445  C 128 114.975266951506  114.975266951506 128  98.9084445 128  L 29.0915555 128  C 13.0247330484939 128  0 114.975266951506  0 98.9084445  Z M 98.9084445 12  L 29.0915555 12  C 19.4498910827397 11.63377775  11.63377775 19.4498910827397  12 29.0915555  L 12 98.9084445  C 11.63377775 108.55010891726  19.4498910827397 116.36622225  29.0915555 116  L 98.9084445 116  C 108.55010891726 116.36622225  116.36622225 108.55010891726  116 98.9084445  L 116 29.0915555  C 116.36622225 19.4498910827397  108.55010891726 11.63377775  98.9084445 12  Z " fill-rule="nonzero" fill="#d7d7d7" stroke="none" fill-opacity="0.501960784313725" transform="matrix(1 0 0 1 104 111 )" />
  </g>
</svg>