<?xml version="1.0" encoding="utf-8"?>
<svg version="1.1" xmlns:xlink="http://www.w3.org/1999/xlink" width="83px" height="83px" xmlns="http://www.w3.org/2000/svg">
  <g transform="matrix(1 0 0 1 -128 -135 )">
    <path d="M 44.696888875 6.730666625  C 44.696888875 3.50577775  47.31377775 0.888888874999999  50.538666625 1  L 65.141333375 1  C 74.8203076848976 0.888888944035589  82.666666625 8.73524794010241  82 18.41422225  L 82 33.016888875  C 82.666666625 33.016888875  82.666666625 33.016888875  82.666666625 33.016888875  C 82.666666625 36.2432136382258  80.0512136382259 38.858666625  76.824888875 38.858666625  C 73.5985641117742 38.858666625  70.983111125 36.2432136382258  71 33.016888875  L 71 18.41422225  C 70.983111125 15.18577775  68.36977775 12.5724445  65.141333375 13  L 50.538666625 13  L 50.538666625 12.5724445  C 47.3123418617742 12.5724445  44.696888875 9.95699151322585  44.696888875 6.73066675000001  Z M 6.730666625 44.696888875  L 6.730666625 44.693333375  C 9.9555555 44.693333375  12.572444375 47.31022225  13 50.535111125  L 13 65.13777775  C 12.5724445 68.36622225  15.185777875 70.9795555  18.41422225 71  L 33.016888875 71  C 33.016888875 70.9795555  33.016888875 70.9795555  33.016888875 70.9795555  C 36.2432136727436 70.9795555  38.8586666875 73.5950085147564  38.8586666875 76.8213333125  C 38.8586666875 80.0476581102437  36.2432136727436 82.663111125  33.016888875 82.663111125  C 33.016888875 82.663111125  33.016888875 82.663111125  33.016888875 82  L 18.41422225 82  C 8.73663627920749 82.6631113241757  0.890852310780716 74.8189191466168  1 65.141333375  L 1 50.538666625  C 0.888888874999999 47.31377775  3.50577775 44.696888875  6.730666625 44.696888875  Z " fill-rule="nonzero" fill="#d7d7d7" stroke="none" fill-opacity="0.501960784313725" transform="matrix(1 0 0 1 128 135 )" />
  </g>
</svg>