<?xml version="1.0" encoding="utf-8"?>
<svg version="1.1" xmlns:xlink="http://www.w3.org/1999/xlink" width="10px" height="1150px" preserveAspectRatio="xMidYMin meet" viewBox="1540 287  8 1150" xmlns="http://www.w3.org/2000/svg">
  <defs>
    <mask fill="white" id="clip242">
      <path d="M 1507.5 726  L 1580.5 726  L 1580.5 754  L 1507.5 754  Z M 1189 289  L 1684 289  L 1684 1442  L 1189 1442  Z " fill-rule="evenodd" />
    </mask>
  </defs>
  <path d="M 1192 314  L 1192 297  A 5 5 0 0 1 1197 292 L 1539 292  A 5 5 0 0 1 1544 297 L 1544 1427  A 5 5 0 0 0 1549 1432 L 1672 1432  " stroke-width="2" stroke="#0099cc" fill="none" mask="url(#clip242)" />
  <path d="M 1666.89289321881 1427.70710678119  L 1671.18578643763 1432  L 1666.89289321881 1436.29289321881  L 1668.30710678119 1437.70710678119  L 1673.30710678119 1432.70710678119  L 1674.01421356237 1432  L 1673.30710678119 1431.29289321881  L 1668.30710678119 1426.29289321881  L 1666.89289321881 1427.70710678119  Z " fill-rule="nonzero" fill="#0099cc" stroke="none" mask="url(#clip242)" />
</svg>