<?xml version="1.0" encoding="utf-8"?>
<svg version="1.1" xmlns:xlink="http://www.w3.org/1999/xlink" width="10px" height="15px" preserveAspectRatio="xMidYMin meet" viewBox="990 1328  8 15" xmlns="http://www.w3.org/2000/svg">
  <defs>
    <mask fill="white" id="clip498">
      <path d="M 832.5 606  L 931.5 606  L 931.5 652  L 832.5 652  Z M 832.5 225  L 1308.67375886525 225  L 1308.67375886525 1353  L 832.5 1353  Z " fill-rule="evenodd" />
    </mask>
  </defs>
  <path d="M 1304 228  A 1.67375886524837 1.67375886524837 0 0 1 1305.67375886525 229.673758865248 L 1305.67375886525 246  A 5 5 0 0 1 1300.67375886525 251 L 887 251  A 5 5 0 0 0 882 256 L 882 1328  A 5 5 0 0 0 887 1333 L 989 1333  A 5 5 0 0 1 994 1338 L 994 1341  " stroke-width="2" stroke="#0099cc" fill="none" mask="url(#clip498)" />
  <path d="M 998.292893218813 1335.89289321881  L 994 1340.18578643763  L 989.707106781187 1335.89289321881  L 988.292893218813 1337.30710678119  L 993.292893218813 1342.30710678119  L 994 1343.01421356237  L 994.707106781187 1342.30710678119  L 999.707106781187 1337.30710678119  L 998.292893218813 1335.89289321881  Z " fill-rule="nonzero" fill="#0099cc" stroke="none" mask="url(#clip498)" />
</svg>