<?xml version="1.0" encoding="utf-8"?>
<svg version="1.1" xmlns:xlink="http://www.w3.org/1999/xlink" width="20px" height="20px" preserveAspectRatio="xMinYMid meet" viewBox="1620 2291  20 18" xmlns="http://www.w3.org/2000/svg">
  <defs>
    <mask fill="white" id="clip86">
      <path d="M 1356 1518  L 1468 1518  L 1468 1564  L 1356 1564  Z M 1356 598  L 1642 598  L 1642 2310  L 1356 2310  Z " fill-rule="evenodd" />
    </mask>
  </defs>
  <path d="M 1376 603  A 2 2 0 0 1 1378 601 L 1407 601  A 5 5 0 0 1 1412 606 L 1412 2295  A 5 5 0 0 0 1417 2300 L 1630 2300  " stroke-width="2" stroke="#0099cc" fill="none" mask="url(#clip86)" />
  <path d="M 1624.89289321881 2295.70710678119  L 1629.18578643763 2300  L 1624.89289321881 2304.29289321881  L 1626.30710678119 2305.70710678119  L 1631.30710678119 2300.70710678119  L 1632.01421356237 2300  L 1631.30710678119 2299.29289321881  L 1626.30710678119 2294.29289321881  L 1624.89289321881 2295.70710678119  Z " fill-rule="nonzero" fill="#0099cc" stroke="none" mask="url(#clip86)" />
</svg>