<?xml version="1.0" encoding="utf-8"?>
<svg version="1.1" xmlns:xlink="http://www.w3.org/1999/xlink" width="24px" height="24px" xmlns="http://www.w3.org/2000/svg">
  <g transform="matrix(1 0 0 1 -14 -90 )">
    <path d="M 1.7145 12  C 1.71615592976865 6.3201612555864  6.3201612555864 1.71615592976865  12 1.7145  C 17.6798387444136 1.71615592976865  22.2838440702314 6.3201612555864  22.2855 12  C 22.2838440702314 17.6798387444136  17.6798387444136 22.2838440702314  12 22.2855  C 6.3201612555864 22.2838440702314  1.71615592976865 17.6798387444136  1.7145 12  Z M 24 12  C 24 5.379  18.621 0  12 0  C 5.379 0  0 5.379  0 12  C 0 18.621  5.379 24  12 24  C 18.621 24  24 18.621  24 12  Z M 18.0645 15.429  L 19.2855 14.2065  L 13.221 8.145  L 12 6.921  L 10.779 8.1435  L 4.7145 14.205  L 5.9355 15.4275  L 12 9.3645  L 18.0645 15.429  Z " fill-rule="nonzero" fill="#ffffff" stroke="none" transform="matrix(1 0 0 1 14 90 )" />
  </g>
</svg>