<svg class="icon" viewBox="0 0 1024 1024" version="1.1" xmlns="http://www.w3.org/2000/svg" p-id="6793" height="128" width="128"><path d="M810.084 175.266a36.677 36.677 0 0 0 18.412 31.793 36.94 36.94 0 0 0 36.811 0 36.677 36.677 0 0 0 18.41-31.793c0-13.114-7.016-25.228-18.41-31.777a36.868 36.868 0 0 0-36.811 0c-11.396 6.549-18.412 18.663-18.412 31.777z m0 0" fill="#999899" p-id="6794"></path><path d="M966.832 276.926c-6.166-12.014-18.627-20.362-33.043-20.362-20.344 0-36.807 16.463-36.807 36.708a36.55 36.55 0 0 0 5.266 18.863l-0.117 0.117c30.744 59.903 48.139 127.838 48.139 199.739 0 241.931-196.207 438.153-438.152 438.153-241.932 0-438.237-196.223-438.237-438.153s196.19-438.02 438.12-438.02c71.467 0 138.936 17.146 198.489 47.439l0.234-0.45c5.248 2.983 11.432 4.683 17.963 4.683 20.346 0 36.809-16.446 36.809-36.692 0-14.98-9.033-27.894-22.063-33.609C673.912 20 595.363 0.121 512 0.121 229.246 0.121 0.113 229.354 0.113 511.991c0 282.655 229.132 511.888 511.887 511.888s511.887-229.134 511.887-511.888c0-84.731-20.563-164.648-57.055-235.065z m0 0" fill="#999899" p-id="6795"></path><path d="M443.765 307.254c18.846 0 34.126 15.278 34.126 34.125v341.258c0 18.846-15.28 34.125-34.126 34.125s-34.125-15.279-34.125-34.125V341.379c-0.001-18.847 15.279-34.125 34.125-34.125zM614.395 307.254c18.846 0 34.125 15.278 34.125 34.125v341.258c0 18.846-15.279 34.125-34.125 34.125s-34.127-15.279-34.127-34.125V341.379c0-18.847 15.281-34.125 34.127-34.125z" fill="#999899" p-id="6796"></path></svg>