<?xml version="1.0" encoding="utf-8"?>
<svg version="1.1" xmlns:xlink="http://www.w3.org/1999/xlink" width="128px" height="128px" xmlns="http://www.w3.org/2000/svg">
  <g transform="matrix(1 0 0 1 -104 -111 )">
    <path d="M 98.9084445 128  L 29.0915555 128  C 13.0247330484939 128  0 114.975266951506  0 98.9084445  L 0 29.0915555  C 0 13.0247330484939  13.0247330484939 0  29.0915555 0  L 98.9084445 0  C 114.975266951506 0  128 13.0247330484939  128 29.0915555  L 128 98.9084445  C 128 114.975266951506  114.975266951506 128  98.9084445 128  Z M 116 98.9084445  L 116 29.0915555  C 116.36622225 19.4498910827397  108.55010891726 11.63377775  98.9084445 12  L 29.0915555 12  C 19.4498910827397 11.63377775  11.63377775 19.4498910827397  12 29.0915555  L 12 98.9084445  C 11.63377775 108.55010891726  19.4498910827397 116.36622225  29.0915555 116  L 98.9084445 116  C 108.55010891726 116.36622225  116.36622225 108.55010891726  116 98.9084445  Z M 25 89.141333375  L 25 74.538666625  C 24.888888875 71.31377775  27.50577775 68.696888875  30.730666625 68.696888875  C 33.9555555 68.696888875  36.572444375 71.31022225  37 74.535111125  L 37 89.13777775  C 36.5724445 92.36622225  39.185777875 94.9795555  42.41422225 95  L 57.016888875 95  C 60.2432136727437 95  62.8586666875 97.5950085147564  62.8586666875 100.8213333125  C 62.8586666875 104.047658110244  60.2432136727437 106.663111125  57.016888875 106.663111125  C 57.016888875 106.663111125  57.016888875 106.663111125  57.016888875 106  L 42.41422225 106  C 32.7366362792075 106.663111324176  24.8908523107807 98.8189191466168  25 89.141333375  Z M 74.538666625 37  L 74.538666625 36.5724445  C 71.3123418617741 36.5724445  68.696888875 33.9569915132259  68.696888875 30.73066675  C 68.696888875 27.505777875  71.31377775 24.888888875  74.538666625 25  L 89.141333375 25  C 98.8203076848976 24.8888889440356  106.666666625 32.7352479401024  106 42.41422225  L 106 57.016888875  C 106.666666625 57.016888875  106.666666625 57.016888875  106.666666625 57.016888875  C 106.666666625 60.2432136382259  104.051213638226 62.858666625  100.824888875 62.858666625  C 97.5985641117742 62.858666625  94.983111125 60.2432136382259  95 57.016888875  L 95 42.41422225  C 94.983111125 39.18577775  92.36977775 36.5724445  89.141333375 37  L 74.538666625 37  Z " fill-rule="nonzero" fill="#d7d7d7" stroke="none" fill-opacity="0.501960784313725" transform="matrix(1 0 0 1 104 111 )" />
  </g>
</svg>