<?xml version="1.0" encoding="utf-8"?>
<svg version="1.1" xmlns:xlink="http://www.w3.org/1999/xlink" width="182px" height="10px" preserveAspectRatio="xMinYMid meet" viewBox="1421 2290  182 8" xmlns="http://www.w3.org/2000/svg">
  <defs>
    <mask fill="white" id="clip32">
      <path d="M 1370 1470  L 1482 1470  L 1482 1516  L 1370 1516  Z M 1344 592  L 1613 592  L 1613 2304  L 1344 2304  Z " fill-rule="evenodd" />
    </mask>
  </defs>
  <path d="M 1347 597  A 2 2 0 0 1 1349 595 L 1421 595  A 5 5 0 0 1 1426 600 L 1426 2289  A 5 5 0 0 0 1431 2294 L 1601 2294  " stroke-width="2" stroke="#0099cc" fill="none" mask="url(#clip32)" />
  <path d="M 1595.89289321881 2289.70710678119  L 1600.18578643763 2294  L 1595.89289321881 2298.29289321881  L 1597.30710678119 2299.70710678119  L 1602.30710678119 2294.70710678119  L 1603.01421356237 2294  L 1602.30710678119 2293.29289321881  L 1597.30710678119 2288.29289321881  L 1595.89289321881 2289.70710678119  Z " fill-rule="nonzero" fill="#0099cc" stroke="none" mask="url(#clip32)" />
</svg>