<?xml version="1.0" encoding="utf-8"?>
<svg version="1.1" xmlns:xlink="http://www.w3.org/1999/xlink" width="25px" height="24px" xmlns="http://www.w3.org/2000/svg">
  <g transform="matrix(1 0 0 1 -176 -693 )">
    <path d="M 8.13636363636364 3.20109714285714  L 8.13636363636364 2.10176  C 8.13636363636364 1.79894857142857  8.37963636363636 1.55428571428571  8.67963636363636 1.55428571428571  L 16.3203636363636 1.55428571428571  C 16.6225454545455 1.55428571428571  16.8636363636364 1.79565714285714  16.8636363636364 2.10176  L 16.8636363636364 3.20109714285714  C 16.8636363636364 3.50406477705004  17.1078446819105 3.74966857142857  17.4090909090909 3.74966857142857  C 17.7103371362713 3.74966857142857  17.9545454545455 3.50406477705004  17.9545454545455 3.20109714285714  L 17.9545454545455 2.10176  C 17.9545454545455 1.19003428571429  17.2236363636364 0.457142857142857  16.3203636363636 0.457142857142857  L 8.67963636363636 0.457142857142857  C 7.77636363636364 0.457142857142858  7.04545454545454 1.19332571428571  7.04545454545454 2.10176  L 7.04545454545454 3.20109714285714  C 7.04545454545454 3.50406477705004  7.28966286372866 3.74966857142857  7.59090909090909 3.74966857142857  C 7.89215531808952 3.74966857142857  8.13636363636364 3.50406477705004  8.13636363636364 3.20109714285714  Z M 1.59090909090909 5.39428571428572  L 23.4090909090909 5.39428571428572  C 23.7103371362713 5.39428571428572  23.9545454545455 5.14868191990718  23.9545454545455 4.84571428571429  C 23.9545454545455 4.54274665152139  23.7103371362713 4.29714285714286  23.4090909090909 4.29714285714286  L 1.59090909090909 4.29714285714286  C 1.28966286372866 4.29714285714286  1.04545454545454 4.54274665152139  1.04545454545454 4.84571428571429  C 1.04545454545454 5.14868191990718  1.28966286372866 5.39428571428572  1.59090909090909 5.39428571428572  Z M 19.9989090909091 7.49860571428571  L 19.9978181818182 7.49860571428571  L 18.1029090909091 21.7965714285714  C 18.0430376207958 22.1358911070385  17.7558815177615 22.3872176058967  17.4134545454545 22.4  L 15.2272727272727 22.4  C 14.9260265000923 22.4  14.6818181818182 22.6456037943785  14.6818181818182 22.9485714285714  C 14.6818181818182 23.2515390627643  14.9260265000923 23.4971428571429  15.2272727272727 23.4971428571429  L 17.4134545454545 23.4971428571429  C 18.2872727272727 23.4971428571429  19.0683636363636 22.8103314285714  19.184 21.9413942857143  L 21.0789090909091 7.64342857142857  C 21.0801535066868 7.6283428658619  21.0807765144266 7.61321182174626  21.0807765144266 7.59807429118187  C 21.0807765144266 7.29510665698898  20.8365681961525 7.04950286261044  20.5353219689721 7.04950286261044  C 20.27222097063 7.04950286261044  20.0466153339287 7.23838746799585  19.9989090909091 7.49860571428571  Z M 13.0454545454545 22.4  L 7.58654545454546 22.4  C 7.24539647596801 22.3839902522697  6.9599641855684 22.1341724791171  6.89709090909091 21.7965714285714  L 6.27527272727273 17.10848  C 6.22756648425312 16.8482617537101  6.0019608475518 16.6593771483247  5.73885984920972 16.6593771483247  C 5.43761362202928 16.6593771483247  5.19340530375517 16.9049809427032  5.19340530375517 17.2079485768961  C 5.19340530375517 17.2230861074605  5.19402831149497 17.2382171515762  5.19527272727273 17.2533028571429  L 5.81709090909091 21.9413942857143  C 5.93054545454546 22.8037485714286  6.716 23.4971428571429  7.58654545454546 23.4971428571429  L 13.0454545454545 23.4971428571429  C 13.346700772635 23.4971428571429  13.5909090909091 23.2515390627643  13.5909090909091 22.9485714285714  C 13.5909090909091 22.6456037943785  13.346700772635 22.4  13.0454545454545 22.4  Z M 6.06738697247829 15.56864  C 6.06738697247829 15.5442388206549  6.06576954719095 15.5198647812315  6.06254545454546 15.49568  L 5.00218181818182 7.49860571428571  C 4.96077169364354 7.23149390404373  4.73204163537555 7.03454380823633  4.4632386591268 7.03454380823633  C 4.16199243194636 7.03454380823633  3.91778411367225 7.28014760261486  3.91778411367225 7.58311523680776  C 3.91778411367225 7.60326550332686  3.91888805195771 7.62340046505932  3.92109090909091 7.64342857142857  L 4.98036363636364 15.6416  C 5.01670356552425 15.9141955279059  5.24798261190846 16.1176920408924  5.52145454545455 16.1176920408924  C 5.82296469933787 16.1176920408924  6.06738697247829 15.8718730690484  6.06738697247829 15.56864  Z M 8.68181818181818 9.23428571428571  L 8.68181818181818 12.5257142857143  C 8.68181818181818 12.8286819199072  8.9260265000923 13.0742857142857  9.22727272727273 13.0742857142857  C 9.52851895445316 13.0742857142857  9.77272727272728 12.8286819199072  9.77272727272728 12.5257142857143  L 9.77272727272728 9.23428571428572  C 9.77272727272728 8.93131808009282  9.52851895445316 8.68571428571429  9.22727272727273 8.68571428571429  C 8.9260265000923 8.68571428571429  8.68181818181818 8.93131808009282  8.68181818181818 9.23428571428572  Z M 11.9545454545455 9.23428571428571  L 11.9545454545455 12.5257142857143  C 11.9545454545455 12.8286819199072  12.1987537728196 13.0742857142857  12.5 13.0742857142857  C 12.8012462271804 13.0742857142857  13.0454545454545 12.8286819199072  13.0454545454545 12.5257142857143  L 13.0454545454545 9.23428571428572  C 13.0454545454545 8.93131804739542  12.8012462271804 8.68571425301688  12.5 8.68571425301688  C 12.1987537728196 8.68571425301688  11.9545454545455 8.93131804739542  11.9545454545455 9.23428568158831  Z M 15.2272727272727 9.23428571428571  L 15.2272727272727 12.5257142857143  C 15.2272727272727 12.8286819199072  15.4714810455468 13.0742857142857  15.7727272727273 13.0742857142857  C 16.0739734999077 13.0742857142857  16.3181818181818 12.8286819199072  16.3181818181818 12.5257142857143  L 16.3181818181818 9.23428571428572  C 16.3181818181818 8.93131808009282  16.0739734999077 8.68571428571429  15.7727272727273 8.68571428571429  C 15.4714810455468 8.68571428571429  15.2272727272727 8.93131808009282  15.2272727272727 9.23428571428572  Z " fill-rule="nonzero" fill="#000000" stroke="none" transform="matrix(1 0 0 1 176 693 )" />
  </g>
</svg>