<?xml version="1.0" encoding="utf-8"?>
<svg version="1.1" xmlns:xlink="http://www.w3.org/1999/xlink" width="24px" height="24px" xmlns="http://www.w3.org/2000/svg">
  <g transform="matrix(1 0 0 1 -131 -693 )">
    <path d="M 16.46625 22.74375  C 15.031875 23.35125  13.513125 23.6578125  11.94375 23.6578125  C 10.3771875 23.6578125  8.855625 23.35125  7.42125 22.74375  C 6.0375 22.15875  4.7971875 21.320625  3.7284375 20.2546875  C 2.6625 19.18875  1.824375 17.945625  1.239375 16.561875  C 0.6375 15.1303125  0.328125 13.60875  0.328125 12.0421875  C 0.328125 10.475625  0.634687500000001 8.9540625  1.2421875 7.5196875  C 1.8271875 6.1359375  2.6653125 4.895625  3.73125 3.826875  C 4.7971875 2.7609375  6.0403125 1.9228125  7.4240625 1.3378125  C 8.855625 0.733124999999999  10.3771875 0.423749999999999  11.9465625 0.423749999999999  L 11.9746875 0.423749999999999  L 11.971875 1.99875  L 11.9465625 1.99875  C 9.2634375 1.99875  6.7434375 3.0421875  4.8478125 4.940625  C 2.949375 6.8390625  1.903125 9.3590625  1.903125 12.0421875  C 1.903125 14.7253125  2.9465625 17.2453125  4.845 19.1409375  C 6.740625 21.039375  9.2634375 22.0828125  11.94375 22.0828125  C 14.6240625 22.0828125  17.1440625 21.039375  19.0425 19.14375  C 20.938125 17.248125  21.984375 14.728125  21.984375 12.0478125  L 23.559375 12.0478125  C 23.559375 13.614375  23.25 15.1359375  22.6453125 16.5675  C 22.0603125 17.95125  21.2221875 19.1915625  20.15625 20.2575  C 19.0903125 21.3234375  17.8471875 22.15875  16.46625 22.74375  Z M 23.53125 0.49125  L 23.53125 7.6940625  L 21.95625 7.6940625  L 21.95625 2.06625  L 16.30875 2.06625  L 16.30875 0.49125  L 23.53125 0.49125  Z " fill-rule="nonzero" fill="#000000" stroke="none" transform="matrix(1 0 0 1 131 693 )" />
  </g>
</svg>