<?xml version="1.0" encoding="utf-8"?>
<svg version="1.1" xmlns:xlink="http://www.w3.org/1999/xlink" width="26px" height="24px" xmlns="http://www.w3.org/2000/svg">
  <g transform="matrix(1 0 0 1 -40 -693 )">
    <path d="M 0.26 4.40727272727273  L 2.6 6.63272727272727  C 2.73 6.76363636363636  2.99 6.89454545454545  3.25 6.89454545454545  C 3.51 6.89454545454545  3.64 6.76363636363636  3.9 6.63272727272727  L 8.32 2.18181818181818  C 8.45 2.05090909090909  8.58 1.78909090909091  8.58 1.52727272727273  C 8.58 1.26545454545455  8.45 1.13454545454545  8.32 0.872727272727272  C 7.8 0.741818181818181  7.28 0.741818181818181  7.02 1.13454545454545  L 3.25 5.06181818181818  L 1.43 3.09818181818182  C 1.3 2.96727272727273  1.04 2.96727272727273  0.91 2.96727272727273  C 0.65 2.96727272727273  0.52 3.09818181818182  0.26 3.22909090909091  C 0.13 3.36  0 3.49090909090909  0 3.75272727272727  C 0 4.01454545454545  0.13 4.14545454545455  0.26 4.40727272727273  Z M 8.19 9.38181818181818  C 7.93 9.12  7.41 9.12  7.02 9.38181818181818  L 3.25 13.3090909090909  L 1.43 11.4763636363636  C 1.3 11.3454545454545  1.04 11.2145454545455  0.91 11.2145454545455  C 0.65 11.2145454545455  0.52 11.3454545454545  0.26 11.4763636363636  C 0.13 11.7381818181818  0 11.8690909090909  0 12.1309090909091  C 0 12.3927272727273  0.13 12.5236363636364  0.26 12.7854545454545  L 2.6 15.0109090909091  C 2.73 15.1418181818182  2.99 15.2727272727273  3.25 15.2727272727273  C 3.51 15.2727272727273  3.64 15.1418181818182  3.9 15.0109090909091  L 8.19 10.6909090909091  C 8.32 10.56  8.45 10.2981818181818  8.45 10.0363636363636  C 8.45 9.77454545454545  8.32 9.64363636363636  8.19 9.38181818181818  Z M 8.45 17.6290909090909  C 7.8 17.4981818181818  7.41 17.4981818181818  7.02 17.76  L 3.25 21.6872727272727  L 1.43 19.8545454545455  C 1.3 19.7236363636364  1.04 19.5927272727273  0.78 19.5927272727273  C 0.52 19.5927272727273  0.39 19.7236363636364  0.13 19.8545454545455  C 0.13 19.9854545454545  0 20.2472727272727  0 20.5090909090909  C 0 20.7709090909091  0.13 20.9018181818182  0.26 21.1636363636364  L 2.6 23.3890909090909  C 2.73 23.52  2.99 23.6509090909091  3.25 23.6509090909091  L 3.38 23.6509090909091  C 3.64 23.6509090909091  3.77 23.52  4.03 23.3890909090909  L 8.45 18.9381818181818  C 8.58 18.8072727272727  8.71 18.5454545454545  8.71 18.2836363636364  C 8.71 18.0218181818182  8.58 17.8909090909091  8.45 17.6290909090909  Z M 24.31 1.39636363636364  C 25.22 1.26545454545455  26 1.92  26 2.83636363636364  C 26 3.62181818181818  25.35 4.27636363636364  24.57 4.27636363636364  L 12.87 4.27636363636364  C 12.09 4.27636363636364  11.31 3.62181818181818  11.31 2.83636363636364  C 11.31 2.05090909090909  11.96 1.39636363636364  12.74 1.39636363636364  L 24.31 1.39636363636364  Z M 24.44 11  C 25.35 10.56  26 11.2145454545455  26 12  C 26 12.7854545454545  25.35 13.44  24.57 13  L 12.87 13  C 12.09 13.44  11.44 12.7854545454545  11.44 12  C 11.44 11.2145454545455  12.09 10.56  12.87 11  L 24.44 11  Z M 24.31 19.7236363636364  C 25.22 19.7236363636364  25.87 20.3781818181818  25.87 21.1636363636364  C 25.87 21.9490909090909  25.22 22.6036363636364  24.44 22.6036363636364  L 12.74 22.6036363636364  C 11.96 22.6036363636364  11.31 21.9490909090909  11.31 21.1636363636364  C 11.31 20.3781818181818  11.96 19.7236363636364  12.74 19.7236363636364  L 24.31 19.7236363636364  Z " fill-rule="nonzero" fill="#000000" stroke="none" transform="matrix(1 0 0 1 40 693 )" />
  </g>
</svg>