<?xml version="1.0" encoding="utf-8"?>
<svg version="1.1" xmlns:xlink="http://www.w3.org/1999/xlink" width="12px" height="10px" xmlns="http://www.w3.org/2000/svg">
  <g transform="matrix(1 0 0 1 -6 -72 )">
    <path d="M 3.15050847457627 2.32024038461538  C 3.74038983050847 1.63370192307692  4.22822033898305 1.29045673076923  4.61402542372881 1.29045673076923  L 6.18968644067797 1.29045673076923  C 5.63646610169492 2.69173076923077  5.12669491525424 3.64074519230769  4.66037288135593 4.1375  C 3.9609406779661 4.88264423076923  3.60762711864407 5.23098557692308  2.45023728813559 5.23098557692308  C 1.67865254237288 5.23098557692308  1.0035 4.86649038461539  0.424830508474576 4.1375  L 0.0254237288135593 4.67216346153846  C 0.900915254237288 5.66783653846154  1.77826271186441 6.23370192307692  2.6574406779661 6.36980769230769  C 4.1178813559322 6.59586538461538  4.91031355932203 5.99206730769231  5.63303389830509 5.50435096153846  C 6.21175423728814 5.77771634615384  7.91120338983051 6.29497596153846  7.76628813559322 7.38096153846154  C 7.6696779661017 8.10495192307692  7.39850847457627 8.93735576923077  6.95280508474576 9.87822115384615  L 7.94781355932203 9.87822115384615  C 8.47116101694916 9.12322115384615  8.82925423728814 8.19899038461538  9.02216949152542 7.10552884615384  C 9.2150593220339 6.01204326923077  8.46622881355933 5.05360576923077  6.77562711864407 4.23016826923077  L 7.87291525423729 2.92137019230769  C 8.21638983050848 3.79492788461538  8.67747457627119 4.32286057692307  9.25614406779661 4.50509615384615  C 9.83483898305085 4.68735576923077  10.7490254237288 4.47370192307692  11.9986779661017 3.86413461538461  L 11.7093305084746 3.31740384615384  C 10.7198898305085 3.55225961538461  10.0322542372881 3.57858173076923  9.64644915254238 3.39634615384615  C 9.06777966101695 3.12295673076923  9.2145 2.41360576923077  8.77421186440678 1.69480769230769  C 8.2880593220339 0.901153846153844  7.94781355932204 0.591033653846151  7.42032203389831 0.29463942307692  C 6.89277966101695 -0.00177884615384918  4.80785593220339 -0.139375000000003  3.93691525423729 0.43745192307692  C 3.35628813559322 0.822019230769227  2.9139406779661 1.36403846153846  2.60989830508475 2.06353365384615  L 3.15050847457627 2.32026442307692  Z " fill-rule="nonzero" fill="#ffffff" stroke="none" transform="matrix(1 0 0 1 6 72 )" />
  </g>
</svg>