<?xml version="1.0" encoding="utf-8"?>
<svg version="1.1" xmlns:xlink="http://www.w3.org/1999/xlink" width="10px" height="26px" preserveAspectRatio="xMidYMin meet" viewBox="1168 287  8 26" xmlns="http://www.w3.org/2000/svg">
  <defs>
    <mask fill="white" id="clip219">
      <path d="M 1478.5 728  L 1551.5 728  L 1551.5 756  L 1478.5 756  Z M 1169 289  L 1655 289  L 1655 1436  L 1169 1436  Z " fill-rule="evenodd" />
    </mask>
  </defs>
  <path d="M 1172 313  L 1172 297  A 5 5 0 0 1 1177 292 L 1510 292  A 5 5 0 0 1 1515 297 L 1515 1421  A 5 5 0 0 0 1520 1426 L 1643 1426  " stroke-width="2" stroke="#0099cc" fill="none" mask="url(#clip219)" />
  <path d="M 1637.89289321881 1421.70710678119  L 1642.18578643763 1426  L 1637.89289321881 1430.29289321881  L 1639.30710678119 1431.70710678119  L 1644.30710678119 1426.70710678119  L 1645.01421356237 1426  L 1644.30710678119 1425.29289321881  L 1639.30710678119 1420.29289321881  L 1637.89289321881 1421.70710678119  Z " fill-rule="nonzero" fill="#0099cc" stroke="none" mask="url(#clip219)" />
</svg>