<?xml version="1.0" encoding="utf-8"?>
<svg version="1.1" xmlns:xlink="http://www.w3.org/1999/xlink" width="22px" height="24px" xmlns="http://www.w3.org/2000/svg">
  <g transform="matrix(1 0 0 1 -1699 -2434 )">
    <path d="M 22 12  C 21.8801231935558 12.1595881595881  21.7602463871121 12.3191763191762  21.640369580668 12.4787644787643  C 14.7187870172943 16.2779922779923  7.79720445392104 20.0772200772199  0.875621890547336 23.8764478764479  C 0.669746505567673 23.8918918918921  0.463871120587555 23.9073359073359  0.257995735607892 23.9227799227801  C 0.171997157071928 23.7374517374519  0.085998578535964 23.5521235521237  0 23.3667953667955  C 0 15.7889317889317  0 8.21106821106832  0 0.633204633204514  C 0.085998578535964 0.447876447876297  0.171997157071928 0.26254826254808  0.257995735607892 0.077220077219863  C 0.463871120587555 0.0926640926641085  0.669746505567673 0.108108108107899  0.875621890547336 0.123552123552145  C 7.79720445392104 3.92277992278014  14.7187870172943 7.72200772200767  21.640369580668 11.5212355212357  C 21.7602463871121 11.6808236808238  21.8801231935558 11.8404118404119  22 12  Z " fill-rule="nonzero" fill="#ffffff" stroke="none" transform="matrix(1 0 0 1 1699 2434 )" />
  </g>
</svg>