<?xml version="1.0" encoding="utf-8"?>
<svg version="1.1" xmlns:xlink="http://www.w3.org/1999/xlink" width="26px" height="24px" xmlns="http://www.w3.org/2000/svg">
  <g transform="matrix(1 0 0 1 -1698 -2121 )">
    <path d="M 25.9709821428571 14.9469230769231  C 25.9709821428571 9.95584615384615  21.8859352678571 5.89494230769231  16.8647142857143 6  L 1.71988839285714 6  L 7.01384821428572 0.632307692307692  L 6.37890848214286 0.000692307692307719  L 0.663957589285714 5.68223076923077  L 0.0290178571428571 6.31341346153846  L 0.663957589285714 6.944625  L 6.37890848214286 12.6257307692308  L 7.01384821428571 11.9945480769231  L 1.76196428571429 7  L 16.8647142857143 7  C 21.3983191964286 6.77374038461538  25.0869821428571 10.4401442307692  25.0869821428571 14.9469230769231  C 25.0869821428571 19.4537307692308  21.3983482142857 23.1205673076923  16.8647142857143 23.1205673076923  L 11.8662723214286 23.1205673076923  C 11.7483147321429 23.1205673076923  11.6373794642857 23.1663461538462  11.5540401785714 23.2491634615385  C 11.4702946428571 23.3324134615385  11.4242433035714 23.4426923076923  11.4242433035714 23.5599519230769  C 11.4242433035714 23.6771826923077  11.4702946428571 23.7874903846154  11.5544754464286 23.8711730769231  C 11.6373504464286 23.9535576923077  11.7482857142857 23.9993076923077  11.8662433035714 23.9993076923077  L 16.8646852678571 23.9993076923077  C 21.8859352678571 23.9993365384615  25.9709821428571 19.9384615384615  25.9709821428571 14.9469230769231  Z " fill-rule="nonzero" fill="#ffffff" stroke="none" transform="matrix(1 0 0 1 1698 2121 )" />
  </g>
</svg>