<?xml version="1.0" encoding="utf-8"?>
<svg version="1.1" xmlns:xlink="http://www.w3.org/1999/xlink" width="24px" height="24px" xmlns="http://www.w3.org/2000/svg">
  <g transform="matrix(1 0 0 1 -2377 -2121 )">
    <path d="M 23.34375 12  C 23.34375 11.771671875  23.156015625 11.5813828125  22.9251328125 11.5813828125  C 22.6938515625 11.5813828125  22.5039609375 11.7687421875  22.5039609375 12.0025546875  C 22.5039609375 17.795203125  17.792625 22.506515625  12 22.506515625  C 6.207 22.506515625  1.4953125 17.795203125  1.4953125 12.0025546875  C 1.4953125 6.2099296875  6.207 1.4982421875  12 1.4982421875  C 12.23090625 1.4982421875  12.4208203125 1.3108828125  12.4208203125 1.077421875  C 12.4208203125 0.843609375  12.2334375 0.65625  12 0.65625  C 5.7452109375 0.65625  0.65625 5.7452109375  0.65625 12  C 0.65625 18.2547890625  5.7452109375 23.34375  12 23.34375  C 18.2544375 23.34375  23.34375 18.2547890625  23.34375 12  Z M 22.2214453125 7.08046875  C 22.3239140625 7.290890625  22.2240234375 7.5452109375  22.0084921875 7.63996875  C 21.7976953125 7.732546875  21.559125 7.6377890625  21.458859375 7.432125  C 21.3225883449021 7.15207455434451  21.1743741470965 6.87799480162291  21.014625 6.610640625  C 19.9698984375 4.8699140625  18.4084921875 3.4395  16.5858046875 2.55103125  C 16.380140625 2.4511171875  16.2875625 2.212171875  16.3775859375 2.004328125  C 16.4723671875 1.788421875  16.7292421875 1.68853125  16.9421953125 1.791  C 18.9376171875 2.756671875  20.585765625 4.2661171875  21.7336640625 6.179203125  C 21.9082265625 6.4719375  22.0725234375 6.772359375  22.2214453125 7.08046875  Z M 16.1015625 9.1817578125  C 16.096828125 7.777546875  14.96653125 6.6328125  13.577296875 6.6328125  C 12.3058828125 6.6328125  11.2504921875 7.587984375  11.0806640625 8.8261875  C 11.0653828125 8.8703671875  11.0548359375 8.917125  11.0548359375 8.969015625  L 11.0548359375 15.139453125  L 8.7073359375 12.7903828125  C 8.5429453125 12.624  8.2759921875 12.626578125  8.11453125 12.7925859375  C 7.949765625 12.9589453125  7.95234375 13.2287578125  8.1167109375 13.3925390625  L 11.19375 16.471171875  C 11.357765625 16.6346015625  11.622515625 16.6346015625  11.78690625 16.471171875  L 14.8355859375 13.395140625  C 14.9999765625 13.22878125  14.9999765625 12.961546875  14.8355859375 12.7955390625  C 14.757379972388 12.7159028575438  14.6504478819117 12.6710414919581  14.53883203125 12.6710414919581  C 14.4272161805883 12.6710414919581  14.320284090112 12.7159028575438  14.242078125 12.7955390625  L 11.8949296875 15.16265625  L 11.8949296875 9.1817578125  C 11.8949296875 8.2446328125  12.649921875 7.4816015625  13.5772734375 7.4816015625  C 14.504296875 7.4816015625  15.2592890625 8.2446328125  15.2592890625 9.1817578125  C 15.2592890625 9.4154765625  15.446953125 9.6076171875  15.6804375 9.6076171875  C 15.91171875 9.6076171875  16.1015625 9.4180546875  16.1015625 9.1817578125  Z " fill-rule="nonzero" fill="#ffffff" stroke="none" transform="matrix(1 0 0 1 2377 2121 )" />
  </g>
</svg>