<?xml version="1.0" encoding="utf-8"?>
<svg version="1.1" xmlns:xlink="http://www.w3.org/1999/xlink" width="61px" height="10px" preserveAspectRatio="xMinYMid meet" viewBox="836 1658  61 8" xmlns="http://www.w3.org/2000/svg">
  <defs>
    <mask fill="white" id="clip189">
      <path d="M 791.5 730  L 890.5 730  L 890.5 776  L 791.5 776  Z M 791.5 225  L 1280 225  L 1280 1672  L 791.5 1672  Z " fill-rule="evenodd" />
    </mask>
  </defs>
  <path d="M 1277 225  L 1277 243  A 5 5 0 0 1 1272 248 L 846 248  A 5 5 0 0 0 841 253 L 841 1657  A 5 5 0 0 0 846 1662 L 895 1662  " stroke-width="2" stroke="#0099cc" fill="none" mask="url(#clip189)" />
  <path d="M 889.892893218813 1657.70710678119  L 894.185786437627 1662  L 889.892893218813 1666.29289321881  L 891.307106781187 1667.70710678119  L 896.307106781187 1662.70710678119  L 897.014213562373 1662  L 896.307106781187 1661.29289321881  L 891.307106781187 1656.29289321881  L 889.892893218813 1657.70710678119  Z " fill-rule="nonzero" fill="#0099cc" stroke="none" mask="url(#clip189)" />
</svg>