<?xml version="1.0" encoding="utf-8"?>
<svg version="1.1" xmlns:xlink="http://www.w3.org/1999/xlink" width="26px" height="24px" xmlns="http://www.w3.org/2000/svg">
  <g transform="matrix(1 0 0 1 -2955 -3230 )">
    <path d="M 21.671875 15  C 21.890625 15.09375  22 15.2447916666667  22 15.453125  L 22 19.5  C 22 20.7395833333333  21.5598958333333 21.7994791666667  20.6796875 22.6796875  C 19.7994791666667 23.5598958333333  18.7395833333333 24  17.5 24  L 4.5 24  C 3.26041666666667 24  2.20052083333333 23.5598958333333  1.3203125 22.6796875  C 0.440104166666667 21.7994791666667  0 20.7395833333333  0 19.5  L 0 6.5  C 0 5.26041666666666  0.440104166666667 4.20052083333333  1.3203125 3.3203125  C 2.20052083333333 2.44010416666666  3.26041666666667 2  4.5 2  L 8.484375 2  C 8.61979166666667 2  8.73697916666667 2.04947916666666  8.8359375 2.1484375  C 8.93489583333333 2.24739583333333  8.984375 2.36458333333333  8.984375 2.5  C 8.984375 2.78125  8.84895833333333 2.94791666666667  8.578125 3  C 7.77604166666667 3.27083333333333  7.08333333333333 3.58333333333333  6.5 3.9375  C 6.39583333333333 3.97916666666667  6.3125 4  6.25 4  L 4.5 4  C 3.8125 4  3.22395833333333 4.24479166666666  2.734375 4.734375  C 2.24479166666667 5.22395833333333  2 5.8125  2 6.5  L 2 19.5  C 2 20.1875  2.24479166666667 20.7760416666667  2.734375 21.265625  C 3.22395833333333 21.7552083333333  3.8125 22  4.5 22  L 17.5 22  C 18.1875 22  18.7760416666667 21.7552083333333  19.265625 21.265625  C 19.7552083333333 20.7760416666667  20 20.1875  20 19.5  L 20 16.15625  C 20 15.9583333333333  20.09375 15.8072916666667  20.28125 15.703125  C 20.5729166666667 15.5677083333333  20.8541666666667 15.375  21.125 15.125  C 21.2916666666667 14.9583333333333  21.4739583333333 14.9166666666667  21.671875 15  Z M 26 7  C 26 7.27083333333333  25.9010416666667 7.50520833333333  25.703125 7.703125  L 19.703125 13.703125  C 19.515625 13.9010416666667  19.28125 14  19 14  C 18.875 14  18.7447916666667 13.9739583333333  18.609375 13.921875  C 18.203125 13.7447916666667  18 13.4375  18 13  L 18 10  L 15.5 10  C 12.1354166666667 10  9.85416666666667 10.6822916666667  8.65625 12.046875  C 7.41666666666667 13.4739583333333  7.03125 15.9375  7.5 19.4375  C 7.53125 19.6770833333333  7.42708333333333 19.8541666666667  7.1875 19.96875  C 7.10416666666667 19.9895833333333  7.04166666666667 20  7 20  C 6.83333333333333 20  6.69791666666667 19.9322916666667  6.59375 19.796875  C 6.48958333333333 19.6510416666667  6.38020833333333 19.4895833333333  6.265625 19.3125  C 6.15104166666667 19.1354166666667  5.9453125 18.7786458333333  5.6484375 18.2421875  C 5.3515625 17.7057291666667  5.09375 17.1875  4.875 16.6875  C 4.65625 16.1875  4.45572916666667 15.59375  4.2734375 14.90625  C 4.09114583333333 14.21875  4 13.5833333333333  4 13  C 4 12.4895833333333  4.01822916666667 12.015625  4.0546875 11.578125  C 4.09114583333333 11.140625  4.1640625 10.671875  4.2734375 10.171875  C 4.3828125 9.671875  4.52864583333333 9.21354166666666  4.7109375 8.796875  C 4.89322916666667 8.38020833333333  5.13802083333333 7.95572916666666  5.4453125 7.5234375  C 5.75260416666667 7.09114583333333  6.109375 6.70572916666666  6.515625 6.3671875  C 6.921875 6.02864583333333  7.4140625 5.70833333333333  7.9921875 5.40625  C 8.5703125 5.10416666666667  9.21875 4.8515625  9.9375 4.6484375  C 10.65625 4.4453125  11.4869791666667 4.28645833333333  12.4296875 4.171875  C 13.3723958333333 4.05729166666666  14.3958333333333 4  15.5 4  L 18 4  L 18 0.999999999999999  C 18 0.5625  18.203125 0.255208333333331  18.609375 0.0781250000000009  C 18.7447916666667 0.0260416666666687  18.875 0  19 0  C 19.2708333333333 0  19.5052083333333 0.0989583333333348  19.703125 0.296874999999999  L 25.703125 6.296875  C 25.9010416666667 6.49479166666666  26 6.72916666666666  26 7  Z " fill-rule="nonzero" fill="#ffffff" stroke="none" transform="matrix(1 0 0 1 2955 3230 )" />
  </g>
</svg>