<?xml version="1.0" encoding="utf-8"?>
<svg version="1.1" xmlns:xlink="http://www.w3.org/1999/xlink" width="10px" height="22px" preserveAspectRatio="xMidYMin meet" viewBox="1124 180  8 22" xmlns="http://www.w3.org/2000/svg">
  <defs>
    <mask fill="white" id="clip452">
      <path d="M 1335.5 171  L 1408.5 171  L 1408.5 199  L 1335.5 199  Z M 1125 171  L 1617 171  L 1617 221  L 1125 221  Z " fill-rule="evenodd" />
    </mask>
  </defs>
  <path d="M 1128 202  L 1128 190  A 5 5 0 0 1 1133 185 L 1592 185  A 5 5 0 0 1 1597 190 L 1597 206  A 5 5 0 0 0 1602 211 L 1605 211  " stroke-width="2" stroke="#0099cc" fill="none" mask="url(#clip452)" />
  <path d="M 1599.89289321881 206.707106781187  L 1604.18578643763 211  L 1599.89289321881 215.292893218813  L 1601.30710678119 216.707106781187  L 1606.30710678119 211.707106781187  L 1607.01421356237 211  L 1606.30710678119 210.292893218813  L 1601.30710678119 205.292893218813  L 1599.89289321881 206.707106781187  Z " fill-rule="nonzero" fill="#0099cc" stroke="none" mask="url(#clip452)" />
</svg>