<?xml version="1.0" encoding="utf-8"?>
<svg version="1.1" xmlns:xlink="http://www.w3.org/1999/xlink" width="25px" height="24px" xmlns="http://www.w3.org/2000/svg">
  <g transform="matrix(1 0 0 1 -310 -18 )">
    <path d="M 22.9775609678049 9.15278048780488  L 22.9775609678049 18.4936585287805  C 22.9775609678049 20.9912195121951  20.979512195122 22.9892682848781  18.4819512117073 23  L 5.49463415414634 23  C 2.99707317073171 22.9892682848781  0.99902439804878 20.9912195121951  1 18.4936585287805  L 1 5.50634147121951  C 0.99902439804878 3.00878048780488  2.99707317073171 1.01073171512195  5.49463415414634 1.01073171512195  L 14.4359024312195 1.01073171512195  L 14.4359024312195 0.0117073170731707  L 5.49463415414634 0.0117073170731707  C 2.44760974829268 0.0117073170731707  0 2.45931706536585  0 5.50634147121951  L 0 18.4936585287805  C 0 21.5406829112195  2.44760974829268 23.9882926829268  5.49463415414634 24  L 18.4819512117073 24  C 21.5289755941463 23.9882926829268  23.9765853658537 21.5406829346341  23.9765853658537 18.4936585287805  L 23.9765853658537 9.15278048780488  L 22.9775609678049 9.15278048780488  Z M 11.03921952 11.9000975531707  C 10.7395122029268 12.1998048702439  10.7395122029268 12.6493658458537  11.03921952 12.9490731629268  C 11.3389268370732 13.24878048  11.7884878126829 13.24878048  12.0881951297561 12.9490731629268  L 23.7767804956098 1.31043903219512  C 24.0764878126829 1.01073171512195  24.0764878126829 0.561170739512195  23.7767804956098 0.261463422439024  C 23.4770731785366 -0.0382438946341463  23.0275122029268 -0.0382438946341463  22.7278048858537 0.261463422439024  L 11.03921952 11.9000975531707  Z " fill-rule="nonzero" fill="#000000" stroke="none" transform="matrix(1 0 0 1 310 18 )" />
  </g>
</svg>