<?xml version="1.0" encoding="utf-8"?>
<svg version="1.1" xmlns:xlink="http://www.w3.org/1999/xlink" width="79px" height="10px" preserveAspectRatio="xMinYMid meet" viewBox="625 256  79 8" xmlns="http://www.w3.org/2000/svg">
  <path d="M 630 94  L 630 135  A 5 5 0 0 0 635 140 L 694 140  A 5 5 0 0 1 699 145 L 699 182  A 3 3 0 0 1 702 185 A 3 3 0 0 1 699 188 L 699 227  A 3 3 0 0 1 702 230 A 3 3 0 0 1 699 233 L 699 255  A 5 5 0 0 1 694 260 L 635 260  A 5 5 0 0 0 630 265 L 630 273  " stroke-width="2" stroke-dasharray="6,2" stroke="#0099cc" fill="none" />
  <path d="M 634.292893218813 267.892893218813  L 630 272.185786437627  L 625.707106781187 267.892893218813  L 624.292893218813 269.307106781187  L 629.292893218813 274.307106781187  L 630 275.014213562373  L 630.707106781187 274.307106781187  L 635.707106781187 269.307106781187  L 634.292893218813 267.892893218813  Z " fill-rule="nonzero" fill="#0099cc" stroke="none" />
</svg>