<?xml version="1.0" encoding="utf-8"?>
<svg version="1.1" xmlns:xlink="http://www.w3.org/1999/xlink" width="51px" height="49px" xmlns="http://www.w3.org/2000/svg">
  <g transform="matrix(1 0 0 1 -132 -395 )">
    <path d="M 48.6837890625 11.56318359375  C 49.34013671875 8.8357421875  52.155126953125 3.019921875  48.92763671875 0.902099609375  C 47.687451171875 0.08837890625  46.670703125 0.544921875  45.29033203125 0.759765625  C 40.536376953125 1.502587890625  35.934423828125 2.53544921875  31.11064453125 3.024755859375  C 26.49150390625 3.493115234375  18.929541015625 2.678857421875  15.14130859375 5.77744140625  C 14.664892578125 6.1673828125  14.61923828125 6.998828125  14.9189453125 7.4994140625  C 16.36591796875 9.91640625  18.87744140625 11.507861328125  20.38671875 13.922705078125  C 22.676416015625 17.587939453125  19.849609375 19.132666015625  16.991650390625 21.938525390625  C 14.58701171875 24.301806640625  12.077099609375 26.6291015625  9.65205078125 29.03857421875  C 9.3138220759694 28.9995065096386  8.97504033862455 29.1070252375899  8.721240234375 29.333984375  C 5.861669921875 31.757958984375  1.659326171875 34.858154296875  0.609814453125 38.572265625  C 0.4599609375 39.103466796875  0.6060546875 39.76357421875  1.024462890625 40.14169921875  C 4.4453125 43.229541015625  10.344921875 50.6142578125  15.181591796875 48.02001953125  C 17.54111328125 46.75458984375  19.59931640625 43.592626953125  21.476513671875 41.70791015625  C 23.95205078125 39.221630859375  26.56455078125 36.87822265625  29.103466796875 34.460693359375  C 29.865087890625 33.73828125  33.253173828125 29.233544921875  34.3794921875 29.119140625  C 36.94365234375 28.8505859375  38.90302734375 32.676416015625  40.583642578125 34.111572265625  C 41.405419921875 34.81357421875  42.80888671875 34.836669921875  43.3728515625 33.75224609375  C 44.73603515625 31.1322265625  44.794580078125 28.17705078125  45.37412109375 25.291162109375  C 46.301171875 20.6779296875  47.581640625 16.13720703125  48.6837890625 11.56318359375  Z M 43.777294921875 4.31435546875  C 47.306640625 4.104345703125  46.4859375 4.217138671875  46.3892578125 7.0439453125  C 46.297412109375 9.7294921875  44.947119140625 12.922607421875  44.273583984375 15.527587890625  C 43.184326171875 19.738525390625  42.877099609375 25.302978515625  41.32646484375 29.626171875  C 40.21787109375 28.287158203125  38.94599609375 26.766064453125  37.561865234375 25.80947265625  C 37.9686360677083 24.79326171875  38.4185546875 23.7962076822917  38.91162109375 22.818310546875  C 39.08564453125 22.471875  38.568408203125 22.16572265625  38.38955078125 22.513232421875  C 37.89326171875 23.47626953125  37.436181640625 24.456494140625  37.0091796875 25.449609375  C 36.489794921875 25.1595703125  35.9564453125 24.958154296875  35.410205078125 24.88994140625  C 36.03916015625 23.60087890625  36.47958984375 22.166796875  36.61279296875 20.789111328125  C 36.65146484375 20.391650390625  36.042919921875 20.402392578125  35.996728515625 20.789111328125  C 35.816259765625 22.3064453125  35.14970703125 23.576171875  34.52880859375 24.905517578125  C 33.73603515625 25.066650390625  32.85302734375 25.603759765625  31.946923828125 26.3669921875  C 32.736474609375 24.733642578125  33.5759765625 23.076123046875  33.70380859375 21.258544921875  C 33.72314453125 20.980859375  33.301513671875 20.989990234375  33.27412109375 21.258544921875  C 33.05927734375 23.406982421875  31.78740234375 25.29814453125  30.87646484375 27.202734375  C 30.8595628849734 27.2520452146084  30.8571398431948 27.3051657459089  30.869482421875 27.355810546875  C 28.8 29.39091796875  26.7998046875 32.06357421875  25.797021484375 33.011572265625  C 23.690478515625 35.003173828125  21.597900390625 37.002294921875  19.53916015625 39.039013671875  C 19.765283203125 37.6763671875  19.9505859375 36.306201171875  20.1525390625 34.9392578125  C 20.20625 34.5869140625  19.66591796875 34.43330078125  19.611669921875 34.78994140625  C 19.35546875 36.478076171875  19.121826171875 38.1619140625  18.74423828125 39.82587890625  C 18.363427734375 40.20830078125  17.97080078125 40.57783203125  17.59375 40.965087890625  C 14.99736328125 43.63505859375  13.8876953125 44.8349609375  10.853564453125 43.3890625  C 11.73818359375 40.95166015625  12.05400390625 38.389111328125  12.613671875 35.86953125  C 12.682421875 35.56015625  12.21728515625 35.42802734375  12.13671875 35.737939453125  C 11.49755859375 38.1833984375  11.071630859375 40.679345703125  10.198828125 43.0603515625  C 10.121484375 43.017919921875  10.059716796875 42.9958984375  9.98022460937499 42.9529296875  C 9.48124999999999 42.668798828125  8.72714843749999 42.225146484375  7.96230468749999 41.717578125  C 8.23085937499999 41.073046875  8.37319335937499 40.39091796875  8.57622070312499 39.706103515625  C 8.96079101562499 38.407373046875  9.65043945312499 37.241845703125  9.83627929687499 35.88349609375  C 9.88515624999999 35.52578125  9.34106445312499 35.36572265625  9.28466796874999 35.731494140625  C 9.09399414062499 36.971142578125  8.48222656249999 38.034619140625  8.06704101562499 39.2017578125  C 7.81513671874999 39.911279296875  7.67119140624999 40.643896484375  7.39082031249999 41.326025390625  C 6.41381835937499 40.631005859375  5.52221679687499 39.860791015625  5.25043945312499 39.206591796875  C 4.91904296874999 38.41005859375  4.98188476562499 37.595263671875  5.28588867187499 36.797119140625  C 8.40917968749999 34.73515625  11.241357421875 31.116650390625  13.825927734375 28.767333984375  C 17.053955078125 25.823974609375  23.05185546875 22.2033203125  24.9091796875 18.222802734375  C 25.380224609375 17.214111328125  25.64287109375 16.4541015625  25.3646484375 15.356787109375  C 24.818408203125 13.20029296875  18.1072265625 8.777197265625  18.51435546875 7.15136718749999  C 18.709326171875 6.37255859374999  40.636279296875 4.500732421875  43.777294921875 4.31435546875  Z " fill-rule="nonzero" fill="#ffffff" stroke="none" transform="matrix(1 0 0 1 132 395 )" />
  </g>
</svg>