<?xml version="1.0" encoding="utf-8"?>
<svg version="1.1" xmlns:xlink="http://www.w3.org/1999/xlink" width="24px" height="24px" xmlns="http://www.w3.org/2000/svg">
  <g transform="matrix(1 0 0 1 -176 -566 )">
    <path d="M 23.8125 12  C 23.8125 18.525  18.525 23.8125  12 23.8125  C 5.475 23.8125  0.1875 18.525  0.1875 12  C 0.1875 5.475  5.475 0.1875  12 0.1875  C 18.525 0.1875  23.8125 5.475  23.8125 12  Z M 22.6875 12  C 22.6875 6.1125  17.8875 1.3125  12 1.3125  C 6.1125 1.3125  1.3125 6.1125  1.3125 12  C 1.3125 17.8875  6.1125 22.6875  12 22.6875  C 17.8875 22.6875  22.6875 17.8875  22.6875 12  Z " fill-rule="nonzero" fill="#dbdbdb" stroke="none" transform="matrix(1 0 0 1 176 566 )" />
  </g>
</svg>