<?xml version="1.0" encoding="utf-8"?>
<svg version="1.1" xmlns:xlink="http://www.w3.org/1999/xlink" width="12px" height="12px" xmlns="http://www.w3.org/2000/svg">
  <g transform="matrix(1 0 0 1 -182 -572 )">
    <path d="M 11.4375 10.5375  L 6.8625 6  L 11.4375 1.425  C 11.6625 1.2  11.6625 0.824999999999999  11.4375 0.5625  L 11.4 0.524999999999999  C 11.175 0.299999999999999  10.8 0.299999999999999  10.575 0.524999999999999  L 6 5.1375  L 1.425 0.5625  C 1.2 0.337499999999999  0.824999999999999 0.337499999999999  0.600000000000001 0.5625  L 0.5625 0.600000000000001  C 0.337499999999999 0.825000000000001  0.337499999999999 1.2  0.5625 1.4625  L 5.1375 6  L 0.5625 10.575  C 0.337499999999999 10.8  0.337499999999999 11.175  0.5625 11.4375  L 0.600000000000001 11.475  C 0.825000000000001 11.7  1.2 11.7  1.425 11.475  L 6 6.8625  L 10.575 11.4375  C 10.8 11.6625  11.175 11.6625  11.4 11.4375  L 11.4375 11.4  C 11.6625 11.175  11.6625 10.8  11.4375 10.5375  Z " fill-rule="nonzero" fill="#dbdbdb" stroke="none" transform="matrix(1 0 0 1 182 572 )" />
  </g>
</svg>