<?xml version="1.0" encoding="utf-8"?>
<svg version="1.1" xmlns:xlink="http://www.w3.org/1999/xlink" width="17px" height="10px" preserveAspectRatio="xMinYMid meet" viewBox="948 1201  17 8" xmlns="http://www.w3.org/2000/svg">
  <path d="M 1666 1079  L 1666 1115  A 5 5 0 0 1 1661 1120 L 1015 1120  A 3 3 0 0 0 1012 1117 A 3 3 0 0 0 1009 1120 L 965 1120  A 5 5 0 0 0 960 1125 L 960 1200  A 5 5 0 0 1 955 1205 L 950 1205  " stroke-width="2" stroke="#0099cc" fill="none" />
  <path d="M 955.107106781187 1209.29289321881  L 950.814213562373 1205  L 955.107106781187 1200.70710678119  L 953.692893218813 1199.29289321881  L 948.692893218813 1204.29289321881  L 947.985786437627 1205  L 948.692893218813 1205.70710678119  L 953.692893218813 1210.70710678119  L 955.107106781187 1209.29289321881  Z " fill-rule="nonzero" fill="#0099cc" stroke="none" />
</svg>