<?xml version="1.0" encoding="utf-8"?>
<svg version="1.1" xmlns:xlink="http://www.w3.org/1999/xlink" width="20px" height="8px" xmlns="http://www.w3.org/2000/svg">
  <g transform="matrix(1 0 0 1 -848 -711 )">
    <path d="M 19.4349489179688 7.80808759375  C 19.8508613671875 7.306744546875  20.0438832226563 3.73118247265625  17.5657518320313 1.85010220703125  C 16.213956203125 0.824292007812502  14.0499270195312 0.217284679687502  11.0730218984375 0.0294014570312484  C 11.0598539960938 0.0082043710937505  8.94078830078125 0.0082043710937505  8.92762044140625 0.0294014570312484  C 5.95135766015625 0.217284679687499  3.78668613671875 0.824291964843752  2.4348905078125 1.85010220703125  C -0.0438832226562447 3.73086132421875  0.150102207031255 7.3070656953125  0.566014613281254 7.80808759375  C 0.981927019531254 8.3091094921875  4.58735766015625 7.66002918359375  5.03859854296875 7.00709487890625  C 5.48951823437501 6.353518234375  4.40814600390625 4.55016057421875  5.53769342187501 3.5558248125  C 6.17521165625 2.993781015625  7.245343046875 2.829343046875  8.39576640234375 2.806218984375  C 9.54651094921875 2.78245258203125  10.4547736875 2.78245258203125  11.6051970859375 2.806218984375  C 12.75626278125 2.82934308984375  13.8257518320313 2.993781015625  14.46391240625 3.5558248125  C 15.5934598671875 4.54983942578125  14.5108029140625 6.3531970859375  14.9623649453125 7.00709487890625  C 15.4129634882813 7.66002918359375  19.01903646875 8.309430640625  19.4349489179688 7.80808759375  Z " fill-rule="nonzero" fill="#ffffff" stroke="none" transform="matrix(1 0 0 1 848 711 )" />
  </g>
</svg>