<?xml version="1.0" encoding="utf-8"?>
<svg version="1.1" xmlns:xlink="http://www.w3.org/1999/xlink" width="40px" height="40px" xmlns="http://www.w3.org/2000/svg">
  <g transform="matrix(1 0 0 1 -741 -1468 )">
    <path d="M 8.49673200980392 0.130718970588235  L 15.0766013235294 0.130718970588236  L 0.130718970588236 15.0766013235294  L 0.130718970588234 8.49673200980392  C 0.130718997661017 3.87631060257344  3.87631060257344 0.130718997661017  8.49673200980392 0.130718970588235  Z M 39.8692810294118 15.1633986764706  L 24.8366013235294 0.130718970588236  L 31.5032679901961 0.130718970588234  C 36.1236893974266 0.130718997661017  39.869281002339 3.87631060257344  39.8692810294118 8.49673200980392  L 39.8692810294118 15.1633986764706  Z M 25.6209150490196 39.8692810294118  L 39.8692810294118 25.6209150490196  L 39.8692810294118 31.5032679901961  C 39.869281002339 36.1236893974266  36.1236893974266 39.869281002339  31.5032679901961 39.8692810294118  L 25.6209150490196 39.8692810294118  Z M 0.130718970588235 25.7077124019608  L 14.2922875980392 39.8692810294118  L 8.49673200980392 39.8692810294118  C 3.87631060257344 39.869281002339  0.130718997661017 36.1236893974266  0.130718970588235 31.5032679901961  L 0.130718970588235 25.7077124019608  Z M 8.49673200980392 16.8627450980392  C 8.49673200980392 12.242323652522  12.242323652522 8.49673200980392  16.8627450980392 8.49673200980392  L 23.1372549019608 8.49673200980392  C 27.757676347478 8.49673200980392  31.5032679901961 12.242323652522  31.5032679901961 16.8627450980392  L 31.5032679901961 23.1372549019608  C 31.5032679901961 27.757676347478  27.757676347478 31.5032679901961  23.1372549019608 31.5032679901961  L 16.8627450980392 31.5032679901961  C 12.242323652522 31.5032679901961  8.49673200980392 27.757676347478  8.49673200980392 23.1372549019608  L 8.49673200980392 16.8627450980392  Z " fill-rule="nonzero" fill="#000000" stroke="none" transform="matrix(1 0 0 1 741 1468 )" />
  </g>
</svg>