<?xml version="1.0" encoding="utf-8"?>
<svg version="1.1" xmlns:xlink="http://www.w3.org/1999/xlink" width="16px" height="17px" xmlns="http://www.w3.org/2000/svg">
  <g transform="matrix(1 0 0 1 -359 -1480 )">
    <path d="M 5.2181818359375 8.3878787890625  C 4.70402904079216 7.79498851547151  4.76636443395409 6.89790067906519  5.3575757421875 6.3818181640625  L 6.430303046875 5.44848484375  C 7 4.9575757421875  6 2.65454546875  5.5636363671875 1.727272734375  C 5.38992915366122 1.33254579923146  5.07715893872916 1.01546151284871  4.6848484765625 0.836363632812498  C 4.01820743699015 0.554798621867782  3.24944607133554 0.67704813998165  2.7030303125 1.15151515625  L 1.630303046875 2.0848484765625  L 1.54545453125 2.175757578125  C 1.066666640625 2.6909091015625  -1.024242421875 5.5393939453125  4.2363636328125 11.6  L 4.3151515234375 11.6909091015625  C 10.224242421875 18.4424242578125  13.406060625 15.7454545703125  13.4424242578125 15.6969696875  L 14.5151515234375 14.7636363671875  C 15.0686220433743 14.2922717992046  15.3040219951988 13.5460539317418  15.121212109375 12.8424242578125  C 14.9989836570227 12.4294880041737  14.7294026740648 12.0757977401879  14.3636363671875 11.84848484375  C 13.5090908984375 11.2848484765625  11.3696969921875 9.969696953125  10.8 10.4666666796875  L 9.7090908984375 11.393939375  C 9.11620063044509 11.9080921438272  8.21911282400565 11.8457567515337  7.7030303125 11.25454546875  L 5.2181818359375 8.3878787890625  Z " fill-rule="nonzero" fill="#ffffff" stroke="none" transform="matrix(1 0 0 1 359 1480 )" />
  </g>
</svg>