<?xml version="1.0" encoding="utf-8"?>
<svg version="1.1" xmlns:xlink="http://www.w3.org/1999/xlink" width="40px" height="40px" xmlns="http://www.w3.org/2000/svg">
  <g transform="matrix(1 0 0 1 -644 -695 )">
    <path d="M 40 20  C 40 31.0461538461538  31.0461538461538 40  20 40  C 8.95384615384615 40  0 31.0461538461538  0 20  C 0 8.95384615384615  8.95384615384615 0  20 0  C 31.0461538461538 0  40 8.95384615384615  40 20  Z M 30.3107692307692 6.15384615384615  L 26.9861538461538 6.15384615384615  L 24.9092307692308 9.02461538461538  C 23.8984615384615 7.36153846153846  21.9107692307692 6.14461538461538  19.7523076923077 6.14461538461538  C 19.7384615384615 6.14461538461538  19.7261538461538 6.14923076923077  19.7123076923077 6.14923076923077  C 19.6984615384615 6.14769230769231  19.6861538461538 6.14461538461538  19.6707692307692 6.14461538461538  C 19.6415384615385 6.14461538461538  19.6153846153846 6.15076923076923  19.5876923076923 6.15384615384615  L 19.6784615384615 6.15384615384615  C 16.6169230769231 6.19384615384615  13.6907692307692 8.63538461538461  13.6907692307692 11.3553846153846  L 13.6907692307692 19.7215384615385  C 13.6907692307692 20.8276923076923  14.1323076923077 21.9692307692308  14.84 22.9476923076923  L 13.5661538461538 24.7107692307692  C 12.4123076923077 23.4246153846154  11.6861538461538 21.7938461538462  11.6830769230769 19.9876923076923  L 11.6876923076923 19.0261538461538  C 11.6876923076923 18.5830769230769  11.3753846153846 17.7476923076923  10.6276923076923 17.7476923076923  L 10.0969230769231 17.7476923076923  C 9.37692307692308 17.7476923076923  9.03538461538461 18.5830769230769  9.03538461538461 19.0261538461538  L 9.03076923076923 19.6784615384615  L 9.03076923076923 20.2015384615385  C 9.03076923076923 22.7261538461538  10.2369230769231 24.9969230769231  12.1661538461538 26.6476923076923  L 8.35692307692307 31.9153846153846  L 11.6846153846154 31.9153846153846  L 30.3107692307692 6.15384615384615  Z M 25.6415384615385 15.88  L 18.6569230769231 25.3969230769231  C 18.8938461538462 25.4323076923077  19.1292307692308 25.4830769230769  19.3723076923077 25.4830769230769  C 23.4430769230769 25.4830769230769  25.6492307692308 22.6553846153846  25.6492307692308 19.9153846153846  L 25.6415384615385 15.88  Z M 30.3169230769231 19.0292307692308  C 30.3184615384616 19.0215384615385  30.3138461538462 19.0092307692308  30.3138461538462 19.0030769230769  L 30.3138461538462 15.2830769230769  L 30.3107692307692 15.2692307692308  L 30.3107692307692 18.9938461538462  C 30.2938461538462 18.5446153846154  29.9276923076923 17.7507692307692  29.2507692307692 17.7507692307692  L 28.7153846153846 17.7507692307692  C 27.9030769230769 17.7507692307692  27.6476923076923 18.5861538461538  27.6476923076923 19.0292307692308  L 27.6446153846154 19.6784615384615  L 27.64 19.6784615384615  L 27.64 19.9846153846154  C 27.64 24.0861538461538  24.0692307692308 27.4107692307692  19.6615384615385 27.4107692307692  C 18.8784615384615 27.4107692307692  18.1369230769231 27.2738461538462  17.4230769230769 27.0769230769231  L 16.16 28.7969230769231  C 16.6507692307692 28.9430769230769  17.1507692307692 29.0784615384615  17.6707692307692 29.1630769230769  L 17.6707692307692 33.8446153846154  L 21.6615384615385 33.8446153846154  L 21.6615384615385 29.1630769230769  C 26.5846153846154 28.3615384615385  30.3123076923077 24.66  30.3123076923077 20.2015384615385  L 30.3123076923077 20.0415384615385  L 30.3169230769231 19.0292307692308  Z " fill-rule="nonzero" fill="#000000" stroke="none" transform="matrix(1 0 0 1 644 695 )" />
  </g>
</svg>