<?xml version="1.0" encoding="utf-8"?>
<svg version="1.1" xmlns:xlink="http://www.w3.org/1999/xlink" width="60px" height="60px" xmlns="http://www.w3.org/2000/svg">
  <g transform="matrix(1 0 0 1 -2218 -1530 )">
    <path d="M 19.6000000195313 5.20000001953125  C 22.8 3.8000000390625  26.4 3  30 3  C 33.6 3  37.2 3.79999998046875  40.3999999804687 5.20000001953125  C 43.5999999609375 6.6  46.3999999804687 8.4  49.0000000195312 10.9999999804688  C 51.4000000195312 13.3999999804688  53.4 16.3999999804687  54.7999999804687 19.6000000195313  C 56.1999999609375 23.0000000390625  57 26.4  57 30  C 57 33.6  56.2000000195312 37.2  54.7999999804687 40.3999999804687  C 53.4 43.5999999609375  51.6 46.3999999804687  49.0000000195312 49.0000000195312  C 46.6000000195312 51.4000000195312  43.6000000195313 53.4  40.3999999804687 54.7999999804687  C 36.9999999609375 56.1999999609375  33.6 57  30 57  C 26.4 57  22.8 56.2000000195312  19.6000000195313 54.7999999804687  C 16.4000000390625 53.4  13.6000000195312 51.6  10.9999999804687 49.0000000195312  C 8.39999994140625 46.4000000390625  6.6 43.6000000195313  5.20000001953125 40.3999999804687  C 3.8000000390625 36.9999999609375  3 33.6  3 30  C 3 26.4  3.79999998046875 22.8  5.20000001953125 19.6000000195313  C 6.6 16.4000000390625  8.4 13.6000000195312  10.9999999804687 10.9999999804687  C 13.5999999609375 8.39999994140625  16.3999999804687 6.6  19.6000000195313 5.20000001953125  Z M 60 30  C 60 13.3999999804687  46.6000000195312 0  30 0  C 13.3999999804687 0  0 13.3999999804687  0 30  C 0 46.6000000195313  13.3999999804687 60  30 60  C 46.6000000195313 60  60 46.6000000195313  60 30  Z " fill-rule="nonzero" fill="#999999" stroke="none" transform="matrix(1 0 0 1 2218 1530 )" />
  </g>
</svg>