<?xml version="1.0" encoding="utf-8"?>
<svg version="1.1" xmlns:xlink="http://www.w3.org/1999/xlink" width="60px" height="60px" xmlns="http://www.w3.org/2000/svg">
  <g transform="matrix(1 0 0 1 -2028 -1530 )">
    <path d="M 59.9998999804687 30.0574498828125  C 59.9998999804687 46.5899223632813  46.6174222851563 59.9699000390625  30.0524499023437 59.9998999804687  C 17.89997015625 60.029899921875  6.9449883984375 52.709912109375  2.29499619140625 41.489930859375  C -2.354996015625 30.269949609375  0.1924996875 17.3674710351562  8.7749853515625 8.78748533203125  C 17.357471015625 0.207499628906251  30.28994953125 -2.37249603515625  41.4849308789063 2.307496171875  C 52.7024482359426 6.95972859104389  60.0108745891768 17.9134867037123  59.9998999804687 30.0574498828125  Z M 36.6849388476562 16.7074721484375  L 36.6524388867187 16.7074721484375  L 35.72244046875 16.8274719726562  C 35.15244140625 16.947471796875  34.58244234375 17.1274714453125  34.04244328125 17.33747109375  C 31.9090607161709 18.270078195045  30.3334487708054 20.145278327358  29.7824503710937 22.40746265625  C 29.4824508984375 23.5774607226562  29.4824508984375 24.807458671875  29.7824503710937 25.9474567382813  C 28.6424522460937 25.9474567382813  27.5024541796875 25.7974569726562  26.4224559375 25.4974575  C 23.0543042524756 24.7457022297514  19.9093194625462 23.2147376688289  17.2399712695312 21.0274649414063  C 16.4189422037811 20.3835924104437  15.6733715037856 19.6489243243055  15.017475 18.8374686328125  C 14.7644046989413 18.5880047668362  14.5335334101218 18.3169819631647  14.3274761132812 18.0274699804687  C 13.976457873253 18.6407755206979  13.7043048174821 19.2959587907138  13.5174774609375 19.9774666992187  C 12.9499530401203 22.4043402919737  13.5740288895175 24.9563647755291  15.1974746484375 26.8474552734375  C 15.5874740039062 27.327454453125  16.1874730078125 27.627453984375  16.5774723632812 28.04745328125  C 16.2354579803449 28.1072908792407  15.883726095479 28.0762557016378  15.5574740625 27.9574533984375  C 15.0123092245977 27.8674084850829  14.4789722050868 27.7164640507904  13.9674766992187 27.5074541601562  L 13.157478046875 27.2074546289062  C 13.0645675201939 29.8520778534311  14.4219115826196 32.3367076412928  16.6974721875 33.6874438476562  C 17.417471015625 34.22744296875  18.257469609375 34.5574423828125  19.1574680859375 34.6774422070312  C 18.67746890625 35.0974415039062  16.547472421875 34.917441796875  15.7974736523437 34.8274419726562  C 16.547472421875 37.1074381640625  18.3174694335937 38.877435234375  20.569965703125 39.6574338867187  C 21.28996453125 39.9274334179687  22.0399632421875 40.0474332421875  22.7899620117187 40.0474332421875  C 22.1668948236256 40.5697331316656  21.4817103934492 41.0130877733752  20.7499654101562 41.3674310742187  C 19.3398322204691 42.1369707968732  17.8233225401515 42.6930243450066  16.2499729101562 43.0174283203125  C 15.5599740820312 43.1674280859375  14.8399752539062 43.1374281445312  14.0599765429687 43.2574279101562  C 13.2591314455992 43.3173783278703  12.4540864986849 43.287189130814  11.6599805859375 43.1674280273437  L 12.3199794726562 43.5574273828125  C 13.0099783007812 43.9774266796875  13.6999771875 44.33742609375  14.4499758984375 44.637425625  C 15.8899734960937 45.2374246289062  17.3599710351562 45.7174238085937  18.8599685742187 46.0774232226562  C 22.39996265625 46.8274219921875  26.0924565234375 46.7074221679687  29.5724507226562 45.7174238085937  C 37.4349376171875 43.2574279101562  42.414929296875 37.4974375195312  44.3074261523437 29.007451640625  C 44.607425625 27.4174542773437  44.7274254492187 25.76745703125  44.6674255664062 24.1474597265625  L 45.8674235742187 23.1574614257812  C 46.8646961162928 22.3155847939189  47.7249745359612 21.3237343576308  48.417419296875 20.2174662890625  C 47.0630736031784 20.815928267564  45.6274578194427 21.2102171141648  44.1574263867187 21.3874643554687  C 44.457425859375 21.2374645898437  44.7274254492187 21.0274649414062  44.9974249804687 20.7874653515625  C 46.1374231054687 19.857466875  46.9774216992187 18.6274689257812  47.4274209375 17.2474712695312  L 46.4974225195312 17.757470390625  C 45.2797953058323 18.4050779406025  43.9610622586621 18.8412742703787  42.5974290234375 19.04746828125  C 41.0706652620447 17.426956770512  38.9082938746779 16.5601795672188  36.6849388476562 16.6774722070312  L 36.6849388476562 16.7074721484375  Z " fill-rule="nonzero" fill="#2fb0ec" stroke="none" transform="matrix(1 0 0 1 2028 1530 )" />
  </g>
</svg>