<?xml version="1.0" encoding="utf-8"?>
<svg version="1.1" xmlns:xlink="http://www.w3.org/1999/xlink" width="60px" height="60px" xmlns="http://www.w3.org/2000/svg">
  <g transform="matrix(1 0 0 1 -2313 -1530 )">
    <path d="M 51.0934000195313 51.0934000195312  C 45.4788 56.7078  37.9876000195312 59.8000000195313  30.0001999804688 59.8000000195313  C 22.0125999609375 59.8000000195313  14.5213999804688 56.7078  8.90680001953125 51.0934000195313  C 3.29200001953125 45.4788  0.19999998046875 37.9876000195312  0.19999998046875 30.0001999804688  C 0.19999998046875 22.0125999609375  3.2919999609375 14.5213999804688  8.90680001953125 8.90680001953125  C 14.5213999804688 3.29200001953125  22.0126000195313 0.19999998046875  30.0001999804688 0.19999998046875  C 37.9877999414063 0.19999998046875  45.4788 3.2919999609375  51.0934000195312 8.90680001953125  C 56.7078 14.5213999804688  59.8000000195313 22.0126000195313  59.8000000195313 30.0001999804688  C 59.8000000195313 37.9877999414063  56.7078 45.4788  51.0934000195313 51.0934000195312  Z M 27.7698 25.1352  C 27.4093999804687 24.7756000195313  26.9418 24.5772  26.4523999804688 24.5772  C 25.9629999609375 24.5772  25.4953999804688 24.7756000195313  25.1353999804687 25.1353999804687  C 21.9933999609375 28.4139999609375  21.9975999609375 33.627  25.1356000195312 36.7651999804688  L 33.3712000195313 45.0006  C 34.9648000195313 46.5282  37.0434 47.3644000195313  39.2335999804688 47.3644000195313  C 41.4283999804688 47.3644000195313  43.4766 46.5250000195313  45.0007999804687 45.0006  C 48.1429999804688 41.7222  48.1387999804687 36.5092000195313  45.0007999804687 33.3712000195313  L 40.3129999804687 28.6831999804688  C 39.9528 28.3233999609375  39.4851999609375 28.1247999609375  38.9959999804687 28.1248000195313  C 38.5069999804687 28.1248000195313  38.0391999609375 28.3232000390625  37.6792000195312 28.6831999804688  C 37.3190000390625 29.043  37.1208 29.5107999609375  37.1208 30  C 37.1208 30.4891999804688  37.3189999804687 30.957  37.6792000195312 31.317  L 42.3670000195312 36.0046000195313  C 43.2324 36.8702000390625  43.7092000195312 38.0002000195312  43.7092000195312 39.1855999804688  C 43.7092000195312 40.3716  43.2324 41.5009999804688  42.3670000195312 42.3666  C 41.5012000195312 43.2322000195313  40.3716 43.7089999804688  39.186 43.7089999804688  C 38.0004 43.7089999804688  36.8707999804687 43.2321999609375  36.0052000195312 42.3666  L 27.7698 34.131  C 26.904 33.2653999804688  26.4274000195312 32.1358000195313  26.4274000195312 30.9502000195313  C 26.4274000195312 29.7646000195313  26.904 28.6348000195313  27.7698 27.7693999804688  C 28.5079999804687 27.0303999609375  28.5079999804687 25.8735999609375  27.7698 25.1352  Z M 16.3798000195313 16.3522000195312  C 17.2318000195313 15.5006000390625  18.3614000390625 15.024  19.5472000195312 15.024  C 20.7328000195313 15.024  21.8628 15.5005999804688  22.7284000195313 16.3662  L 30.9640000195313 24.6018  C 32.7476000390625 26.3854000195313  32.7476000390625 29.1799999804688  30.9640000195313 30.9640000195313  C 30.6040000195312 31.3238000390625  30.4056 31.7914000195312  30.4056 32.2810000195312  C 30.4056 32.7700000195313  30.6040000195312 33.2380000195313  30.9642 33.5977999804687  C 31.3237999804687 33.9576  31.7916 34.1559999609375  32.2807999804687 34.1560000195312  C 32.7697999804687 34.1560000195312  33.2377999804688 33.9578000390625  33.5976 33.5976  C 36.7399999804688 30.3192  36.7357999804688 25.1062000195313  33.5976 21.9682000195312  L 25.362 13.7323999804688  C 23.7684 12.2047999804687  21.6898000195313 11.3685999609375  19.4998000195313 11.3686000195313  C 17.3050000195313 11.3686000195313  15.2568 12.2080000195313  13.7326000195313 13.7323999804688  C 10.5904000195313 17.0107999804688  10.5944000390625 22.2237999609375  13.7326000195313 25.362  L 18.4206 30.0499999804688  C 18.7804000195313 30.4099999804688  19.248 30.6084  19.7374000195313 30.6084  C 20.2268000390625 30.6084  20.6946 30.4099999804688  21.0544000195313 30.0499999804688  C 21.7926 29.3113999804688  21.7926 28.1544  21.0544000195313 27.4162000195312  L 16.3662 22.7281999804687  C 14.7001999804688 20.9508  14.7001999804688 18.1437999609375  16.3798000195313 16.3522000195312  Z " fill-rule="nonzero" fill="#aeaeae" stroke="none" transform="matrix(1 0 0 1 2313 1530 )" />
  </g>
</svg>