<?xml version="1.0" encoding="utf-8"?>
<svg version="1.1" xmlns:xlink="http://www.w3.org/1999/xlink" width="28px" height="28px" xmlns="http://www.w3.org/2000/svg">
  <g transform="matrix(1 0 0 1 -2234 -1546 )">
    <path d="M 17.1999999804688 17.1999999804688  C 18.2 16.4  18.5999999609375 15.2  18.6000000195313 14  C 18.6000000195313 12.8  18.2 11.6  17.1999999804688 10.8000000195313  C 16.4 10.0000000390625  15.2 9.4000000390625  14 9.39999998046875  C 12.8 9.399999921875  11.6 9.8  10.8000000195313 10.8000000195313  C 10.0000000390625 11.6  9.4000000390625 12.8  9.39999998046875 14  C 9.39999998046875 15.2  9.8 16.4  10.8000000195313 17.1999999804688  C 11.6 17.9999999609375  12.8 18.5999999609375  14 18.6000000195313  C 15.2 18.6000000195313  16.4 18.2  17.1999999804688 17.1999999804688  Z M 18.9999999804688 9.00000001953125  C 20.3999999609375 10.4000000585938  20.9999999609375 12.0000000195312  21.0000000195312 14  C 21.0000000195312 15.9999999804688  20.4000000195312 17.6  18.9999999804688 18.9999999804688  C 17.5999999414063 20.3999999609375  15.9999999804688 20.9999999609375  14 21.0000000195312  C 12.0000000195312 21.000000078125  10.4 20.4000000195312  9.00000001953125 18.9999999804688  C 7.6000000390625 17.5999999414063  7.0000000390625 15.9999999804688  6.99999998046875 14  C 6.999999921875 12.0000000195312  7.59999998046875 10.4  9.00000001953125 9.00000001953125  C 10.4000000585938 7.6000000390625  12.0000000195312 7.0000000390625  14 6.99999998046875  C 15.9999999804688 6.999999921875  17.6 7.59999998046875  18.9999999804688 9.00000001953125  Z M 22.5999999804688 5.40000001953125  C 22.7999999609375 5.8000000390625  23 6.2  23 6.60000001953125  C 23 7.0000000390625  22.8000000195313 7.4  22.5999999804688 7.80000001953125  C 22.1999999609375 8.2000000390625  21.8 8.2000000390625  21.3999999804687 8.19999998046875  C 20.9999999609375 8.19999998046875  20.6 8  20.1999999804687 7.80000001953125  C 19.7999999609375 7.4  19.7999999609375 7.0000000390625  19.8000000195312 6.60000001953125  C 19.8000000195312 6.2  20 5.8000000390625  20.1999999804687 5.40000001953125  C 20.6 5  20.9999999609375 5  21.3999999804687 5  C 21.8 5  22.1999999609375 5.19999998046875  22.5999999804688 5.40000001953125  Z M 18.9999999804688 2.59999999999999  L 14 2.6  L 9.00000001953125 2.6  C 8.2000000390625 2.6  7.6000000390625 2.6  7.20000001953125 2.79999998046875  C 6.60000001953125 2.79999998046875  6.2 2.9999999609375  6.00000001953125 3.2  C 5.40000001953125 3.39999998046875  4.80000001953125 3.8  4.4 4.20000001953125  C 3.99999998046875 4.6000000390625  3.60000001953125 5.2000000390625  3.39999998046875 5.79999998046875  C 3.2 6.2  3.2 6.5999999609375  3.00000001953125 6.99999998046875  C 2.8000000390625 7.40000000000001  2.8000000390625 8.19999998046875  3 8.79999998046875  L 3 18.8  C 2.79999998046875 19.5999999804687  2.79999998046875 20.1999999804687  3.00000001953125 20.6  C 3.00000001953125 21.2  3.2 21.6000000195313  3.39999998046875 21.8  C 3.5999999609375 22.4  3.99999998046875 23  4.4 23.4000000195312  C 4.80000001953125 23.8000000390625  5.40000001953125 24.2  6.00000001953125 24.3999999804687  C 6.4000000390625 24.5999999609375  6.8 24.5999999609375  7.20000001953125 24.8  C 7.80000001953125 24.8  8.40000001953126 24.9999999804688  9.00000001953125 24.9999999804688  L 18.9999999804688 24.9999999804688  C 19.7999999609375 24.9999999804688  20.3999999609375 24.9999999804688  20.7999999804688 24.8  C 21.3999999804688 24.8  21.8 24.6000000195313  21.9999999804688 24.3999999804687  C 22.5999999804688 24.2  23.1999999804688 23.7999999804687  23.6 23.4000000195312  C 24.0000000195312 23.0000000585937  24.3999999804687 22.4  24.6000000195313 21.8  C 24.8 21.3999999804687  24.8 21.0000000195312  24.9999999804688 20.6  C 24.9999999804688 20  25.1999999609375 19.4  25.2000000195313 18.8  L 25.2000000195313 17  L 25.2000000195313 15.2  L 25.2000000195313 13.8000000195312  L 25.2000000195313 12.3999999804687  L 25.2000000195313 10.5999999804687  L 25.2000000195313 8.79999998046874  C 25.2000000195313 7.99999999999999  25.2000000195313 7.4  24.9999999804688 6.99999998046874  C 24.9999999804688 6.39999998046874  24.8 5.99999996093749  24.6000000195313 5.79999998046874  C 24.4000000390625 5.19999998046874  24.0000000195313 4.59999998046874  23.6 4.20000001953124  C 23.1999999804687 3.79999999999999  22.5999999804688 3.40000003906249  21.9999999804688 3.19999999999999  C 21.5999999609375 3.00000001953124  21.2 3.00000001953124  20.7999999804688 2.79999998046874  C 20.3999999609375 2.59999994140624  19.5999999804688 2.59999999999999  18.9999999804688 2.59999999999999  Z M 27.8 8.19999998046875  L 27.8 14  L 27.8 19.8000000195313  C 27.6000000195313 22.2000000195313  27.0000000195312 24.2  25.5999999804688 25.5999999804688  C 24.2 26.9999999609375  22.4 27.8  19.8000000195313 27.8  L 8.19999998046875 27.8  C 5.79999998046875 27.6000000195313  3.8 27.0000000195312  2.40000001953125 25.5999999804688  C 1.0000000390625 24.2  0.199999999999999 22.4  0.199999999999999 19.8000000195313  L 0.199999999999999 14  L 0.199999999999999 8.19999998046875  C 0.399999980468749 5.79999998046875  0.999999980468747 3.8  2.40000001953125 2.40000001953125  C 3.8 1.0000000390625  5.6 0.199999999999999  8.19999998046875 0.199999999999999  L 19.8000000195313 0.199999999999999  C 22.2000000195313 0.399999980468749  24.2 0.999999980468747  25.5999999804688 2.40000001953125  C 26.9999999609375 3.80000005859375  27.8 5.6  27.8 8.19999998046875  Z " fill-rule="nonzero" fill="#999999" stroke="none" transform="matrix(1 0 0 1 2234 1546 )" />
  </g>
</svg>