<?xml version="1.0" encoding="utf-8"?>
<svg version="1.1" xmlns:xlink="http://www.w3.org/1999/xlink" width="46px" height="13px" xmlns="http://www.w3.org/2000/svg">
  <g transform="matrix(1 0 0 1 -2225 -1440 )">
    <path d="M 23.0972655078125 5.52406955078125  L 23.154628671875 5.52406955078125  C 23.154628671875 5.52406955078125  30.68508640625 5.60287802734375  36.6965033984375 3.05212005859375  C 42.707920390625 0.501362089843749  42.6506157617188 0.186128183593748  43.309794453125 0.186128124999996  C 43.9689731445313 0.186128066406248  44.7428196875 1.1318884375  45.0724090625 2.8371398828125  C 45.4019984375 4.542391328125  45.7888923828125 5.8894596484375  44.3559257421875 6.72775919921875  C 42.9229591015625 7.56605875  33.7516443945313 12.9685117773437  23.3839056640625 12.9685117773437  L 22.8679884570313 12.9685117773437  C 12.5001911328125 12.9685117773437  3.30034132812501 7.5589103125  1.89596843750001 6.72775919921875  C 0.49159554687501 5.89660808593749  0.878548027343759 4.57825064453124  1.17948511718751 2.83713988281249  C 1.48042220703126 1.09602912109375  2.28286238281251 0.186128124999993  2.94209966796876 0.186128124999993  C 3.60133695312501 0.186128124999993  3.53676675781251 0.472709746093741  9.55539078125001 3.05212005859374  C 15.5740148046875 5.63153037109375  23.0972655078125 5.52406955078125  23.0972655078125 5.52406955078125  Z " fill-rule="nonzero" fill="#ff3a2f" stroke="none" transform="matrix(1 0 0 1 2225 1440 )" />
  </g>
</svg>