<?xml version="1.0" encoding="utf-8"?>
<svg version="1.1" xmlns:xlink="http://www.w3.org/1999/xlink" width="36px" height="29px" xmlns="http://www.w3.org/2000/svg">
  <g transform="matrix(1 0 0 1 -2326 -1433 )">
    <path d="M 35.0573605273438 7.16827244140625  C 35.232130859375 7.88976025390625  35.2978564648438 8.72477404296875  35.2575248046875 9.67331392578125  C 35.2062402726691 10.6879945688343  35.0255255690283 11.6919651686826  34.7197699414062 12.660841015625  C 34.5883187304687 13.5705430273437  34.1506460351563 14.024647109375  33.4082455859375 14.024647109375  C 33.1438494335938 14.024647109375  32.9123161132813 13.9917843359375  32.7121517773437 13.9260587304688  C 32.5171986537289 13.8616365410366  32.3446489405288 13.742976213228  32.214728515625 13.5839868359375  C 32.0785889259925 13.4135707776291  32.0080964133099 13.1999731693265  32.01605796875 12.98200015625  C 32.01605796875 12.8744491601563  32.0280081054687 12.7474792578125  32.05489578125 12.6010904492188  C 32.0817834570313 12.454701640625  32.10867125 12.3337067773437  32.1355590429688 12.2410934375  C 32.1624467773438 12.1469863085938  32.1893345117188 12.0469041992188  32.214728515625 11.9408469921875  C 32.2295213809974 11.8727019353149  32.2494962849552 11.8057859620034  32.2744790234375 11.74068265625  C 32.2874860979447 11.715732301298  32.2946379624472 11.6881465353547  32.29539171875 11.6600193945313  C 32.719620546875 10.1886623046875  32.5866756054687 8.66352974609375  31.8965568945312 7.08611544921875  C 31.5644333181866 6.53722198139981  31.1566086046686 6.03787558433746  30.6851146484375 5.60280828125  C 30.2659053712861 5.20977689625504  29.7974268633143 4.87285398237281  29.2914332421875 4.6004929296875  C 28.8431113730518 4.36522777782517  28.3777375201619 4.16399853468586  27.899245625 3.99850625  C 27.4876288542643 3.85097945517417  27.0607113983827 3.75026299816869  26.626559140625 3.69825974609375  C 26.3026517188733 3.66168234799559  25.9770816583725 3.64173932393036  25.6511315234375 3.63850923828125  C 25.3837478515625 3.63850923828125  25.20599 3.65942193359375  25.1133766601563 3.69825974609375  C 25.0091709818219 3.74330145523187  24.903008292723 3.78367318923167  24.7952050390625 3.819254609375  C 24.6850316412508 3.85697627851492  24.5714783068651 3.88398897679498  24.4561207226563 3.89991787109375  C 24.3515572460938 3.91485552734375  24.2514751367188 3.93427443359375  24.1573680078125 3.95966837890625  C 24.0991511979739 3.97919707941731  24.0390872183475 3.99271146894312  23.9781163671875 3.99999998046875  L 23.8571215039063 3.99999998046875  C 23.4975358390967 4.00368296417626  23.1524979832094 3.85820463724141  22.9041003710938 3.59817763671875  C 22.6389025435045 3.33318398738028  22.4946308000977 2.97061343639532  22.5052654882813 2.59586228515625  C 22.5052654882813 2.30159087890625  22.597878828125 2.02673837890625  22.7831055078125 1.7742923046875  C 22.9555347336567 1.52776481315311  23.2094560370809 1.3500199152815  23.5001120117188 1.27238779296875  L 23.540443671875 1.23205619140625  L 23.5807752734375 1.1513929296875  C 23.6076630078125 1.1245051953125  23.6345507421875 1.111061328125  23.6599447460938 1.111061328125  C 25.6227500585938 0.736126660156252  27.1867204296875 0.682351191406255  28.3548435546875 0.951228593750002  L 28.353349765625 0.951228593750002  C 28.91052359375 1.08417353515625  29.4467846679688 1.25745013671875  29.965120625 1.47105833984375  C 30.4834565820313 1.6861602734375  31.01971765625 1.97296291015625  31.576891484375 2.33445365234375  C 32.1340653125 2.695944453125  32.6374636132813 3.097766796875  33.0885801757813 3.5384270703125  C 33.5396967382813 3.98058107421875  33.937037890625 4.51534841796875  34.2820972460938 5.1427291015625  C 34.6256628710938 5.77160357421875  34.8840839257813 6.4467846875  35.0573605273438 7.16827244140625  Z M 30.2056165625 19.2363880859375  C 30.1921726953125 20.0639331054688  29.9591455859375 20.9482411132813  29.5080289648438 21.8833370703125  C 28.765628515625 23.4876391015625  27.4854731445313 24.8648890625  25.6690566992187 26.0150870117187  C 23.8631978546879 27.1610866560709  21.8709027614903 27.9825734676425  19.782134609375 28.4424527539063  C 17.6744342773438 28.9100007617187  15.63843453125 29.0638583984375  13.6771230078125 28.9025319335938  C 12.5360574472383 28.829146254687  11.4003167994523 28.6884879954521  10.2758234375 28.481290625  C 9.12874309327477 28.2607677530885  8.0035054290571 27.9388427931353  6.91336173828125 27.519306875  C 5.83215773421623 27.1224755740506  4.80883482452895 26.58293272101  3.870565390625 25.91500484375  C 3.00866380859375 25.2876241601563  2.2647695703125 24.4645604492188  1.6418701953125 23.4473075  C 1.00665007692068 22.3955916613744  0.606147840188513 21.2190526742651  0.467772031250002 19.9982075  L 0.467772031250002 19.1572186132813  C 0.443871816406253 18.5686758007813  0.642542363281251 17.699305390625  1.06677125 16.5491075  C 1.491000078125 15.3989095507813  2.13929345703125 14.250205390625  3.01463890625 13.1000074414063  L 3.4523116015625 12.4576891601563  C 3.77048322265625 12.057360546875  4.22159984375 11.5360370703125  4.80566134765625 10.8937187304688  C 5.38822912109375 10.2528941796875  6.03204119140625 9.58966314453126  6.73411009765625 8.90850699218751  C 7.4361789453125 8.22735083984376  8.2652176953125 7.57158863281251  9.22122640625 6.94420794921876  C 10.0999045897346 6.35363130992721  11.0487933507969 5.87492168314158  12.0459332421875 5.51915750000001  C 12.712870598967 5.27514579287544  13.4071473260892 5.11361610581697  14.1133019726562 5.03816568359376  C 14.7242512695312 4.98439021484376  15.2201807421875 5.02472181640626  15.6055717578125 5.15766675781251  C 15.989468984375 5.29210548828126  16.3076406054687 5.46538203125001  16.5600866210937 5.67899023437501  C 16.8125326367187 5.89259843750001  17.0037344140625 6.17342597656251  17.1366793554688 6.52147285156251  C 17.2681305664062 6.86802599609376  17.3547688085938 7.18321009765626  17.39510046875 7.46254390625001  C 17.4354320703125 7.74337144531251  17.4548510351562 8.04511167968751  17.4548509765625 8.36477703125001  C 17.4279632421875 8.49772197265626  17.3891253710938 8.67846740234376  17.3353499023438 8.90551947265627  C 17.2641448487597 9.19532952857769  17.2176713234344 9.49066133624227  17.196429921875 9.78833369140626  C 17.1844797851562 9.93621628906251  17.20389875 10.0288296289063  17.2561804296875 10.0691612304688  C 17.3241735246655 10.1174421809691  17.3973183621373 10.1580225350626  17.4742699414062 10.19015609375  C 17.6028232277904 10.2333516636099  17.7407389692686 10.2405832033482  17.873104765625 10.2110687890625  C 18.0463813085938 10.1841810546875  18.2644708203125 10.1304055859375  18.5303607617188 10.0512361132813  L 19.0472029296875 9.80924638671877  C 19.3922622851562 9.67480765625002  19.8299350390625 9.53588767578126  20.3602210742188 9.38800507812502  C 20.890507109375 9.24012248046877  21.4536559765625 9.12062140625001  22.0496676171875 9.02651427734376  C 22.6432041362255 8.93412418854663  23.2479809742356 8.94119169948851  23.839196328125 9.04742697265627  C 24.43520796875 9.15497796875002  24.9191873632813 9.39547384765627  25.2911345117188 9.77040851562502  C 25.5017551953125 9.98551044921876  25.6675629101563 10.2260063867188  25.7885577734375 10.491896328125  C 26.0141227558059 10.9452611110049  26.1043565407968 11.4539929979259  26.0484726171875 11.9572783789063  C 26.0230786132813 12.2112181835938  25.9902158398438 12.4263201171875  25.9498842382813 12.5981029296875  C 25.9076594048943 12.7774177190748  25.8476101428758 12.9520609743964  25.7706325976563 13.11942640625  C 25.7199253496228 13.2346337713229  25.6666343257537 13.3486865348444  25.610799921875 13.4614982421875  C 25.5902624341257 13.5053695666932  25.5636072384754 13.5461067554763  25.5316304492188 13.5824931054688  L 25.412129375 13.7826573828125  C 25.3329599023438 13.9170961132813  25.3523788085938 14.063484921875  25.4718798828125 14.22331765625  C 25.5913809570313 14.3831503320313  25.8498020703125 14.5026514648438  26.248636953125 14.5848083984375  L 26.248636953125 14.5818208789063  C 26.56531484375 14.6355963476563  26.9312868945313 14.755097421875  27.3405780664063 14.9433116796875  C 27.7528568164063 15.1300321484375  28.18903578125 15.4243035546875  28.6535962109375 15.8276196875  C 29.1166629101563 16.2279483007813  29.4945850976563 16.6895212695313  29.7873627734375 17.2108447460938  C 30.0801404492188 17.7306744335938  30.2175666992188 18.4073493359375  30.2056165625 19.2363880859375  Z M 24.4217641601563 19.3588766796875  C 24.4202703710938 17.4603032421875  23.42542390625 15.9635521484375  21.4372245898438 14.8671297265625  C 19.4475315429687 13.769213515625  17.0082157226562 13.2897154296875  14.11778328125 13.4241541601562  C 11.2273508398438 13.558592890625  8.7880349609375 14.3144372070313  6.79983570312501 15.6916872265625  C 4.81014265625001 17.0674434570312  3.81678992187501 18.7061020507812  3.81678992187501 20.6046754882812  C 3.81529613281251 22.5301366601563  4.81761148437501 24.1209948828125  6.819254609375 25.3772499804688  C 8.82089773437501 26.6335051367187  11.2542385742188 27.1966539453125  14.11778328125 27.0622152734375  L 14.1192770117188 27.060721484375  C 16.9305399804688 26.9277765429688  19.3489431640625 26.0912689648437  21.3789678125 24.5541862695313  C 23.407498671875 23.0171035742188  24.4217641601563 21.2843379101563  24.4217641601563 19.3588766796875  Z M 26.8013294726563 6.12114423828124  C 29.2451266015625 6.54985437499999  30.3056987304688 8.28859513671874  29.9875270507813 11.3373665234375  C 29.9875270507813 11.3911419921875  29.9740831835938 11.4314736523437  29.9471954492188 11.458361328125  C 29.890162209693 11.7418712358622  29.7174598389975 11.9887436049894  29.4706848828125 12.1395175390625  C 29.3386177135962 12.2191468508066  29.1872273873398 12.2609987715527  29.0330121875 12.26051234375  L 29.0315183984375 12.2575248242187  C 28.7771702140235 12.2612941173468  28.5324686304584 12.1602804449759  28.3548435546875 11.9781910742187  C 28.171981354726 11.7986267411601  28.0709764519504 11.5517859047119  28.0755097460938 11.2955411328125  C 28.181566953125 10.8952125195312  28.2099484765625 10.4665023828125  28.15467921875 10.0123982421875  C 27.9963402734375 8.19299427734375  26.8819926757813 7.52528193359375  24.81313015625 8.00627380859375  C 24.5586284184231 8.0092987396849  24.3140282636472 7.90778697202502  24.1364553125 7.72544626953125  C 23.9536741890313 7.54644217925605  23.8526464068418 7.30008569365044  23.8571215039063 7.04429011718749  C 23.8571215039063 6.88445744140624  23.9034281445313 6.73059974609374  23.9960415429688 6.58271714843749  C 24.0842255087022 6.4411153954293  24.1994484957605 6.3182785637226  24.335125859375 6.22122640625  C 24.4754113610351 6.1258284514956  24.642036558856 6.07672884376901  24.8116364257813 6.08081257812499  C 25.4718677023017 5.97408649695349  26.1459654919551 5.98775065636093  26.8013294726563 6.12114423828124  Z M 18.6334304492188 19.3768018554688  C 18.8022257421875 20.059451796875  18.8276196875 20.7346329101563  18.70961234375 21.4023451953125  C 18.6146065673391 22.0184162252928  18.3608031064948 22.599126799453  17.9731869335938 23.0873104882812  C 17.0455598046875 24.29128390625  15.8251549414063 25.059078359375  14.3149600390625 25.3936813671875  C 12.8032713476563 25.728284375  11.1735753125 25.4668758007813  9.42139068359376 24.6109492578125  C 9.13672005912359 24.455838317366  8.88100674864719 24.2526826917348  8.66554636718751 24.0104563671875  C 8.48216932097124 23.8127644092956  8.32868020054881 23.5893245260354  8.20994843750001 23.3472253320313  C 8.11276770374505 23.1353428451741  8.03913256072078 22.9134355207464  7.99036525390626 22.6854880859375  C 7.94993441595323 22.5277865960075  7.92344265807836 22.3668366759845  7.91119578125001 22.2044962109375  L 7.91119578125001 22.0446635351563  L 7.87086412109376 21.7235043945313  C 7.86937033203126 21.5367839257813  7.88281425781251 21.2753753515625  7.91119578125001 20.942266015625  C 7.93808351562501 20.6076630078125  7.99783408203126 20.2416908984375  8.09044736328126 19.838374765625  C 8.18306070312501 19.4380461523438  8.34886847656251 19.0302487109375  8.58936441406251 18.6149824414063  C 8.82836656250002 18.2012099609375  9.12114423828126 17.8128314257813  9.46470986328126 17.451340625  C 9.80827548828126 17.0913436132813  10.2862797851563 16.7701844726563  10.8957352929688 16.4893569335938  C 11.5066845898438 16.210023125  12.1953095703125 16.0277840234375  12.9645978125 15.9471207617188  L 12.9631040234375 15.94562703125  C 14.0505638867188 15.8126820898438  15.012547578125 15.899320390625  15.8475614257813 16.2070356054688  C 16.6825752148438 16.5147508789063  17.3129434765625 16.9494360546875  17.7371723046875 17.5125849804688  C 18.1614011328125 18.0742400585938  18.4601538476563 18.695645703125  18.6334304492188 19.3768018554688  Z M 13.442602109375 21.683172734375  C 13.4427298474777 21.506769613913  13.4155192166165 21.331412162321  13.36193890625 21.163343046875  C 13.3094550337451 21.005308116803  13.2209915294143 20.8616188445766  13.1035177929688 20.74359546875  C 12.8386166626491 20.4654736721529  12.4895384802022 20.2822732385427  12.1101650585938 20.2222719921875  C 11.8803729981743 20.1816075063414  11.6458900312241 20.1745629517379  11.41407125 20.201359296875  C 11.0690118945313 20.22824703125  10.7568153125 20.3417730664062  10.4804690234375 20.5434311914062  C 10.2111910006225 20.7335083261541  9.98684263410546 20.980291533323  9.82321308593751 21.266412734375  C 9.66764691767444 21.5271372011205  9.5846148323962 21.8247118146653  9.58271714843751 22.1283143164063  C 9.58027091987947 22.3796042046943  9.65710681436915 22.6252699821262  9.802300390625 22.8303831640625  C 9.86802599609375 22.9215027148438  9.939726640625 23.01560984375  10.02038984375 23.1097169140625  C 10.1014081902907 23.2056591385771  10.2037075722354 23.2813606888404  10.3191425585938 23.3307939453125  C 10.4356561132813 23.3845694140625  10.5551571875 23.4293823242188  10.6761520507813 23.4712077148438  C 10.9522079339787 23.5611992149933  11.2461968688386 23.5817219903336  11.53207859375 23.5309582226563  L 11.5335723242188 23.527970703125  C 11.8771379492188 23.50108296875  12.196803359375 23.3950257617188  12.4880872460938 23.2068115625  C 12.7793711328125 23.02009109375  13.0123982421875 22.7930390820312  13.182687265625 22.5256554101563  C 13.3559638085938 22.2582717382813  13.442602109375 21.9774441992188  13.442602109375 21.683172734375  Z M 15.29038765625 19.9190380273437  C 15.3040539496333 19.7911392667645  15.2682428799663 19.662860810759  15.1903054882813 19.5605347460937  C 15.1227272820156 19.3833311469471  14.9607808005557 19.2595577818659  14.7720516992188 19.2408693945313  C 14.5733811523438 19.2124878710937  14.3687355664063 19.279707265625  14.15662109375 19.4395399414062  L 14.0371200195313 19.5993726171875  C 13.9848457099468 19.6251631454823  13.9427581273552 19.6677768318847  13.9176189453125 19.7203674804687  L 13.8369556835938 19.88020015625  C 13.8092987098282 19.9432073140442  13.7960311830982 20.0115861826387  13.7981178710938 20.0803644921875  L 13.7981178710938 20.2401971679687  C 13.7981178710938 20.2939726367187  13.8115617382813 20.346254375  13.8369556835938 20.4000299023437  L 13.9176189453125 20.559862578125  C 13.9967884179688 20.7196952539062  14.1357083984375 20.80782734375  14.335872734375 20.8212712109375  C 14.5429939868359 20.8315418094665  14.7469646391926 20.767436730672  14.9109716796875 20.64052578125  L 14.9109716796875 20.6420195703125  C 15.0170288867188 20.5344685742187  15.1036671875 20.4209425390625  15.1693927929688 20.299947734375  C 15.2341199902499 20.1820580097784  15.2752196855133 20.0526700964628  15.29038765625 19.9190380273437  Z " fill-rule="nonzero" fill="#ffffff" stroke="none" transform="matrix(1 0 0 1 2326 1433 )" />
  </g>
</svg>