<?xml version="1.0" encoding="utf-8"?>
<svg version="1.1" xmlns:xlink="http://www.w3.org/1999/xlink" width="24px" height="24px" xmlns="http://www.w3.org/2000/svg">
  <g transform="matrix(1 0 0 1 -890 -1334 )">
    <path d="M 23.812359375 12  C 23.812359375 18.52528125  18.52528125 23.812359375  12 23.812359375  C 5.47528125 23.812359375  0.187640625 18.52528125  0.187640625 12  C 0.187640625 5.47528125  5.47528125 0.187640625  12 0.187640625  C 18.52528125 0.187640625  23.812359375 5.47528125  23.812359375 12  Z M 22.1421796875 12  C 22.1421796875 6.4128984375  17.5871015625 1.8578203125  12 1.8578203125  C 6.4128984375 1.8578203125  1.8578203125 6.4128984375  1.8578203125 12  C 1.8578203125 17.5871015625  6.4128984375 22.1421796875  12 22.1421796875  C 17.5871015625 22.1421796875  22.1421796875 17.5871015625  22.1421796875 12  Z M 12.862359375 12  L 17.437640625 7.42528125  C 17.662359375 7.2  17.662359375 6.82528125  17.437640625 6.562359375  L 17.4 6.52528125  C 17.1710574004595 6.30046403727715  16.8042238495405 6.30046403727715  16.57528125 6.52528125  L 12 11.137640625  L 7.42528125 6.562359375  C 7.19627051763459 6.33717367267932  6.82901073236542 6.33717367267933  6.6 6.562359375  L 6.562359375 6.6  C 6.337640625 6.82528125  6.337640625 7.2  6.562359375 7.462359375  L 11.138203125 12  L 6.5628984375 16.57528125  C 6.3381796875 16.8  6.3381796875 17.17528125  6.5628984375 17.437078125  L 6.6005390625 17.47528125  C 6.8258203125 17.7  7.2005390625 17.7  7.4258203125 17.47528125  L 12 12.861796875  L 16.57528125 17.437078125  C 16.8 17.661796875  17.17528125 17.661796875  17.4 17.437078125  L 17.437640625 17.3994375  C 17.662359375 17.1746953125  17.662359375 16.7994375  17.437640625 16.537078125  L 12.861796875 12  Z " fill-rule="nonzero" fill="#ffffff" stroke="none" transform="matrix(1 0 0 1 890 1334 )" />
  </g>
</svg>