<?xml version="1.0" encoding="utf-8"?>
<svg version="1.1" xmlns:xlink="http://www.w3.org/1999/xlink" width="60px" height="60px" xmlns="http://www.w3.org/2000/svg">
  <g transform="matrix(1 0 0 1 -2028 -1417 )">
    <path d="M 60 30  C 60 13.4185714453125  46.5814285546875 0  30 0  C 13.4185714453125 0  0 13.4185714453125  0 30  C 0 46.5814285546875  13.4185714453125 60  30 60  C 46.5814285546875 60  60 46.5814285546875  60 30  Z M 24.8714285742187 36.9271428515625  L 24.8714285742188 36.9285714257813  C 23.29142859375 36.9285714257813  22.0357143164062 36.6  20.454285703125 36.2714285742187  L 16.0357142578125 38.454285703125  L 17.29142859375 34.69142859375  C 14.1271428515625 32.50857140625  12.2714285742187 29.6714285742188  12.2714285742187 26.1814285546875  C 12.2714285742187 20.1814285546875  17.9428571484375 15.4914285351563  24.8714285742188 15.49142859375  C 31.0342857421875 15.49142859375  36.4900000195313 19.2542857617188  37.5799999804687 24.3271428515625  C 37.1985714257812 24.2728571484375  36.762857109375 24.2728571484375  36.3799999804687 24.2728571484375  C 30.3799999804687 24.2728571484375  25.6899999609375 28.7442857226563  25.6900000195312 34.254285703125  C 25.6900000195312 35.1828571289063  25.8528571875 36.054285703125  26.0714285742187 36.8728571484375  C 25.6342857421875 36.8728571484375  25.2528571289062 36.9271428515625  24.8714285742187 36.9271428515625  Z M 47.7271428515625 34.145714296875  C 47.7271428515625 36.9271428515625  45.8728571484375 39.4357143164062  43.30857140625 41.345714296875  L 44.2371428320312 44.50857140625  L 40.8 42.6  C 39.545714296875 42.9285714257813  38.29142859375 43.254285703125  37.0357142578125 43.254285703125  C 31.0357142578125 43.254285703125  26.3457142382812 39.1642856835937  26.345714296875 34.145714296875  C 26.345714296875 29.1271428515625  31.0357143164062 25.0357143164062  37.0357142578125 25.0357142578125  C 42.70857140625 25.0357142578125  47.7271428515625 29.1271428515625  47.7271428515625 34.145714296875  Z " fill-rule="nonzero" fill="#999999" stroke="none" transform="matrix(1 0 0 1 2028 1417 )" />
  </g>
</svg>