<?xml version="1.0" encoding="utf-8"?>
<svg version="1.1" xmlns:xlink="http://www.w3.org/1999/xlink" width="25px" height="13px" xmlns="http://www.w3.org/2000/svg">
  <g transform="matrix(1 0 0 1 -2046 -1437 )">
    <path d="M 2.67285711914062 0.617482068844005  C 1.58814454489512 0.617482068844005  0.708758749473201 1.49671599662024  0.708571406249998 2.5814285546875  C 0.708571376953124 3.66661287075172  1.5880120594204 4.546053553219  2.67285711914062 4.546053553219  C 3.75770217886084 4.546053553219  4.63714286132812 3.66661287075172  4.63714286132812 2.5817678110315  C 4.63695548880804 1.49671599662023  3.75756969338613 0.617482068844005  2.67285711914062 0.617482068844005  Z M 9.49000001953125 2.52857142578125  L 9.49142859375 2.52857142578125  C 9.49095240446135 2.54622380179771  9.49071427734375 2.56388179665429  9.49071427734375 2.58154059432755  C 9.49071427734375 3.66638565404777  10.370154959811 4.54582633651506  11.4550000195313 4.54582633651506  C 12.5398450792515 4.54582633651506  13.4192857617187 3.66638565404777  13.4192857617187 2.58154059432755  C 13.4192857617187 2.56388179665429  13.4190476346011 2.54622380179771  13.4185714453125 2.52857142578125  C 13.4183841020893 1.44385886771398  12.5389983066674 0.564624939937751  11.4542857324219 0.564624939937751  C 10.3695731581764 0.564624939937751  9.49018736275445 1.44385886771398  9.49000001953125 2.52857142578125  Z M 15.7642857128906 9.94456839823079  C 15.0109219152611 9.94456839823079  14.4001561268876 10.5552076247983  14.4 11.30857140625  C 14.3999999707031 12.06232835024  15.0108115030689 12.6731398826058  15.7642857128906 12.6731398826058  C 16.5177599227124 12.6731398826058  17.1285714550781 12.06232835024  17.1285714550781 11.3088541404183  C 17.1284152988936 10.5552076247983  16.5176495105202 9.94456839823079  15.7642857128906 9.94456839823079  Z M 21.3271428515625 11.4185714453125  L 21.3285714257812 11.4185714453125  C 21.3276191481329 11.4393638213425  21.3271428222656 11.4601752673065  21.3271428222656 11.4809894387696  C 21.3271428222656 12.2344636485913  21.9379543546314 12.845275180957  22.6914285644531 12.845275180957  C 23.4449027742749 12.845275180957  24.0557143066406 12.2344636485913  24.0557143066406 11.4809894387696  C 24.0557143066406 11.4601752673065  24.0552379807733 11.4393638213425  24.054285703125 11.4185714453125  C 24.0304625344316 10.6826672276464  23.4270040035693 10.0984281218285  22.6907142773438 10.0984281218285  C 21.9544245511182 10.0984281218285  21.3509660202559 10.6826672276464  21.3271428515625 11.4185714453125  Z " fill-rule="nonzero" fill="#999999" stroke="none" transform="matrix(1 0 0 1 2046 1437 )" />
  </g>
</svg>