<?xml version="1.0" encoding="utf-8"?>
<svg version="1.1" xmlns:xlink="http://www.w3.org/1999/xlink" width="40px" height="11px" xmlns="http://www.w3.org/2000/svg">
  <g transform="matrix(1 0 0 1 -2228 -1466 )">
    <path d="M 19.6029107421875 5.71936320312501  L 19.5957037109375 5.712214765625  C 19.5957037109375 8.62842142578126  15.3325459179688 10.9928515625  10.07341296875 10.9928515625  C 4.81428001953124 10.9928515625  0.558270664062498 8.62836283203126  0.558270664062498 5.712214765625  C 0.558270664062498 2.79606669921875  4.82142845703125 0.438785000000003  10.08056140625 0.438785000000003  C 15.3396943554688 0.438785000000003  19.6029107421875 2.80321513671875  19.6029107421875 5.71936320312501  Z M 29.8775441210938 0.438785000000003  C 24.618411171875 0.438785000000003  20.3552533789063 2.80321513671875  20.3552533789063 5.71936320312501  C 20.3552533789063 8.63551126953126  24.6183526367187 11  29.8775441210938 11  C 35.1367356054688 11  39.3998348632813 8.63556986328125  39.3998348632813 5.719363203125  C 39.3998348632813 2.80315654296874  35.1295286328125 0.438726406249998  29.8775441210938 0.438726406249998  Z " fill-rule="nonzero" fill="#ffc716" stroke="none" transform="matrix(1 0 0 1 2228 1466 )" />
  </g>
</svg>