<?xml version="1.0" encoding="utf-8"?>
<svg version="1.1" xmlns:xlink="http://www.w3.org/1999/xlink" width="52px" height="59px" xmlns="http://www.w3.org/2000/svg">
  <g transform="matrix(1 0 0 1 -2222 -1417 )">
    <path d="M 47.0334848046875 29.4124666992187  L 47.0263363671875 29.3766659765625  C 47.0263363671875 29.3766659765625  46.309794453125 28.66018265625  45.5360065625 27.9436992773438  L 45.5360065625 19.539082734375  C 45.5360065625 8.74797769111231  36.7880874944346 5.86230468779654E-05  25.9969824511719 5.86230468779654E-05  C 15.2058774079092 5.86230468779654E-05  6.45795833984375 8.74797769111231  6.45795833984375 19.539082734375  L 6.45795833984375 27.9436992773438  C 5.67696341796875 28.6601825976562  4.9604800390625 29.3766659179688  4.9604800390625 29.3766659765625  C 3.6922787890625 31.3112530078125  0.661462871093749 36.2479449609375  0.661462871093749 40.9123521679687  C 0.661462871093749 45.576759375  1.93681255859375 46.3721098242187  2.4169291015625 46.407969140625  C 2.89704564453125 46.4438284570313  4.5019260546875 45.9995712890625  6.45080990234375 42.9902006835937  C 9.09467322265625 51.7745627929688  16.8329040429687 58.1370730078125  25.9755078710938 58.1370730664063  C 35.1181116992188 58.137073125  42.8849362109375 51.7746214453125  45.51450265625 42.9902592773438  C 47.4777419726562 46.0138681054688  49.1328372265625 46.4652737109375  49.5770943945312 46.4222659570313  C 50.0213515625 46.379258203125  51.3325019726562 45.58396640625  51.3325019726562 40.9267076367188  C 51.3325019726562 36.2694488671875  48.3016861132812 31.3255498242187  47.0334848046875 29.4124666992187  Z " fill-rule="nonzero" fill="#37464f" stroke="none" transform="matrix(1 0 0 1 2222 1417 )" />
  </g>
</svg>