<?xml version="1.0" encoding="utf-8"?>
<svg version="1.1" xmlns:xlink="http://www.w3.org/1999/xlink" width="60px" height="60px" xmlns="http://www.w3.org/2000/svg">
  <g transform="matrix(1 0 0 1 -2123 -1530 )">
    <path d="M 60 29.94  C 60 13.392  46.5792 0  30 0  C 13.4208 0  0 13.3944  0 29.94  C 0 46.4856  13.4208 59.88  30 59.88  C 46.5792 59.88  60 46.4856  60 29.94  Z M 38.0496 29.7828  L 38.0508 29.7828  L 32 29.7828  L 32 48.534  L 26 48.534  L 26 29.7828  L 21.156 29.7828  L 21.156 23.3232  L 25.104 23.3232  L 25.104 19.3836  C 25.104 14.1852  27.3156 11.0328  33.4716 11.0328  L 38.6796 11.0328  L 38.6796 17.4924  L 35.5212 17.4924  C 33.1536 17.4924  32.9964 18.4392  32.9964 20.0124  L 32.9964 23.1648  L 38.8368 23.1648  L 38.0472 29.7828  L 38.0496 29.7828  Z " fill-rule="nonzero" fill="#415d95" stroke="none" transform="matrix(1 0 0 1 2123 1530 )" />
  </g>
</svg>