<?xml version="1.0" encoding="utf-8"?>
<svg version="1.1" xmlns:xlink="http://www.w3.org/1999/xlink" width="31px" height="48px" xmlns="http://www.w3.org/2000/svg">
  <g transform="matrix(1 0 0 1 -2233 -1425 )">
    <path d="M 29.871540703125 24  L 0.623927285156253 24  C 0.474412550697618 25.8796356727741  0.402605014769149 27.0239363413276  0.409005761718751 28.169136484375  C 0.409005761718751 38.8378708398438  7.05815619140625 47.51471359375  15.2548824609375 47.51471359375  C 23.4516087304688 47.51471359375  30.1008177539063 38.866523125  30.1008176953125 28.169136484375  C 30.1024600655582 27.0236088893221  30.0258561201935 25.8793067761262  29.871540703125 24  Z M 13.8004119140625 6.3086606640625  C 13.8004119140625 3.35671181640625  12.0377973046875 0.963512265625001  9.85963646484375 0.963512265625001  C 7.71012791015625 0.963512265625001  5.918861015625 3.35665328125  5.91886095703125 6.3086606640625  C 5.9188608984375 9.260668046875  7.68147556640625 11.65375046875  9.85963646484375 11.6537505273437  C 12.0377973632813 11.6537505859375  13.8004119140625 9.26060951171875  13.8004119140625 6.3086606640625  Z M 11.944750546875 6.28715681640625  C 11.944750546875 7.49805349609375  11.299868671875 8.47961453125  10.5117253125 8.47961453125  C 9.716433515625 8.47961453125  9.078700078125 7.49805349609375  9.078700078125 6.28715681640625  C 9.078700078125 5.07626013671875  9.723581953125 4.0946405078125  10.5117253125 4.0946405078125  C 11.299868671875 4.0946405078125  11.944750546875 5.07626013671875  11.944750546875 6.28715681640625  Z M 20.2561446679687 0.963512265625001  C 18.1066361132812 0.963512265625001  16.31536921875 3.35665328125  16.3153691601562 6.3086606640625  C 16.3153691015625 9.260668046875  18.0779837695312 11.65375046875  20.2561446679687 11.6537505273437  C 22.4343055664062 11.6537505859375  24.1968615234375 9.260609453125  24.1968615234375 6.3086606640625  C 24.1968615234375 3.356711875  22.4342469140625 0.963512265625001  20.2560860742188 0.963512265625001  Z M 20.9869833984375 6.51643380859375  L 20.922530390625 6.50928537109375  C 20.922530390625 6.5686343855643  20.8744185688087 6.61674620738058  20.8150696289063 6.61674620738058  C 20.7670252630572 6.61785922548519  20.7249751720199 6.58482338762499  20.7146986523437 6.53793771484375  C 20.5614895826547 5.97537149716063  20.0827094880934 5.56171847177442  19.5038605664062 5.49180642578125  C 18.9320350231459 5.57462053600727  18.4658805736084 5.99274330873084  18.3216162304687 6.55223453125  C 18.3068259361719 6.59087650514874  18.2698275055486 6.61647291262046  18.2284522851562 6.61668759765625  C 18.1691261971409 6.6166876064576  18.1210238390639 6.5686114503077  18.1209915234375 6.50928537109375  L 18.1209915234375 6.3301645703125  C 18.1209915234375 5.119267890625  18.7658148046875 4.13758966796875  19.5540167578125 4.13758966796875  C 20.3422187109375 4.13758966796875  20.9869833984375 5.119267890625  20.9869833984375 6.3301645703125  L 20.9869833984375 6.51643380859375  Z " fill-rule="nonzero" fill="#ffffff" stroke="none" transform="matrix(1 0 0 1 2233 1425 )" />
  </g>
</svg>