<?xml version="1.0" encoding="utf-8"?>
<svg version="1.1" xmlns:xlink="http://www.w3.org/1999/xlink" width="37px" height="37px" xmlns="http://www.w3.org/2000/svg">
  <g transform="matrix(1 0 0 1 -185 -1255 )">
    <path d="M 203.5 1257  C 212.74 1257  220 1264.26  220 1273.5  C 220 1282.74  212.74 1290  203.5 1290  C 194.26 1290  187 1282.74  187 1273.5  C 187 1264.26  194.26 1257  203.5 1257  Z " fill-rule="nonzero" fill="#ffffff" stroke="none" fill-opacity="0" />
    <path d="M 203.5 1256.5  C 213.02 1256.5  220.5 1263.98  220.5 1273.5  C 220.5 1283.02  213.02 1290.5  203.5 1290.5  C 193.98 1290.5  186.5 1283.02  186.5 1273.5  C 186.5 1263.98  193.98 1256.5  203.5 1256.5  Z " stroke-width="3" stroke="#ff0000" fill="none" />
  </g>
</svg>