<?xml version="1.0" encoding="utf-8"?>
<svg version="1.1" xmlns:xlink="http://www.w3.org/1999/xlink" width="16px" height="25px" xmlns="http://www.w3.org/2000/svg">
  <g transform="matrix(1 0 0 1 -121 -406 )">
    <path d="M 10.5208633043478 16.3365042522695  L 9.94692806625259 24.8248128682911  L 5.64241401242236 24.5626789934703  L 6.07645250517598 17.943798757764  L 1.48497083229814 13.5427090619525  C 0.53535997757214 12.6361597157072  0.00129883404116526 11.4026842947034  0.00129883404116526 10.1159985347985  C 0.00129883404116526 8.82931277489363  0.53535997757214 7.59583735388988  1.48497083229814 6.68928800764453  L 8.12468379296066 0.229067749641665  L 10.9010953540373 2.86420296225514  L 10.9010953540373 7.67573913043478  L 15.9947703519669 7.67573913043478  L 15.9947703519669 11.8146949832776  L 6.63245224016563 11.8146949832776  L 6.63245224016563 7.59640914158305  L 4.56269836853002 9.61415011944577  C 4.42481827830672 9.74769566466059  4.34966197277357 9.92960582141964  4.35464685714286 10.1177230769231  C 4.35449534404094 10.301577086239  4.43067914410468 10.4778824839511  4.56628548240166 10.607499538143  L 10.5208633043478 16.3365042522695  Z M 7.53998727950311 17.3953871317089  L 7.15975522981366 23.2658061793279  L 8.59459322567288 23.3554835483357  L 9.01787044306418 16.8711193820672  L 3.53678920082816 11.5836032807772  C 3.13505181008686 11.1942771904205  2.91275603090704 10.6661258965804  2.91980882815735 10.1177230769231  C 2.91838448148444 9.56327173107148  3.14840586939721 9.0314591029579  3.5583117515528 8.64149549291288  L 8.06729026915114 4.23350753304666  L 8.06729026915114 10.4419412963848  L 14.5599323229814 10.4419412963848  L 14.5599323229814 9.06228934543717  L 9.46625735817805 9.06228934543717  L 9.46625735817805 3.44020764452938  L 8.13903218219462 2.18127526676222  L 2.51805419461698 7.66194263417742  C 1.83675875925624 8.30984037718508  1.45337571875959 9.19290720123915  1.45337571875959 10.1142739608218  C 1.45337571875959 11.0356407204044  1.83675875925624 11.9187075444585  2.51805419461698 12.5666052874662  L 7.53998727950311 17.3953871317089  Z " fill-rule="nonzero" fill="#282d33" stroke="none" transform="matrix(1 0 0 1 121 406 )" />
  </g>
</svg>