<?xml version="1.0" encoding="utf-8"?>
<svg version="1.1" xmlns:xlink="http://www.w3.org/1999/xlink" width="8px" height="8px" xmlns="http://www.w3.org/2000/svg">
  <g transform="matrix(1 0 0 1 -128 -401 )">
    <path d="M 7.76377010351967 4.09098669979296  C 7.75391424009473 6.18907144553027  6.05237937861365 7.88579971574611  3.95427514699793 7.88972038095238  C 3.9530884393261 7.8897214889349  3.95190173120277 7.88972204292625  3.9507150230137 7.88972204292625  C 1.84480794568222 7.88972204292625  0.13763295262033 6.18254704986437  0.13763295262033 4.07663997253288  C 0.13763295262033 1.97073289520139  1.84480794568222 0.263557902139502  3.9507150230137 0.263557902139502  C 6.05662210034519 0.263557902139502  7.76379709340708 1.97073289520139  7.76379709340708 4.07663997253288  C 7.76379709340708 4.08142222764652  7.76378809676202 4.08620447852924  7.76377010351967 4.09098669979296  Z M 3.95427514699793 1.71274265838509  L 3.95427514699793 1.69839426915114  C 3.95307944322461 1.69839246566487  3.95188373826125 1.69839156392135  3.95068803312783 1.69839156392135  C 2.63722011768231 1.69839156392135  1.57244399171996 2.7631676898837  1.57244399171996 4.07663560532922  C 1.57244399171996 5.39010352077474  2.63722011768231 6.45487964673709  3.95068803312783 6.45487964673709  C 5.26415594857335 6.45487964673709  6.3289320745357 5.39010352077474  6.3289320745357 4.07663560532922  C 6.32105124568595 2.77017509054797  5.26076068562299 1.71468946822089  3.95427514699793 1.71274265838509  Z " fill-rule="nonzero" fill="#282d33" stroke="none" transform="matrix(1 0 0 1 128 401 )" />
  </g>
</svg>