<?xml version="1.0" encoding="utf-8"?>
<svg version="1.1" xmlns:xlink="http://www.w3.org/1999/xlink" width="15px" height="23px" xmlns="http://www.w3.org/2000/svg">
  <g transform="matrix(1 0 0 1 -167 -462 )">
    <path d="M 6.8255120735786 10.0028609206349  L 14.8473258862876 10.0028609206349  L 14.8473258862876 7.2527546984127  L 9.70467324414716 7.2527546984127  L 9.70467324414716 2.04474104761905  L 7.63312585284281 0.0921656190476181  L 1.44745632107023 6.05645850793651  C -0.244874380509203 7.67328528644738  -0.244874380509205 10.2836074437114  1.44745632107023 11.9004342222222  L 6.3003820735786 16.5068621269841  L 5.88389963210703 22.742727968254  L 8.78116872909699 22.9180472380952  L 9.28819080267558 15.4515088571429  L 3.49365260869566 9.95129641269841  C 3.21716933871152 9.69284503877753  3.06148452942649 9.33990746890968  3.06148452942649 8.97157107936508  C 3.06148452942649 8.60323468982048  3.21716933871152 8.25029711995262  3.49365260869565 7.99184574603174  L 6.8255120735786 4.787972  L 6.8255120735786 10.0028609206349  Z " fill-rule="nonzero" fill="#000000" stroke="none" transform="matrix(1 0 0 1 167 462 )" />
  </g>
</svg>