<?xml version="1.0" encoding="utf-8"?>
<svg version="1.1" xmlns:xlink="http://www.w3.org/1999/xlink" width="10px" height="19px" xmlns="http://www.w3.org/2000/svg">
  <g transform="matrix(1 0 0 1 -345 -72 )">
    <path d="M 1.89375 1.27375  L 9.33125 9.0825  C 9.59409363334067 9.31286336662184  9.73688883853627 9.65096556214948  9.71875 10  C 9.71325296619982 10.333886866337  9.57359023350819 10.6515069519744  9.33125 10.88125  L 1.89375 18.675  C 1.71779467209907 18.864341549604  1.47097727138605 18.9719135623787  1.2125 18.9719135623787  C 0.954022728613957 18.9719135623787  0.707205327900922 18.864341549604  0.531249999999996 18.675  C 0.156381991637534 18.2681906373404  0.156381991637534 17.6418093626596  0.531249999999996 17.235  L 7.60625 9.985  L 0.53125 2.7125  C 0.156550103602587 2.30610520482143  0.156550103602587 1.68014479517856  0.531250000000004 1.27375  C 0.70720532790093 1.08440845039598  0.954022728613957 0.976836437621278  1.21250000000001 0.976836437621278  C 1.47097727138605 0.976836437621278  1.71779467209908 1.08440845039598  1.89375 1.27375  Z " fill-rule="nonzero" fill="#000000" stroke="none" transform="matrix(1 0 0 1 345 72 )" />
  </g>
</svg>