<?xml version="1.0" encoding="utf-8"?>
<svg version="1.1" xmlns:xlink="http://www.w3.org/1999/xlink" width="22px" height="22px" xmlns="http://www.w3.org/2000/svg">
  <g transform="matrix(1 0 0 1 -5 50 )">
    <path d="M 11.0146540625 0.4977365234375  C 5.2144266171875 0.4977365234375  0.5123426328125 5.1997006015625  0.5123426328125 10.9999520234375  C 0.5123426328125 16.8002034453125  5.2144266171875 21.502263453125  11.0146540625 21.502263453125  C 16.814785578125 21.502263453125  21.5168695625 16.8002034453125  21.5168695625 10.9999520234375  C 21.5168695625 5.1997006015625  16.814905484375 0.4977365234375  11.0146540625 0.4977365234375  Z M 11.0146540625 20.0019366875  C 6.042944890625 20.0019366875  2.012645421875 15.9716372421875  2.012645421875 10.9999520234375  C 2.012645421875 6.02833878125  6.0429448671875 1.9980393125  11.0146540625 1.9980393125  C 15.9862673046875 1.9980393125  20.0165667734375 6.0283387578125  20.0165667734375 10.9999520234375  C 20.0165667734375 15.97166121875  15.9862673046875 20.0019366875  11.0146540625 20.0019366875  Z M 10.0207678671875 10.3190536953125  C 10.0813508515625 10.2929114140625  10.145963046875 10.2796963671875  10.2129016484375 10.2796963671875  C 10.43182521875 10.2796963671875  10.6120390390625 10.4189939140625  10.6320654453125 10.6037406640625  C 10.6427861796875 10.70145040625  10.653123171875 10.84775121875  10.6193300703125 10.9883678984375  C 10.5159601484375 11.4195715390625  10.4086808984375 11.8554999921875  10.3049032578125 12.277110125  L 10.3035841484375 12.2824105390625  C 10.1739040625 12.8093093046875  10.0398109765625 13.35414790625  9.9131528515625 13.8907840625  C 9.72159471875 14.699683625  9.5604719609375 15.4294848125  9.4205508359375 16.1219913125  C 9.3711203515625 16.36619375  9.4349410859375 16.602841296875  9.6102861875 16.825458359375  C 9.7211390234375 16.966218921875  9.89720365625 17.0502579453125  10.081254875 17.0502579453125  C 10.1567077109375 17.0502579453125  10.2284670546875 17.0358197421875  10.2945662421875 17.00735103125  C 10.875428421875 16.75708071875  11.409714171875 16.415600234375  11.9071848828125 16.08728684375  C 12.1685836484375 15.91484375  12.4217799921875 15.7403380859375  12.689846234375 15.555567359375  L 12.6954824140625 15.551681984375  C 12.77273403125 15.498438078125  12.8502974609375 15.4449783359375  12.9284124921875 15.3913267109375  C 12.9049803828125 15.3398096328125  12.8820998984375 15.2905950078125  12.8580202109375 15.2440665546875  C 12.7918011171875 15.2796824140625  12.7241909375 15.32069459375  12.6517840390625 15.36911778125  C 12.58163159375 15.41586209375  12.5107116875 15.4654844375  12.4421181875 15.51347590625  C 12.2976401328125 15.614615328125  12.14968446875 15.7181531328125  11.992111296875 15.8081881015625  C 11.824608875 15.9028279296875  11.6375356953125 15.9403385  11.51001415625 15.955208421875  C 11.3714121171875 15.9710856640625  11.2317788046875 15.90786453125  11.1347885703125 15.786242984375  C 11.0414678515625 15.669250296875  11.0018946640625 15.51597021875  11.0315146015625 15.386218203125  L 11.04489753125 15.3276978828125  C 11.191678015625 14.6865885546875  11.343447125 14.023654015625  11.5111893828125 13.3742463125  C 11.682697109375 12.7100646171875  11.861136125 12.041637828125  12.0336751484375 11.395204109375  L 12.0345865390625 11.3917024765625  C 12.1628515859375 10.9111163046875  12.2955056328125 10.414149265625  12.4236747265625 9.925072859375  C 12.4921962734375 9.663602140625  12.5015978984375 9.40812734375  12.4515678125 9.1657236875  C 12.4108673984375 8.96620296875  12.337021484375 8.860218828125  12.2045592734375 8.8111480859375  C 12.0719531796875 8.762149296875  11.928386515625 8.76816921875  11.802495875 8.828104578125  L 11.73073653125 8.8622334453125  C 11.461591015625 8.990042796875  11.1833316640625 9.12216921875  10.9441898046875 9.28864034375  C 10.47521178125 9.6150830234375  10.007768703125 9.962919171875  9.5556991953125 10.299291125  C 9.3875731953125 10.42441428125  9.2193991953125 10.5495374609375  9.050745546875 10.673941109375  C 8.9454569375 10.7516004453125  8.8431423125 10.8298114296875  8.7348077421875 10.9126272734375  L 8.719506125 10.9243073515625  C 8.7420028671875 10.96354475  8.7641878203125 11.001511015625  8.7869483984375 11.038134171875  C 8.825226453125 11.0104569453125  8.863096765625 10.98249190625  8.9010150546875 10.9545028671875  L 8.903197578125 10.9528959453125  C 9.0339089609375 10.856409359375  9.1690813203125 10.756637  9.3154780625 10.6712069375  C 9.527110578125 10.54759475  9.75781015625 10.43240084375  10.0207678671875 10.3190536953125  Z M 12.19873128125 5.0075908671875  C 11.800409328125 5.1862936953125  11.5826849375 5.51561440625  11.533110546875 6.014188390625  C 11.5417926640625 6.261292859375  11.5905276171875 6.42356684375  11.69564834375 6.5560530078125  C 11.8592414375 6.7615936484375  12.0686674296875 6.84944609375  12.3590625546875 6.8341924296875  C 12.5885869296875 6.822128609375  12.79093775 6.7319257578125  12.9605027890625 6.5661021875  C 13.303302359375 6.2309534140625  13.39256984375 5.85937334375  13.2333897734375 5.4300644140625  C 13.142371484375 5.1850465390625  12.9791141796875 5.0420554765625  12.719610125 4.980153453125  C 12.63458778125 4.9599831171875  12.5539304609375 4.949742078125  12.480060546875 4.949742078125  C 12.377338203125 4.949742078125  12.28531259375 4.9686652578125  12.19873128125 5.0075908671875  Z " fill-rule="nonzero" fill="#000000" stroke="none" transform="matrix(1 0 0 1 5 -50 )" />
  </g>
</svg>