<svg class="icon" viewBox="0 0 1024 1024" version="1.1" xmlns="http://www.w3.org/2000/svg" p-id="9832" height="128" width="128"><path d="M512 0C229.232356 0 0 229.230933 0 512s229.230933 512 512 512c282.774756 0 512-229.230933 512-512S794.774756 0 512 0z m-105.309867 188.989156c35.572622 0 64.408178 37.902222 64.408178 84.650666 0 46.754133-28.835556 84.650667-64.408178 84.650667s-64.406756-37.896533-64.406755-84.650667c-0.007111-46.748444 28.834133-84.650667 64.406755-84.650666zM502.8352 775.822222c0.246044 4.363378-2.269867 11.578311-10.244267 12.552534-11.666489 1.706667-23.266133 2.577067-34.358044 2.577066-127.028622 0-232.277333-102.08-236.768711-228.512711l-20.579556 0.022756-0.369778-0.0512c-5.7344-0.915911-9.2544-3.291022-10.467555-7.044267-2.144711-6.596267 4.622222-13.368889 7.876267-16.622933l53.566577-54.944711c3.029333-3.029333 6.991644-4.669156 11.2128-4.669156s8.189156 1.646933 11.167289 4.622222l54.818134 54.819556c2.308267 2.308267 9.648356 10.400711 7.108266 17.383822-0.9216 2.554311-3.414756 5.717333-10.026666 6.320356l-25.885867 0.054044c4.3776 83.286756 74.420622 150.272 158.3488 150.272 10.944 0 22.000356-1.133511 32.832-3.374933l0.393955-0.0896 0.432356-0.007111c3.164444 0 5.613511 1.058133 7.4752 3.044977 3.848533 4.161422 3.551289 10.951111 3.453156 12.269511l0.015644 51.377778zM279.096889 457.9712s7.005867-55.992889 22.857955-66.565689c15.857778-10.565689 61.548089-17.578667 61.548089-17.578667s29.609244 31.650133 42.197334 31.650134c12.575289 0 42.207289-31.650133 42.207289-31.650134s45.688889 7.012978 61.539555 17.578667c18.659556 12.438756 23.303111 66.565689 23.303111 66.565689H279.096889z m247.677155 377.039644s7.003022-55.992889 22.855112-66.567111c15.857778-10.564267 61.548089-17.575822 61.548088-17.575822s29.609244 31.648711 42.197334 31.648711c12.583822 0 42.207289-31.648711 42.207289-31.648711s45.691733 7.011556 61.539555 17.575822c18.659556 12.443022 23.304533 66.567111 23.304534 66.567111h-253.653334z m63.185067-184.3328c0-46.7456 28.834133-84.650667 64.406756-84.650666s64.408178 37.905067 64.408177 84.650666c0 46.755556-28.835556 84.657778-64.408177 84.657778s-64.406756-37.902222-64.406756-84.657778z m251.099022-96.605866l-53.575111 54.944711c-3.022222 3.029333-6.990222 4.667733-11.204266 4.667733a15.664356 15.664356 0 0 1-11.168712-4.623644l-54.816711-54.823822c-2.306844-2.308267-9.656889-10.3936-7.118222-17.379556 0.931556-2.544356 3.4176-5.717333 10.029511-6.318933l25.901511-0.044089c-4.394667-83.295289-74.429156-150.279111-158.364444-150.279111-10.944 0-21.984711 1.132089-32.824889 3.364977l-0.395378 0.088178-0.430933 0.014222c-3.163022 0-5.620622-1.055289-7.466667-3.050666-3.864178-4.162844-3.566933-10.951111-3.456-12.2624l-0.021333-51.384889c-0.246044-4.356267 2.261333-11.576889 10.244267-12.545422 11.666489-1.703822 23.266133-2.574222 34.350933-2.574223 127.034311 0 232.285867 102.077156 236.781511 228.508445l20.565333-0.028445 0.379734 0.059734c5.724444 0.914489 9.252978 3.2896 10.467555 7.034311 2.129067 6.6048-4.623644 13.380267-7.877689 16.632889z" fill="#999999" p-id="9833"></path></svg>